<svg xmlns="http://www.w3.org/2000/svg" id="Laag_1" x="0" y="0" version="1.1" viewBox="29 20.3 70 70" xml:space="preserve">
    <style>
        .st3{fill:#000}
    </style>    <path d="M56.75 79.92c.32.06.61.17.88.33s.5.36.69.6c.19.24.34.52.44.84.1.32.16.65.16 1.01 0 .49-.1.92-.29 1.31-.2.39-.48.72-.84.99-.37.27-.81.49-1.33.64s-1.1.22-1.74.22c-1.57 0-2.8-.46-3.69-1.38l1.33-1.77c.28.29.6.51.95.66.36.15.78.22 1.28.22 1.17 0 1.75-.43 1.75-1.29 0-.46-.17-.82-.52-1.05-.35-.24-.89-.36-1.64-.36h-.47v-1.78h.51c.58 0 1.03-.12 1.36-.36.33-.24.49-.55.49-.95 0-.34-.12-.6-.36-.78s-.55-.26-.95-.26c-.42 0-.81.1-1.15.3-.35.2-.64.49-.88.86l-1.57-1.8c.17-.22.38-.42.65-.6.27-.19.57-.34.91-.47.34-.13.71-.23 1.1-.3s.8-.11 1.21-.11c.55 0 1.05.06 1.5.19.45.13.84.32 1.16.56.32.24.57.53.74.87.18.34.26.71.26 1.12 0 .31-.05.6-.15.88-.1.28-.24.53-.41.76-.18.23-.39.42-.63.57s-.46.27-.75.33zM63.71 83.74c-.56 0-1.07-.11-1.54-.32-.47-.21-.88-.51-1.22-.89a4.19 4.19 0 01-.8-1.34c-.19-.51-.29-1.07-.29-1.68 0-.59.09-1.14.26-1.66.18-.52.42-.96.74-1.34.32-.38.7-.67 1.14-.89.44-.22.92-.33 1.45-.33.57 0 1.08.13 1.54.4s.81.63 1.06 1.08v-4.51h2.48v8.53c0 .25.04.42.12.52.08.1.21.16.41.18v2.09c-.23.05-.42.08-.59.1-.17.02-.32.02-.46.02-.43 0-.79-.09-1.05-.27s-.42-.43-.46-.77l-.05-.42c-.29.51-.68.88-1.17 1.13-.49.25-1.02.37-1.57.37zm.66-2.09c.34 0 .67-.1.98-.3.32-.2.56-.48.72-.83v-1.71c-.15-.41-.41-.75-.75-1.01-.35-.26-.71-.4-1.08-.4-.27 0-.51.06-.74.18-.22.12-.42.28-.58.47-.17.2-.29.42-.38.68-.09.26-.13.53-.13.82 0 .3.05.58.15.84.1.26.23.48.4.67.17.19.38.33.62.43.25.11.51.16.79.16zM73.67 83.74c-.69 0-1.37-.11-2.05-.33-.67-.22-1.24-.54-1.71-.97l.88-1.52c.5.34.98.6 1.45.79.47.19.92.28 1.36.28.32 0 .57-.06.74-.17.17-.11.26-.28.26-.5 0-.22-.11-.39-.33-.52-.22-.13-.61-.27-1.17-.41-.55-.15-1.01-.3-1.39-.45s-.68-.3-.92-.48-.41-.38-.51-.6-.16-.5-.16-.81c0-.41.08-.79.25-1.13s.39-.63.68-.87c.29-.24.63-.42 1.03-.56.4-.13.83-.2 1.29-.2.61 0 1.18.08 1.71.25.53.17 1.05.47 1.54.9l-.96 1.49c-.46-.32-.88-.55-1.24-.7-.36-.14-.71-.22-1.05-.22-.27 0-.5.05-.68.16-.19.11-.28.28-.28.52 0 .23.1.4.3.51.2.11.58.24 1.12.37.58.16 1.07.31 1.46.47.4.15.72.33.97.52s.43.41.54.66c.11.25.17.54.17.88 0 .81-.3 1.45-.9 1.92-.56.49-1.37.72-2.4.72z" class="st3"/>
    <path d="M89.93 20.82H38.07c-1.54 0-2.79 1.25-2.79 2.78V87c0 1.53 1.25 2.78 2.79 2.78h51.86c1.54 0 2.79-1.25 2.79-2.78V23.6c0-1.53-1.25-2.78-2.79-2.78zm-51.65 3h51.44v44.2H38.28v-44.2zm51.44 62.96H38.28V71.02h51.44v15.76z" class="st3"/>
    <path d="M82.23 49.39l-8.42-4.61v-8.16h-.06l.12-.07-9.69-4.84-9.5 5.05.08.04v7.96l-9 4.63.02.01V59l9.71 5 8.71-4.07 8.87 3.76 9.13-4.42v-9.82h-.08l.11-.06zM54.77 61.94l-7.48-3.85v-7.9l7.48 3.94v7.81zM49.01 49.4l6.51-3.35 6.74 3.3-6.74 3.47-6.51-3.42zm14.44 9.24l-7.18 3.35v-7.86l7.18-3.7v8.21zm0-10.36l-7.18-3.52v-7.13l7.18 3.94v6.71zm.74-8.02l-6.36-3.49 6.37-3.39 6.48 3.24-6.49 3.64zm8.13-2.84v7.31l-7.37 3.39v-6.56l7.37-4.14zm-7.37 21.2v-8.04l7.37 3.47v7.69l-7.37-3.12zm8.08-5.88l-7.18-3.39 7.18-3.3 6.09 3.34-6.09 3.35zm7.7 5.59l-6.91 3.35v-7.66l6.91-3.79v8.1z" class="st3"/>
</svg>