<svg xmlns="http://www.w3.org/2000/svg" id="Laag_1" x="0" y="0" version="1.1" viewBox="29 20.3 70 70" xml:space="preserve">
    <style>
        .st3{fill:#000}
    </style>    <path d="M89.93 20.82H38.07c-1.54 0-2.79 1.25-2.79 2.78V87c0 1.53 1.25 2.78 2.79 2.78h51.86c1.54 0 2.79-1.25 2.79-2.78V23.6c0-1.53-1.25-2.78-2.79-2.78zm-51.65 3h51.44v44.2H38.28v-44.2zm51.44 62.96H38.28V71.02h51.44v15.76z" class="st3"/>
    <path d="M43.84 84.34c-.4 0-.78-.06-1.12-.19-.35-.13-.64-.31-.89-.54a2.526 2.526 0 01-.81-1.85c0-.4.08-.77.26-1.1.17-.33.41-.61.72-.85s.68-.42 1.1-.56c.42-.13.89-.2 1.41-.2.34 0 .67.03.99.09s.6.14.84.26v-.37c0-.94-.54-1.41-1.63-1.41-.44 0-.87.08-1.27.23-.4.15-.83.37-1.27.67l-.73-1.55c.54-.35 1.09-.62 1.67-.79.58-.17 1.19-.26 1.84-.26 1.23 0 2.18.29 2.85.87.67.58 1.01 1.43 1.01 2.54v2.09c0 .25.04.42.12.52.08.1.21.16.41.18v2.09c-.22.05-.41.08-.59.1s-.34.02-.48.02c-.46 0-.82-.09-1.05-.27-.24-.18-.39-.44-.45-.77l-.05-.37c-.36.46-.79.82-1.29 1.07-.5.23-1.03.35-1.59.35zm.73-1.78c.27 0 .53-.05.78-.14.25-.09.46-.22.63-.37.24-.19.36-.38.36-.59v-.78c-.22-.08-.45-.15-.71-.19-.25-.05-.49-.07-.71-.07-.46 0-.83.1-1.12.31-.29.21-.44.47-.44.81 0 .3.11.54.34.74s.52.28.87.28zM50.14 80.11c0-.56.1-1.09.29-1.6s.48-.96.85-1.35c.37-.39.83-.69 1.37-.92.54-.23 1.16-.34 1.85-.34.94 0 1.73.2 2.37.6.64.4 1.12.92 1.44 1.56l-2.42.73c-.31-.53-.78-.79-1.4-.79-.52 0-.95.19-1.29.57-.35.38-.52.89-.52 1.54 0 .32.05.61.14.88.09.26.22.49.39.67.17.19.36.33.58.43.22.1.46.16.71.16.31 0 .59-.08.85-.22.26-.15.45-.34.57-.58l2.42.74c-.3.63-.78 1.15-1.43 1.55-.66.4-1.45.6-2.39.6-.68 0-1.29-.12-1.84-.35s-1-.54-1.38-.93a3.99 3.99 0 01-.86-1.35c-.21-.5-.3-1.04-.3-1.6zM58.89 80.11c0-.56.1-1.09.29-1.6s.48-.96.85-1.35c.37-.39.83-.69 1.37-.92.54-.23 1.16-.34 1.85-.34.94 0 1.73.2 2.37.6.64.4 1.12.92 1.44 1.56l-2.42.73c-.3-.53-.77-.79-1.39-.79-.52 0-.95.19-1.29.57-.35.38-.52.89-.52 1.54 0 .32.05.61.14.88.09.26.22.49.39.67.17.19.36.33.58.43.22.1.46.16.71.16.31 0 .59-.08.85-.22.26-.15.45-.34.57-.58l2.42.74c-.3.63-.78 1.15-1.43 1.55-.66.4-1.45.6-2.4.6-.68 0-1.29-.12-1.84-.35s-1-.54-1.38-.93a3.99 3.99 0 01-.86-1.35c-.2-.5-.3-1.04-.3-1.6zM71.49 84.34c-.56 0-1.07-.11-1.54-.32-.47-.21-.88-.51-1.22-.89a4.19 4.19 0 01-.8-1.34c-.19-.51-.29-1.07-.29-1.68 0-.59.09-1.14.26-1.66s.42-.96.74-1.34c.32-.38.7-.67 1.14-.89s.92-.33 1.45-.33c.57 0 1.08.13 1.54.4s.81.63 1.06 1.08v-4.51h2.48v8.53c0 .25.04.42.12.52.08.1.21.16.41.18v2.09c-.23.05-.42.08-.59.1-.17.02-.32.02-.47.02-.43 0-.79-.09-1.05-.27s-.42-.44-.46-.78l-.05-.42c-.29.51-.68.88-1.17 1.13s-1 .38-1.56.38zm.67-2.09c.34 0 .67-.1.98-.3.32-.2.56-.48.72-.83v-1.71c-.15-.41-.41-.75-.75-1.01-.35-.26-.71-.4-1.08-.4-.27 0-.51.06-.74.18-.22.12-.42.28-.58.47-.17.2-.29.42-.38.68-.09.26-.13.53-.13.82 0 .3.05.58.15.84.1.26.23.48.4.67.17.19.38.33.62.43.25.11.51.16.79.16zM83.14 84.34c-.62 0-1.16-.13-1.63-.4s-.83-.63-1.1-1.11v1.35h-2.15V72.87h2.48v4.51c.27-.46.63-.83 1.08-1.09.45-.26.98-.4 1.59-.4.52 0 .99.11 1.43.33.43.22.81.52 1.12.91.31.38.55.83.73 1.36s.26 1.08.26 1.67-.1 1.14-.29 1.65c-.19.51-.46.96-.8 1.33s-.74.67-1.21.88c-.48.22-.98.32-1.51.32zm-.7-2.09c.29 0 .55-.05.79-.16s.44-.26.61-.44a2.228 2.228 0 00.55-1.49c0-.29-.05-.57-.14-.83-.09-.26-.22-.49-.38-.69-.16-.2-.35-.35-.58-.46-.23-.12-.47-.18-.73-.18-.39 0-.75.13-1.08.4-.33.27-.58.6-.75 1.01v1.71c.17.35.41.63.72.83.32.2.65.3.99.3zM64 31.79c-7.01 0-12.29 2.93-12.29 6.83v17.59c0 3.89 5.28 6.83 12.29 6.83 7 0 12.29-2.94 12.29-6.83V38.62c0-3.9-5.29-6.83-12.29-6.83zm9.64 24.42c0 1.98-4.13 4.18-9.64 4.18-5.49 0-9.6-2.19-9.64-4.18v-1.52c2.22 1.55 5.73 2.49 9.64 2.49 3.97 0 7.44-.94 9.64-2.48v1.51zm0-4.22c-1.23 1.66-4.82 3.19-9.64 3.19-4.32 0-8.27-1.32-9.64-3.21v-3.4c2.19 1.53 5.66 2.51 9.64 2.51 3.98 0 7.45-.98 9.64-2.52v3.43zm0-6.12c-1.23 1.69-4.85 3.21-9.64 3.21-4.79 0-8.41-1.52-9.64-3.21v-2.92c2.21 1.55 5.64 2.5 9.64 2.5 3.99 0 7.43-.95 9.64-2.5v2.92zM64 42.8c-5.52 0-9.64-2.21-9.64-4.18 0-1.98 4.12-4.19 9.64-4.19 5.51 0 9.64 2.21 9.64 4.19 0 1.97-4.13 4.18-9.64 4.18z" class="st3"/>
</svg>