<svg xmlns="http://www.w3.org/2000/svg" id="Laag_1" x="0" y="0" version="1.1" viewBox="29 20.3 70 70" xml:space="preserve">
    <style>
        .st3{fill:#000}
    </style>    <path d="M60.86 83.93c-.36 0-.7-.06-1.02-.17-.31-.12-.58-.28-.8-.49-.22-.21-.4-.46-.53-.74-.13-.29-.2-.6-.2-.93 0-.36.08-.7.23-.99.15-.3.37-.55.65-.77.28-.21.61-.38.99-.5s.81-.18 1.27-.18c.31 0 .61.03.9.08.29.05.54.13.76.23v-.34c0-.85-.49-1.27-1.47-1.27-.4 0-.78.07-1.15.2-.36.14-.75.34-1.15.61l-.66-1.4a5.666 5.666 0 013.18-.95c1.11 0 1.97.26 2.58.78s.91 1.29.91 2.3v1.89c0 .22.03.38.1.47s.19.14.37.16v1.89c-.2.05-.37.08-.53.09-.16.01-.3.02-.43.02-.42 0-.74-.08-.95-.25-.21-.16-.35-.39-.41-.69l-.04-.34c-.33.42-.72.74-1.17.97-.44.21-.92.32-1.43.32zm.66-1.61c.24 0 .48-.04.71-.13.23-.08.42-.2.57-.34.21-.17.32-.35.32-.53v-.7a3.988 3.988 0 00-1.28-.23c-.41 0-.75.09-1.02.28-.27.19-.4.43-.4.73 0 .27.1.49.31.67.21.16.47.25.79.25zM66.98 75.6v-2.03h2.24v2.03h-2.24zm0 8.19v-7.35h2.24v7.35h-2.24z" class="st3"/>
    <path d="M89.93 20.82H38.07c-1.54 0-2.79 1.25-2.79 2.78V87c0 1.53 1.25 2.78 2.79 2.78h51.86c1.54 0 2.79-1.25 2.79-2.78V23.6c0-1.53-1.25-2.78-2.79-2.78zm-51.65 3h51.44v44.2H38.28v-44.2zm51.44 62.96H38.28V71.02h51.44v15.76z" class="st3"/>
    <path d="M50.83 58.76l3.29-9.35c1.47-4.17 2.94-8.34 4.39-12.52.13-.39.3-.56.75-.55 1.43.03 2.87.02 4.31 0 .35 0 .55.07.68.45 2.51 7.17 5.04 14.34 7.57 21.51.04.12.06.24.11.44-.26.01-.47.03-.69.03-1.16 0-2.33-.03-3.49.01-.5.02-.73-.13-.89-.62-.54-1.64-1.15-3.25-1.7-4.88-.13-.39-.32-.51-.71-.51-2.25.01-4.49.02-6.74 0-.42 0-.62.12-.76.53-.55 1.65-1.16 3.29-1.72 4.94-.14.4-.33.55-.76.54-1.18-.05-2.36-.02-3.64-.02zm7.37-9.01h6.3c-1.05-2.96-2.07-5.85-3.09-8.74l-.14.03c-1.02 2.89-2.04 5.78-3.07 8.71zM77.04 42.16V58.7h-4.29V42.16h4.29zM74.9 40.89c-1.29.01-2.3-.98-2.3-2.27 0-1.27.96-2.26 2.22-2.29 1.29-.03 2.32.96 2.35 2.24a2.28 2.28 0 01-2.27 2.32z" class="st3"/>
</svg>