<svg xmlns="http://www.w3.org/2000/svg" id="Laag_1" x="0" y="0" version="1.1" viewBox="29 20.3 70 70" xml:space="preserve">
    <style>
        .st3{fill:#000}
    </style>    <path d="M53.68 83.03c-.56 0-1.05-.12-1.47-.36s-.75-.57-.99-1v1.22h-1.95V72.67h2.24v4.07c.24-.42.57-.75.97-.99.41-.24.88-.36 1.44-.36.47 0 .9.1 1.29.3.39.2.73.47 1.01.82s.5.75.66 1.23c.16.47.24.97.24 1.5s-.09 1.03-.26 1.49c-.17.46-.41.86-.72 1.2-.31.34-.67.61-1.09.8-.44.2-.89.3-1.37.3zm-.64-1.89a1.695 1.695 0 001.26-.55c.15-.17.28-.37.36-.59.09-.23.13-.48.13-.75 0-.26-.04-.51-.13-.75-.08-.24-.2-.45-.34-.62-.15-.18-.32-.32-.53-.42a1.497 1.497 0 00-1.63.21c-.29.24-.52.55-.68.91v1.54c.15.32.37.57.65.75.31.18.61.27.91.27zM69.84 82.89H67.6v-4.13c0-.49-.09-.84-.27-1.06a.852.852 0 00-.69-.33c-.15 0-.3.03-.46.1-.15.07-.3.16-.43.27-.13.12-.25.25-.36.41a2.3 2.3 0 00-.26.52v4.21h-2.24v-4.13c0-.49-.09-.84-.27-1.06a.852.852 0 00-.69-.33c-.3 0-.59.12-.88.36s-.49.55-.62.95v4.21h-2.24v-7.35h2.02v1.23c.27-.45.64-.79 1.1-1.02.46-.23 1-.35 1.62-.35.31 0 .58.04.81.11.23.08.43.18.59.31.17.13.3.28.41.46.1.17.18.36.22.55.28-.46.65-.81 1.11-1.06s.98-.37 1.57-.37c.47 0 .84.09 1.13.26.28.17.51.4.67.67.16.28.26.58.31.9.05.33.08.64.08.95v4.72zM75.96 83.03c-.56 0-1.04-.12-1.46-.35s-.73-.56-.95-.98v4.17h-2.24V75.54h1.95v1.19c.27-.42.61-.75 1.02-.98.41-.23.89-.35 1.45-.35.5 0 .95.1 1.37.29.42.2.77.46 1.08.81.3.34.54.74.71 1.2.17.46.26.96.26 1.49 0 .55-.08 1.06-.24 1.53-.16.47-.38.87-.66 1.21s-.62.61-1.01.8c-.4.2-.82.3-1.28.3zm-.75-1.89c.24 0 .46-.05.67-.16.2-.11.38-.25.52-.43s.26-.38.34-.62c.08-.24.12-.49.12-.75 0-.27-.04-.52-.13-.75s-.21-.43-.36-.59c-.15-.17-.34-.3-.56-.39-.22-.09-.46-.14-.71-.14-.31 0-.6.09-.89.27-.29.18-.5.43-.65.74v1.51c.15.37.38.69.68.94.3.24.62.37.97.37z" class="st3"/>
    <path d="M89.93 20.82H38.07c-1.54 0-2.79 1.25-2.79 2.78V87c0 1.53 1.25 2.78 2.79 2.78h51.86c1.54 0 2.79-1.25 2.79-2.78V23.6c0-1.53-1.25-2.78-2.79-2.78zm-51.65 3h51.44v44.2H38.28v-44.2zm51.44 62.96H38.28V71.02h51.44v15.76z" class="st3"/>
    <path d="M46.06 58.94h35.73c.93 0 1.5-1.01 1.02-1.81l-7.45-12.41a.51.51 0 00-.72-.16l-8.66 5.78c-.25.17-.59.08-.73-.18l-8.92-16.79c-.2-.38-.75-.35-.92.04L45.1 57.48c-.3.69.21 1.46.96 1.46z" class="st3"/>
    <circle cx="70.39" cy="36.57" r="3.67" class="st3"/>
</svg>