<svg xmlns="http://www.w3.org/2000/svg" id="Laag_1" x="0" y="0" version="1.1" viewBox="29 20.3 70 70" xml:space="preserve">
    <style>
        .st3{fill:#000}
    </style>    <path d="M89.93 20.82H38.07c-1.54 0-2.79 1.25-2.79 2.78V87c0 1.53 1.25 2.78 2.79 2.78h51.86c1.54 0 2.79-1.25 2.79-2.78V23.6c0-1.53-1.25-2.78-2.79-2.78zm-51.65 3h51.44v44.2H38.28v-44.2zm51.44 62.96H38.28V71.02h51.44v15.76z" class="st3"/>
    <path d="M52.95 78.71c0-.56.1-1.09.29-1.6s.48-.96.85-1.35c.37-.39.83-.69 1.37-.92.54-.23 1.16-.34 1.85-.34.94 0 1.73.2 2.37.6.64.4 1.12.92 1.44 1.56l-2.42.73c-.32-.52-.79-.78-1.41-.78-.52 0-.95.19-1.29.57-.35.38-.52.89-.52 1.54 0 .32.05.61.14.88.09.26.22.49.39.67.17.19.36.33.58.43.22.1.46.16.71.16.31 0 .59-.08.85-.22.26-.15.45-.34.57-.58l2.42.74c-.3.63-.78 1.15-1.43 1.55-.66.4-1.45.6-2.39.6-.68 0-1.29-.12-1.84-.35s-1-.54-1.38-.93a3.99 3.99 0 01-.86-1.35c-.19-.51-.29-1.05-.29-1.61zM65.33 82.82c-.54 0-1.03-.11-1.47-.33-.44-.22-.82-.51-1.14-.88-.31-.37-.56-.81-.74-1.3a4.67 4.67 0 01-.26-1.6c0-.6.09-1.16.28-1.67.19-.51.44-.96.78-1.33.33-.38.73-.67 1.19-.89s.98-.33 1.53-.33c.62 0 1.16.13 1.62.4s.83.63 1.11 1.09v-1.33h2.15v7.58c0 .62-.12 1.18-.35 1.67s-.56.92-.97 1.26c-.41.35-.91.61-1.49.8-.58.19-1.21.28-1.91.28-.88 0-1.63-.14-2.25-.42-.62-.28-1.16-.68-1.63-1.21l1.33-1.35c.3.34.67.61 1.12.81.44.2.92.3 1.43.3.3 0 .58-.04.85-.12.27-.08.51-.21.71-.38s.37-.39.49-.67c.12-.27.18-.6.18-.98v-.79c-.25.46-.6.8-1.07 1.03-.45.24-.95.36-1.49.36zm.86-1.97c.38 0 .72-.11 1.02-.32s.53-.48.7-.81v-1.71c-.17-.43-.42-.78-.76-1.03s-.7-.38-1.08-.38c-.27 0-.51.06-.74.18-.22.12-.41.28-.57.48-.16.2-.29.43-.37.7-.09.26-.13.53-.13.81 0 .3.05.58.15.83.1.25.23.47.41.66.18.19.38.33.61.43.22.11.48.16.76.16zM72.09 73.72v-2.25h2.48v2.25h-2.48zm0 9.07v-8.14h2.48v8.14h-2.48zM67.95 46.91c-.55-.78-.6-1.84-.04-2.68.19-.29.43-.52.71-.69-.03-.64-.16-1.27-.36-1.88-.31-.06-.6-.17-.88-.36a2.36 2.36 0 01-1-2.53 6.36 6.36 0 00-.87-.68c-.25-.17-.52-.32-.78-.45-.78.59-1.88.65-2.75.08-.31-.21-.56-.48-.74-.78-.61.04-1.21.15-1.78.34-.03.38-.16.75-.39 1.09-.6.9-1.71 1.27-2.69.96a6.612 6.612 0 00-.99 1.49c.67.79.77 1.95.17 2.85a2.4 2.4 0 01-.86.79c.05.62.18 1.23.39 1.82.37.04.74.16 1.07.38.87.57 1.24 1.62.99 2.57.21.17.42.34.65.49.29.19.59.36.89.5a2.374 2.374 0 013.43.65c.66-.04 1.3-.18 1.92-.4.05-.32.17-.64.36-.93.56-.84 1.56-1.21 2.49-1.01a6.524 6.524 0 001.06-1.62zm-8.19-.15a3.43 3.43 0 01-.97-4.75 3.432 3.432 0 014.75-.97 3.432 3.432 0 01.97 4.75 3.421 3.421 0 01-4.75.97zM72.14 50.79a.89.89 0 01-.47-.88c.01-.13.05-.25.12-.35-.12-.21-.27-.39-.44-.56a.886.886 0 01-1.11-.64c-.13-.04-.27-.06-.4-.08-.11-.01-.22-.02-.33-.02-.16.33-.51.54-.89.49a.953.953 0 01-.38-.13c-.19.11-.37.25-.53.42.05.13.07.28.06.43a.87.87 0 01-.73.77c-.03.11-.05.22-.06.33-.01.11-.02.22-.02.33.35.15.58.51.54.91-.02.15-.07.29-.15.41.12.2.27.38.44.53.13-.05.27-.07.42-.05.38.04.68.33.76.68.1.02.2.04.3.05.13.01.25.02.38.01.16-.32.51-.53.89-.49.13.01.25.06.35.12.21-.13.4-.28.57-.46-.04-.11-.05-.24-.04-.37a.89.89 0 01.65-.76c.03-.11.05-.23.06-.35.01-.1.01-.22.01-.34zm-2.73 1.34c-.7-.08-1.2-.71-1.13-1.41.08-.7.71-1.2 1.41-1.13.7.08 1.2.71 1.13 1.41-.09.71-.71 1.21-1.41 1.13z" class="st3"/>
    <path d="M73.79 41.82l.09-4.47-3.23-9.53-23.43 7.94 10.12 29.89 16.08-5.45.03-1.61-15.15 5.13-9.15-27.01 20.55-6.96 4.09 12.07zm3.08 4.36l-.09 4.47 2.07 6.1-2.2.75-.03 1.61 4.16-1.41-3.91-11.52zM75.94 56.51c-.2.19-.47.31-.77.31-.6-.01-1.08-.5-1.07-1.1l.19-16.5a1.084 1.084 0 112.17.03l-.19 16.5c-.01.3-.13.57-.33.76zM76.11 58.88L74.99 62l-1.05-3.14c-.2-.6.12-1.25.73-1.45s1.25.12 1.45.73c.09.24.08.51-.01.74z" class="st3"/>
</svg>