<svg xmlns="http://www.w3.org/2000/svg" id="Laag_1" x="0" y="0" version="1.1" viewBox="29 20.3 70 70" xml:space="preserve">
    <style>
        .st3,.st4{fill:#000}.st4{stroke:#000;stroke-width:3;stroke-miterlimit:10}
    </style>    <path d="M89.93 20.82H38.07c-1.54 0-2.79 1.25-2.79 2.78V87c0 1.53 1.25 2.78 2.79 2.78h51.86c1.54 0 2.79-1.25 2.79-2.78V23.6c0-1.53-1.25-2.78-2.79-2.78zm-51.65 3h51.44v44.2H38.28v-44.2zm51.44 62.96H38.28V71.02h51.44v15.76zM43.54 35h40.92" class="st3"/>
    <path d="M43.54 33.5h40.93v3H43.54z" class="st3"/>
    <path d="M43.54 45.72h40.92M43.54 54.93h40.92" class="st4"/>
    <path d="M49.49 84.34c-.56 0-1.07-.11-1.54-.32-.47-.21-.88-.51-1.22-.89a4.19 4.19 0 01-.8-1.34c-.19-.51-.29-1.07-.29-1.68 0-.59.09-1.14.26-1.66s.42-.96.74-1.34.7-.67 1.14-.89c.44-.22.92-.33 1.45-.33.57 0 1.08.13 1.54.4.46.27.81.63 1.06 1.08v-4.51h2.48v8.52c0 .25.04.42.12.52.08.1.21.16.41.18v2.09c-.23.05-.42.08-.59.1s-.32.02-.46.02c-.43 0-.79-.09-1.05-.27s-.42-.44-.46-.78l-.05-.42c-.29.51-.68.88-1.17 1.13s-1.01.39-1.57.39zm.67-2.09c.34 0 .67-.1.98-.3.31-.2.56-.48.72-.83v-1.71c-.15-.41-.41-.75-.75-1.02s-.7-.39-1.07-.39c-.27 0-.51.06-.74.18s-.42.28-.58.47c-.17.2-.29.42-.38.68-.09.26-.13.53-.13.82 0 .3.05.58.15.84.1.26.23.48.4.67.17.19.38.33.62.43.24.1.5.16.78.16zM60.13 84.34c-.69 0-1.31-.11-1.85-.34-.54-.23-1-.54-1.37-.92s-.65-.84-.84-1.35a4.577 4.577 0 010-3.2c.19-.51.47-.96.84-1.35s.83-.7 1.37-.93c.54-.23 1.16-.35 1.85-.35.69 0 1.31.12 1.84.35.54.23.99.54 1.36.93s.66.84.85 1.35c.2.51.29 1.05.29 1.6 0 .56-.1 1.09-.29 1.6-.19.51-.47.96-.84 1.35-.37.39-.83.7-1.37.92-.53.22-1.15.34-1.84.34zm-1.82-4.22c0 .64.17 1.15.51 1.54.34.39.78.58 1.3.58.26 0 .5-.05.71-.16.22-.1.41-.25.57-.43.16-.19.29-.41.38-.67.09-.26.14-.55.14-.86 0-.64-.17-1.16-.51-1.54-.34-.39-.77-.58-1.28-.58-.26 0-.5.05-.72.16-.22.1-.41.25-.57.43-.16.19-.29.41-.38.67-.1.27-.15.55-.15.86zM65.23 80.11c0-.56.1-1.09.29-1.6s.48-.96.85-1.35c.37-.39.83-.69 1.37-.92.54-.23 1.16-.34 1.85-.34.94 0 1.73.2 2.37.6s1.12.92 1.44 1.56l-2.42.73c-.31-.53-.78-.79-1.4-.79-.52 0-.95.19-1.29.57-.35.38-.52.89-.52 1.53 0 .32.05.61.14.88s.22.49.39.67c.17.19.36.33.58.43.22.1.46.16.71.16.31 0 .59-.08.85-.22.26-.15.45-.34.57-.58l2.42.74c-.3.63-.78 1.15-1.43 1.55-.66.4-1.45.6-2.39.6-.68 0-1.29-.12-1.84-.35s-1-.54-1.38-.93a3.99 3.99 0 01-.86-1.35c-.21-.5-.3-1.03-.3-1.59zM76.26 76.05l1.47 2.29.15.29.16-.29 1.46-2.29h2.54l-2.82 4.08 2.88 4.06h-2.54l-1.53-2.28-.14-.29-.14.29-1.53 2.28h-2.54l2.88-4.06-2.82-4.08h2.52z" class="st3"/>
</svg>