<svg xmlns="http://www.w3.org/2000/svg" id="Laag_1" x="0" y="0" version="1.1" viewBox="29 20.3 70 70" xml:space="preserve">
    <style>
        .st3{fill:#000}
    </style>    <path d="M89.72 20.82H37.86c-1.54 0-2.79 1.25-2.79 2.78V87c0 1.53 1.25 2.78 2.79 2.78h51.86c1.54 0 2.79-1.25 2.79-2.78V23.6c0-1.53-1.25-2.78-2.79-2.78zm-51.65 3h51.44v44.2H38.07v-44.2zm51.44 62.96H38.07V71.02h51.44v15.76z" class="st3"/>
    <path d="M79.82 52.18c.28-1.17-.02-1.96-1-2.64-2.99-2.08-5.97-4.15-8.96-6.22-.14-.1-.2-.19-.2-.36-.08-2.35-1.09-4.16-3.16-5.31-2.15-1.2-4.92-.89-6.78.72-.21.18-.42.38-.63.58l-.77 1.1c-.02.05-.03.11-.05.16a6.32 6.32 0 00-.58 1.75c-.39 2.14.55 4.98 3.05 6.28 1.31.69 2.71.82 4.13.51.64-.14 1.25-.38 1.89-.58.15.26.31.56.48.86.18.31.29.37.65.32.31-.05.63-.09.96-.15.06.26.12.52.18.77.08.33.28.46.61.41.26-.04.52-.1.77-.15.02.03.03.03.03.05.05.24.09.47.14.71.08.35.27.48.63.42.25-.05.5-.11.72-.16.05.06.05.07.05.08.05.23.09.47.14.71.07.35.27.49.62.43.25-.04.5-.1.79-.16.05.29.07.54.12.8.06.33.27.48.6.42.23-.04.45-.1.71-.16.01.23.02.42.03.6.03.39.3.58.66.46.2-.06.4-.13.59-.21a.5.5 0 01.43.02c.6.29 1.18.22 1.73-.15.09-.06.18-.12.28-.18l1.12-1.62c.01-.05.01-.08.02-.11zM61.3 43.02c-.63-.45-.77-1.31-.32-1.94.45-.63 1.3-.78 1.93-.33.62.44.77 1.33.33 1.94-.44.63-1.31.77-1.94.33zM43.15 83.3l-1.6-2.47-.66.68v1.79h-1.87v-8.55h1.87v4.96l2.07-2.55h1.99l-2.21 2.65 2.4 3.5h-1.99z" class="st3"/>
    <path d="M48.31 83.41c-.52 0-.98-.08-1.39-.25-.41-.17-.76-.4-1.04-.69-.29-.29-.5-.62-.65-1a3.14 3.14 0 01-.23-1.18c0-.45.07-.87.22-1.26s.36-.74.64-1.04.63-.53 1.04-.7c.41-.17.88-.26 1.4-.26.52 0 .99.09 1.39.26.41.17.75.4 1.03.7s.49.63.64 1.01c.14.38.22.79.22 1.21 0 .11 0 .22-.01.32s-.02.2-.04.28h-4.55c.03.41.18.73.45.94s.58.32.92.32c.27 0 .54-.07.79-.2s.42-.31.51-.54l1.59.45c-.24.48-.62.88-1.12 1.18s-1.1.45-1.81.45zm1.3-3.77c-.04-.39-.18-.7-.42-.92s-.54-.34-.9-.34c-.37 0-.67.12-.91.35s-.38.54-.42.92h2.65zM52.32 84.22c.16.05.3.09.44.12s.26.04.37.04c.23 0 .4-.08.53-.23.12-.16.24-.44.34-.84l-2.34-6.15h1.93l1.43 4.55 1.23-4.55h1.76l-2.34 7.15c-.16.51-.46.92-.88 1.24s-.93.45-1.5.45c-.16 0-.31-.01-.47-.04s-.32-.07-.49-.13v-1.61zM58.17 80.22c0-.42.07-.83.22-1.21.15-.39.36-.73.64-1.02s.63-.53 1.04-.7c.41-.17.88-.26 1.4-.26.71 0 1.31.15 1.79.45s.85.69 1.09 1.18l-1.83.55c-.24-.39-.6-.58-1.07-.58-.39 0-.72.14-.98.43s-.39.68-.39 1.16c0 .24.04.46.11.66s.17.37.29.51.27.25.44.33.35.12.53.12c.23 0 .45-.06.64-.17s.34-.26.43-.44l1.83.56c-.23.48-.59.87-1.08 1.17s-1.1.46-1.81.46c-.52 0-.98-.09-1.39-.26-.41-.18-.76-.41-1.04-.7s-.5-.63-.65-1.02c-.14-.4-.21-.8-.21-1.22zM71.14 83.3h-1.88v-3.46c0-.4-.08-.69-.23-.88-.16-.19-.37-.28-.64-.28-.11 0-.23.03-.36.08s-.25.13-.38.22c-.12.1-.23.21-.33.35s-.18.28-.23.45v3.53h-1.87v-8.55h1.87v3.43c.23-.37.53-.65.9-.85s.78-.3 1.22-.3c.41 0 .75.07 1 .22s.45.33.59.55.23.47.28.75.07.55.07.81v3.93zM74.13 83.41c-.3 0-.59-.05-.85-.15s-.49-.23-.67-.41-.34-.38-.45-.62c-.11-.24-.16-.5-.16-.78 0-.3.06-.58.19-.83s.31-.46.54-.64.51-.32.83-.42.68-.15 1.07-.15c.26 0 .51.02.75.06s.45.11.63.19v-.28c0-.71-.41-1.07-1.23-1.07-.34 0-.66.06-.96.17s-.62.29-.96.52l-.55-1.17c.41-.27.83-.46 1.26-.6s.9-.2 1.39-.2c.93 0 1.65.22 2.16.66s.76 1.08.76 1.92v1.58c0 .19.03.32.09.39s.16.12.31.13v1.58c-.16.04-.31.06-.45.08s-.25.02-.36.02c-.35 0-.62-.07-.8-.21s-.29-.33-.34-.58l-.04-.28c-.27.35-.6.62-.98.81s-.76.28-1.18.28zm.55-1.34c.2 0 .4-.04.59-.11s.35-.16.47-.28c.18-.14.27-.29.27-.45v-.59c-.16-.06-.34-.11-.53-.15s-.37-.05-.53-.05c-.34 0-.63.08-.85.23s-.33.36-.33.61c0 .23.09.41.26.56.16.16.38.23.65.23zM79.25 76.44v-1.7h1.87v1.7h-1.87zm0 6.86v-6.15h1.87v6.15h-1.87zM88.34 83.3h-1.88v-3.46c0-.41-.08-.7-.23-.88a.742.742 0 00-.6-.27c-.13 0-.27.03-.4.08s-.26.13-.39.23-.24.21-.33.35-.17.28-.23.43v3.53h-1.87v-6.15h1.69v1.03c.23-.37.55-.65.96-.85s.89-.3 1.43-.3c.4 0 .72.07.96.22s.43.33.56.56.22.48.26.76.06.54.06.8v3.92zM67.23 61.67c1.03-.62 1.38-1.4 1.18-2.57-.63-3.58-1.25-7.16-1.88-10.75-.03-.16 0-.28.11-.4 1.61-1.71 2.19-3.7 1.55-5.98-.66-2.37-2.83-4.13-5.28-4.31-.28-.02-.57-.03-.85-.04l-1.32.23c-.05.02-.1.05-.15.07-.59.19-1.13.47-1.65.82-1.8 1.23-3.16 3.9-2.32 6.59.44 1.42 1.32 2.5 2.54 3.3.54.36 1.15.62 1.74.94-.08.29-.17.62-.27.95-.1.35-.06.47.23.68.25.19.51.38.78.58-.14.23-.29.45-.42.67-.18.29-.13.52.14.72.21.15.43.3.65.45 0 .03 0 .05-.01.06-.13.2-.27.4-.4.6-.19.31-.15.53.14.74.21.15.43.27.62.39-.01.08-.02.08-.02.09-.13.2-.27.4-.41.59-.19.3-.16.54.13.75.2.14.42.29.67.45-.17.24-.33.43-.48.64-.19.28-.15.53.13.72.19.14.39.26.61.39-.16.17-.28.31-.41.44-.26.29-.2.62.14.8.19.1.37.19.56.27.15.07.24.16.29.32.22.63.67 1 1.32 1.13.11.02.22.04.32.07l1.94-.34c.03-.03.05-.05.08-.06zm-6.52-19.61c-.12-.76.38-1.47 1.15-1.59.76-.13 1.47.38 1.6 1.14.12.75-.4 1.49-1.15 1.6-.76.12-1.47-.39-1.6-1.15z" class="st3"/>
    <path d="M58.66 33.03a5.335 5.335 0 10.01 10.67 5.335 5.335 0 00-.01-10.67zm.01 9.84c-2.51 0-4.55-2.04-4.55-4.55s2.04-4.55 4.55-4.55 4.54 2.04 4.54 4.55-2.03 4.55-4.54 4.55z" class="st3"/>
</svg>