<svg xmlns="http://www.w3.org/2000/svg" id="Laag_1" x="0" y="0" version="1.1" viewBox="29 20.3 70 70" xml:space="preserve">
    <style>
        .st3{fill:#000}
    </style>    <path d="M61.03 81.97h-2.48V77.4c0-.54-.1-.93-.29-1.17a.942.942 0 00-.76-.36c-.17 0-.33.04-.5.11s-.33.17-.47.3c-.15.13-.28.28-.4.46s-.21.37-.29.57v4.67h-2.48V77.4c0-.54-.1-.93-.29-1.17a.942.942 0 00-.76-.36c-.33 0-.65.13-.97.4-.32.26-.55.61-.69 1.05v4.67h-2.48v-8.14h2.23v1.36c.3-.5.71-.87 1.22-1.13.51-.26 1.11-.39 1.79-.39.34 0 .64.04.89.12.25.08.47.2.66.34s.34.31.45.5c.11.19.2.4.25.61.31-.51.72-.9 1.22-1.17.51-.27 1.08-.41 1.74-.41.52 0 .93.1 1.25.29.31.19.56.44.74.74.18.3.29.64.35 1s.08.71.08 1.05v5.21zM67.81 82.13c-.62 0-1.16-.13-1.61-.39a2.6 2.6 0 01-1.05-1.08v4.62h-2.48V73.83h2.15v1.32c.3-.46.67-.83 1.12-1.08.45-.26.98-.39 1.6-.39.55 0 1.05.11 1.51.33s.86.51 1.19.89c.34.38.6.82.79 1.33.19.51.29 1.06.29 1.65 0 .61-.09 1.17-.26 1.69s-.42.96-.73 1.34c-.31.38-.68.67-1.12.89-.43.22-.9.33-1.4.33zm-.84-2.09c.27 0 .51-.06.74-.18.22-.12.42-.28.58-.47.17-.2.29-.43.38-.69s.13-.54.13-.83a2.228 2.228 0 00-.55-1.49c-.17-.19-.38-.33-.62-.43-.24-.1-.5-.16-.78-.16-.34 0-.67.1-.98.3-.32.2-.56.47-.72.81v1.67c.17.41.42.76.75 1.04.33.29.69.43 1.07.43zM76.27 83.94v-2.12h-4.26V79.6l5.05-6.48h1.69v6.46h1.36v2.23h-1.36v2.12h-2.48zm-1.81-4.35h2.11v-2.74l-2.11 2.74z" class="st3"/>
    <path d="M89.93 20.82H38.07c-1.54 0-2.79 1.25-2.79 2.78V87c0 1.53 1.25 2.78 2.79 2.78h51.86c1.54 0 2.79-1.25 2.79-2.78V23.6c0-1.53-1.25-2.78-2.79-2.78zm-51.65 3h51.44v44.2H38.28v-44.2zm51.44 62.96H38.28V71.02h51.44v15.76z" class="st3"/>
    <path d="M77.95 45.36H53.56l.82-.58c6.05-3.5 19.45-11.9 19.45-11.9.56-.32.75-1.04.43-1.59l-1.17-2.87c-.32-.56-1.03-.75-1.59-.43l-22.04 13.4c-.56.32-.74 1.04-.42 1.59l2.11 2.29.02 17.57c0 .65.52 1.16 1.16 1.16h25.63c.64 0 1.16-.52 1.16-1.16V46.53c0-.64-.52-1.17-1.17-1.17zm-8.45.84l-3.6 3.49h-4.66l3.5-3.49h4.76zm-1.51-15.02l4.13-2.65-.6 3.89-4.23 2.72.7-3.96zm-7.37 4.54l4.21-2.62-.75 3.95-4.2 2.62.74-3.95zm-8.39 8.72l.7-3.96 4.17-2.67-.71 3.95-4.16 2.68zm4.36 1.76h4.66l-3.49 3.49H53.1l3.49-3.49zm20.52 16.38H53.15V50.51h23.97v12.07zm-2.97-12.89H69.4l3.5-3.49h4.62l-3.38 3.49z" class="st3"/>
</svg>