<svg xmlns="http://www.w3.org/2000/svg" id="Laag_1" x="0" y="0" version="1.1" viewBox="29 20.3 70 70" xml:space="preserve">
    <style>
        .st3{fill:#000}
    </style>    <path d="M61.1 82.87h-2.48V78.3c0-.54-.1-.93-.29-1.17a.942.942 0 00-.76-.36c-.17 0-.33.04-.5.11s-.33.17-.47.3c-.15.13-.28.28-.4.46s-.21.37-.29.57v4.67h-2.48V78.3c0-.54-.1-.93-.29-1.17a.942.942 0 00-.76-.36c-.33 0-.65.13-.97.4-.32.26-.55.61-.69 1.05v4.67h-2.48v-8.14h2.23v1.36c.3-.5.71-.87 1.22-1.13.51-.26 1.11-.39 1.79-.39.34 0 .64.04.89.12.25.08.47.2.66.34s.34.31.45.5c.11.19.2.4.25.61.31-.51.72-.9 1.22-1.17.51-.27 1.08-.41 1.74-.41.52 0 .93.1 1.25.29.31.19.56.44.74.74.18.3.29.64.35 1s.08.71.08 1.05v5.21zM67.88 83.03c-.62 0-1.16-.13-1.61-.39s-.81-.62-1.05-1.08v4.62h-2.48V74.74h2.15v1.32c.3-.46.67-.83 1.12-1.08.45-.26.98-.39 1.6-.39.55 0 1.05.11 1.51.33s.86.51 1.19.89c.33.38.6.82.79 1.33.19.51.29 1.06.29 1.65 0 .61-.09 1.17-.26 1.69s-.42.96-.73 1.34c-.31.38-.68.67-1.12.89-.43.21-.9.32-1.4.32zm-.84-2.09c.27 0 .51-.06.74-.18.22-.12.42-.28.58-.47.17-.2.29-.43.38-.69.09-.26.13-.54.13-.83a2.228 2.228 0 00-.55-1.49c-.17-.19-.38-.33-.62-.43s-.5-.16-.78-.16c-.34 0-.67.1-.98.3-.32.2-.56.47-.72.81v1.67c.17.41.42.76.75 1.04.33.29.69.43 1.07.43zM74.96 83.03c-.4 0-.78-.06-1.12-.19-.35-.13-.64-.31-.89-.54a2.526 2.526 0 01-.81-1.85c0-.4.08-.77.26-1.1.17-.33.41-.61.72-.85s.68-.42 1.1-.56c.42-.13.89-.2 1.41-.2.34 0 .67.03.99.09s.6.14.84.26v-.39c0-.94-.54-1.41-1.63-1.41-.44 0-.87.08-1.27.23-.4.15-.83.37-1.27.67l-.73-1.55c.54-.35 1.09-.62 1.67-.79.58-.17 1.19-.26 1.84-.26 1.23 0 2.18.29 2.85.87.67.58 1.01 1.43 1.01 2.54v2.09c0 .25.04.42.12.52.08.1.21.16.41.18v2.09c-.22.05-.41.08-.59.1s-.33.02-.48.02c-.46 0-.82-.09-1.05-.27-.24-.18-.39-.44-.45-.77l-.05-.37c-.36.46-.79.82-1.29 1.07-.5.24-1.03.37-1.59.37zm.73-1.78c.27 0 .53-.05.78-.14.25-.09.46-.22.63-.37.24-.19.36-.38.36-.59v-.78c-.22-.08-.45-.15-.71-.19-.25-.05-.49-.07-.71-.07-.46 0-.83.1-1.12.31-.29.21-.44.47-.44.81 0 .3.11.54.34.74s.52.28.87.28z" class="st3"/>
    <path d="M89.93 20.82H38.07c-1.54 0-2.79 1.25-2.79 2.78V87c0 1.53 1.25 2.78 2.79 2.78h51.86c1.54 0 2.79-1.25 2.79-2.78V23.6c0-1.53-1.25-2.78-2.79-2.78zm-51.65 3h51.44v44.2H38.28v-44.2zm51.44 62.96H38.28V71.02h51.44v15.76z" class="st3"/>
    <path d="M70.32 35.76c-4.64-3.4-6.27-5.02-6.83-5.72-.25-.31-.69-.43-1.05-.24-.54.29-.7.75-.74.91-.01.04-.01.07-.01.11V53.7c0 .3-.28.54-.57.48-.89-.2-1.9-.2-2.93.05-2.78.69-4.59 2.99-4.06 5.12.31 1.97 3.22 3.29 6 2.59 2.44-.6 4.14-2.45 4.15-4.33h.01l.06-21.87c0-.29.24-.51.53-.48 1.53.15 6.02 1.12 9.11 7.19-.01-.01.07-3.96-3.67-6.69z" class="st3"/>
</svg>