<svg xmlns="http://www.w3.org/2000/svg" id="Laag_1" x="0" y="0" version="1.1" viewBox="29 20.3 70 70" xml:space="preserve">
    <style>
        .st3{fill:#000}.st4{fill:none;stroke:#000;stroke-width:3;stroke-miterlimit:10}
    </style>    <path d="M89.93 20.82H38.07c-1.54 0-2.79 1.25-2.79 2.78V87c0 1.53 1.25 2.78 2.79 2.78h51.86c1.54 0 2.79-1.25 2.79-2.78V23.6c0-1.53-1.25-2.78-2.79-2.78zm-51.65 3h51.44v44.2H38.28v-44.2zm51.44 62.96H38.28V71.02h51.44v15.76z" class="st3"/>
    <path d="M61.8 82.27h-2.32V78c0-.5-.09-.87-.28-1.09a.858.858 0 00-.71-.34c-.15 0-.31.03-.47.1-.16.07-.31.16-.44.28s-.26.26-.37.43c-.11.17-.2.34-.27.54v4.36h-2.32V78c0-.5-.09-.87-.28-1.09a.858.858 0 00-.71-.34c-.31 0-.61.12-.91.37-.29.25-.51.57-.65.98v4.36h-2.32v-7.61h2.09v1.28c.28-.46.66-.82 1.14-1.06.48-.24 1.04-.36 1.67-.36.32 0 .6.04.83.12s.44.18.62.32c.17.13.31.29.42.47s.18.37.23.57c.29-.47.67-.84 1.15-1.09.47-.26 1.02-.38 1.62-.38.48 0 .87.09 1.17.27s.52.41.69.7c.16.29.27.6.33.94.05.34.08.67.08.99v4.83zM66.32 82.42c-.65 0-1.29-.1-1.91-.31-.63-.21-1.16-.51-1.59-.91l.83-1.42c.46.32.92.57 1.36.74.44.17.86.26 1.27.26.3 0 .53-.05.7-.16.16-.11.25-.26.25-.46s-.1-.36-.31-.49c-.21-.12-.57-.25-1.1-.38-.51-.14-.94-.28-1.3-.42a3.28 3.28 0 01-.86-.45c-.22-.16-.38-.35-.48-.57-.1-.21-.15-.46-.15-.75 0-.39.08-.74.23-1.06.15-.32.37-.59.64-.81.27-.22.59-.4.96-.52.37-.13.78-.19 1.21-.19.57 0 1.1.08 1.6.23.5.15.98.43 1.44.84l-.9 1.39c-.43-.3-.82-.52-1.16-.65-.34-.13-.67-.2-.99-.2-.25 0-.46.05-.64.15-.17.1-.26.26-.26.49 0 .21.09.37.28.48.19.11.54.22 1.05.35.54.14 1 .29 1.37.43.37.15.67.31.91.49s.4.38.51.62c.11.23.16.51.16.83 0 .75-.28 1.35-.84 1.8-.56.43-1.32.65-2.28.65zM73.51 82.3c-.5 0-.96-.1-1.38-.3s-.77-.48-1.07-.83c-.29-.35-.52-.75-.69-1.22-.16-.46-.25-.96-.25-1.49 0-.56.09-1.08.26-1.56s.42-.89.73-1.25c.31-.35.68-.63 1.12-.83s.91-.3 1.44-.3c.58 0 1.08.12 1.52.37.43.25.78.59 1.04 1.02v-1.25h2.02v7.09c0 .58-.11 1.1-.33 1.57s-.52.86-.91 1.18-.85.57-1.39.75c-.54.17-1.14.26-1.78.26-.82 0-1.52-.13-2.1-.39s-1.09-.64-1.52-1.13l1.25-1.26c.28.32.63.57 1.04.76.42.19.86.28 1.33.28.28 0 .55-.04.8-.12.25-.08.47-.2.67-.36.19-.16.35-.37.46-.62.11-.26.17-.56.17-.92v-.74c-.23.43-.57.75-1 .96-.46.22-.93.33-1.43.33zm.8-1.84c.36 0 .68-.1.96-.3s.5-.45.65-.76v-1.59c-.15-.41-.39-.73-.71-.96-.32-.24-.66-.36-1.02-.36-.25 0-.48.06-.69.17s-.39.26-.54.45c-.15.19-.27.41-.35.65-.08.25-.12.5-.12.76 0 .28.05.54.14.78.09.24.22.44.38.62.16.17.36.31.57.41.23.08.47.13.73.13z" class="st3"/>
    <path d="M80.98 59.72H47.02c-.58 0-1.04-.47-1.04-1.04V33.16c0-.58.47-1.04 1.04-1.04h33.97c.58 0 1.04.47 1.04 1.04v25.51c0 .58-.47 1.05-1.05 1.05z" class="st4"/>
    <path d="M45.97 32.62L62.12 47.4c1.04.95 2.73.95 3.77 0l16.14-14.78M66.13 47.49l15.9 11.73M45.97 59.22l15.9-11.73" class="st4"/>
</svg>