<svg xmlns="http://www.w3.org/2000/svg" id="Laag_1" x="0" y="0" version="1.1" viewBox="29 20.3 70 70" xml:space="preserve">
    <style>
        .st3{fill:#000}.st4,.st5{fill:none}.st5{stroke:#000;stroke-miterlimit:10}
    </style>    <path d="M58.13 83.33c-.56 0-1.05-.12-1.46-.35s-.73-.56-.95-.98v4.17h-2.24V75.84h1.95v1.19c.27-.42.61-.75 1.02-.98.41-.23.89-.35 1.45-.35.49 0 .95.1 1.36.29.42.2.77.46 1.08.81s.54.74.71 1.2c.17.46.26.96.26 1.49 0 .55-.08 1.06-.24 1.53s-.38.87-.66 1.21c-.28.34-.62.61-1.01.8-.38.2-.81.3-1.27.3zm-.75-1.89c.24 0 .46-.05.67-.16.2-.11.38-.25.52-.43.15-.18.26-.38.34-.62.08-.24.12-.49.12-.75 0-.27-.04-.52-.13-.75a1.83 1.83 0 00-.36-.59c-.15-.17-.34-.3-.56-.39-.22-.09-.46-.14-.71-.14-.31 0-.6.09-.89.27-.29.18-.5.43-.65.74v1.51c.15.37.38.69.68.94s.62.37.97.37zM62.01 79.51c0-.5.09-.99.27-1.45s.43-.87.77-1.22.75-.63 1.24-.83c.49-.21 1.05-.31 1.67-.31.85 0 1.56.18 2.14.54.58.36 1.01.83 1.3 1.41l-2.18.66c-.29-.47-.71-.7-1.27-.7-.47 0-.86.17-1.17.52-.31.35-.47.81-.47 1.39 0 .29.04.55.13.79.08.24.2.44.35.61s.32.3.52.39a1.55 1.55 0 001.41-.06c.23-.13.41-.31.52-.52l2.18.67c-.27.57-.7 1.04-1.29 1.4-.59.36-1.31.55-2.16.55-.62 0-1.17-.1-1.66-.31s-.91-.49-1.25-.84c-.34-.35-.6-.76-.78-1.22s-.27-.97-.27-1.47zM75.19 82.8c-.31.13-.66.25-1.06.36-.4.11-.8.17-1.2.17a2.9 2.9 0 01-.79-.1c-.25-.07-.46-.18-.65-.34-.19-.15-.33-.36-.44-.61s-.16-.55-.16-.91v-3.84h-.94v-1.69h.94V73.5h2.24v2.34h1.5v1.69h-1.5v3.07c0 .24.06.42.18.52.12.11.28.16.46.16.17 0 .34-.03.52-.08.18-.06.33-.12.46-.18l.44 1.78z" class="st3"/>
    <path d="M89.93 20.82H38.07c-1.54 0-2.79 1.25-2.79 2.78V87c0 1.53 1.25 2.78 2.79 2.78h51.86c1.54 0 2.79-1.25 2.79-2.78V23.6c0-1.53-1.25-2.78-2.79-2.78zm-51.65 3h51.44v44.2H38.28v-44.2zm51.44 62.96H38.28V71.02h51.44v15.76z" class="st3"/>
    <path d="M-98.54 113.85h-15.3M-43.01 93.36h-5.96" class="st4"/>
    <path d="M45.85 36.77h15.01v15.01H45.85z" class="st5"/>    <circle cx="72.3" cy="53.33" r="9.05" class="st5"/>
</svg>