<svg xmlns="http://www.w3.org/2000/svg" id="Laag_1" x="0" y="0" version="1.1" viewBox="29 20.3 70 70" xml:space="preserve">
    <style>
        .st3{fill:#000}.st4{fill:none}
    </style>    <path d="M57.5 82.83c-.56 0-1.05-.12-1.46-.35s-.73-.56-.95-.98v4.17h-2.24V75.34h1.95v1.19c.27-.42.61-.75 1.02-.98.41-.23.89-.35 1.45-.35.49 0 .95.1 1.36.29.42.2.77.46 1.08.81s.54.74.71 1.2c.17.46.26.96.26 1.49 0 .55-.08 1.06-.24 1.53s-.38.87-.66 1.21c-.28.34-.62.61-1.01.8-.39.2-.82.3-1.27.3zm-.76-1.89c.24 0 .46-.05.67-.16.2-.11.38-.25.52-.43.15-.18.26-.38.34-.62.08-.24.12-.49.12-.75 0-.27-.04-.52-.13-.75a1.83 1.83 0 00-.36-.59c-.15-.17-.34-.3-.56-.39-.22-.09-.46-.14-.71-.14-.31 0-.6.09-.89.27-.29.18-.5.43-.65.74v1.51c.15.37.38.69.68.94s.63.37.97.37zM64.86 82.83c-.5 0-.97-.1-1.39-.29a3.35 3.35 0 01-1.1-.8c-.31-.34-.55-.75-.72-1.21s-.26-.97-.26-1.52c0-.53.08-1.03.24-1.5s.38-.87.67-1.21c.29-.34.63-.61 1.03-.81.4-.2.83-.29 1.31-.29.51 0 .98.12 1.39.36.42.24.74.57.96.98v-4.07h2.24v7.7c0 .22.04.38.1.47.07.09.19.14.37.16v1.89c-.21.05-.38.08-.53.09-.15.01-.29.02-.42.02-.39 0-.71-.08-.95-.25-.24-.16-.38-.4-.42-.71l-.04-.38c-.26.46-.61.8-1.06 1.02-.44.24-.91.35-1.42.35zm.6-1.89c.31 0 .6-.09.89-.27.28-.18.5-.43.65-.75v-1.54c-.14-.37-.37-.68-.68-.92-.31-.24-.64-.36-.97-.36-.24 0-.46.05-.67.16s-.38.25-.52.43c-.15.18-.26.38-.34.62-.08.23-.12.48-.12.74 0 .27.04.52.13.76s.21.43.36.6c.15.17.34.3.56.39.23.09.46.14.71.14zM71.44 82.69v-5.05h-.94v-1.69h.94v-.6c0-.46.06-.87.18-1.25s.29-.69.52-.95c.22-.26.5-.46.81-.6.32-.14.67-.21 1.05-.21.6 0 1.24.14 1.92.43l-.41 1.68c-.15-.07-.31-.12-.5-.16-.18-.04-.35-.06-.51-.06-.55 0-.83.34-.83 1.04v.69h1.71v1.69h-1.71v5.05h-2.23z" class="st3"/>
    <path d="M89.93 20.82H38.07c-1.54 0-2.79 1.25-2.79 2.78V87c0 1.53 1.25 2.78 2.79 2.78h51.86c1.54 0 2.79-1.25 2.79-2.78V23.6c0-1.53-1.25-2.78-2.79-2.78zm-51.65 3h51.44v44.2H38.28v-44.2zm51.44 62.96H38.28V71.02h51.44v15.76z" class="st3"/>
    <path d="M-98.54 113.85h-15.3M-43.01 93.36h-5.96" class="st4"/>
    <path d="M77.28 54.6c-2.05-.04-3.93-.68-5.71-1.66-1.06-.59-2.03-1.31-2.91-2.14a.413.413 0 00-.43-.12c-2.91.58-5.77 1.31-8.56 2.32a.77.77 0 00-.36.28c-.86 1.28-1.68 2.58-2.56 3.84-1.03 1.47-2.17 2.85-3.59 3.98-1.05.83-2.23 1.35-3.6 1.33-.58-.01-1.11-.16-1.57-.54-.79-.66-.99-1.59-.55-2.51.39-.82 1.03-1.44 1.72-2 1.38-1.13 2.94-1.98 4.53-2.77 1-.5 2-.99 3-1.5.12-.06.23-.17.29-.29 1.73-3.68 3.31-7.42 4.69-11.24.05-.14.03-.32-.01-.46-.37-1.19-.81-2.37-1.12-3.58-.42-1.62-.57-3.28-.47-4.95.02-.38.08-.77.18-1.14.37-1.3 1.66-1.91 2.95-1.38 1.01.41 1.56 1.22 1.84 2.24.33 1.19.31 2.41.19 3.63-.21 2.27-.88 4.43-1.44 6.62-.05.18-.02.32.07.48 1.16 2.06 2.64 3.87 4.11 5.7.16.2.34.38.47.59.2.35.47.37.83.32 1.96-.28 3.92-.56 5.9-.52 1.23.02 2.46.12 3.61.6.41.17.82.41 1.16.7.69.58.95 1.36.83 2.24-.11.84-.69 1.31-1.43 1.6-.66.26-1.35.34-2.06.33zm-9.43-4.72c-1.67-1.95-3.22-3.95-4.6-6.14-.92 2.82-2.04 5.5-3.22 8.22 2.57-.91 5.16-1.57 7.82-2.08zm1.6.5c-.01.03-.02.05-.02.08.08.05.16.11.23.16 1.53 1.14 3.26 1.89 5.05 2.5.65.22 1.31.42 2.01.4.79-.02 1.49-.55 1.66-1.25.17-.75-.2-1.46-.95-1.85-.62-.32-1.28-.43-1.97-.47a19.63 19.63 0 00-3.51.12c-.84.11-1.67.21-2.5.31zm-13.51 4.11a.435.435 0 01-.06-.07l-.21.09c-.79.4-1.58.79-2.37 1.19-1.25.63-2.46 1.31-3.57 2.17-.57.45-1.12.92-1.5 1.55-.2.33-.34.67-.25 1.07.17.73.87 1.11 1.63.86.63-.21 1.21-.54 1.71-.99 1.12-1 2.06-2.16 2.94-3.38.57-.81 1.11-1.66 1.68-2.49zm6.18-14.46c.05-.1.07-.12.08-.15.66-2.14 1.18-4.31 1.32-6.56.04-.58.02-1.17-.2-1.72-.19-.46-.57-.71-1.05-.77-.44-.05-.75.21-.97.56-.13.2-.23.43-.3.66-.26.83-.23 1.68-.14 2.53.16 1.68.53 3.32 1.09 4.91l.17.54z" class="st3"/>
</svg>