<svg xmlns="http://www.w3.org/2000/svg" id="Laag_1" x="0" y="0" version="1.1" viewBox="29 20.3 70 70" xml:space="preserve">
    <style>
        .st3{fill:#000}
    </style>    <path d="M89.44 20.82H37.58c-1.54 0-2.79 1.25-2.79 2.78V87c0 1.53 1.25 2.78 2.79 2.78h51.86c1.54 0 2.79-1.25 2.79-2.78V23.6c0-1.53-1.25-2.78-2.79-2.78zm-51.65 3h51.44v44.2H37.79v-44.2zm51.44 62.96H37.79V71.02h51.44v15.76z" class="st3"/>
    <path d="M56.53 82.88c-.62 0-1.16-.13-1.61-.39a2.6 2.6 0 01-1.05-1.08v4.62h-2.48V74.59h2.15v1.32c.3-.46.67-.83 1.12-1.08.45-.26.98-.39 1.6-.39.55 0 1.05.11 1.51.33s.86.51 1.19.89c.34.38.6.82.79 1.33.19.51.29 1.06.29 1.65 0 .61-.09 1.17-.26 1.69-.18.52-.42.96-.73 1.34-.31.38-.68.67-1.12.89a3.1 3.1 0 01-1.4.32zm-.84-2.09c.27 0 .51-.06.74-.18.22-.12.42-.28.58-.47.17-.2.29-.43.38-.69s.13-.54.13-.83a2.228 2.228 0 00-.55-1.49c-.17-.19-.38-.33-.62-.43-.24-.1-.5-.16-.78-.16-.34 0-.67.1-.98.3-.32.2-.56.47-.72.81v1.67c.17.41.42.76.75 1.04.33.29.69.43 1.07.43zM66.45 82.88c-.62 0-1.16-.13-1.61-.39a2.6 2.6 0 01-1.05-1.08v4.62H61.3V74.59h2.15v1.32c.3-.46.67-.83 1.12-1.08.45-.26.98-.39 1.6-.39.55 0 1.05.11 1.51.33s.86.51 1.19.89c.34.38.6.82.79 1.33.19.51.29 1.06.29 1.65 0 .61-.09 1.17-.26 1.69-.18.52-.42.96-.73 1.34-.31.38-.68.67-1.12.89-.41.21-.88.32-1.39.32zm-.84-2.09c.27 0 .51-.06.74-.18.22-.12.42-.28.58-.47.17-.2.29-.43.38-.69s.13-.54.13-.83a2.228 2.228 0 00-.55-1.49c-.17-.19-.38-.33-.62-.43-.24-.1-.5-.16-.78-.16-.34 0-.67.1-.98.3-.32.2-.56.47-.72.81v1.67c.17.41.42.76.75 1.04.33.29.69.43 1.07.43zM74.43 82.88c-.69 0-1.37-.11-2.05-.33-.67-.22-1.24-.54-1.71-.97l.88-1.52c.5.34.98.6 1.45.79.47.19.92.28 1.36.28.32 0 .57-.06.74-.17.18-.11.26-.28.26-.5 0-.22-.11-.39-.33-.52-.22-.13-.61-.27-1.17-.41-.55-.15-1.01-.3-1.39-.45-.38-.14-.69-.3-.92-.48s-.41-.38-.51-.6-.15-.5-.15-.81c0-.41.08-.79.25-1.13.17-.34.39-.63.68-.87.29-.24.63-.42 1.03-.56.4-.13.83-.2 1.29-.2.61 0 1.18.08 1.71.25.53.17 1.05.47 1.54.9l-.96 1.49c-.46-.32-.88-.55-1.24-.7-.36-.14-.71-.22-1.05-.22-.27 0-.5.05-.68.16-.19.11-.28.28-.28.52 0 .23.1.4.3.51.2.11.58.24 1.12.37.58.16 1.07.31 1.46.47.4.15.72.33.97.52s.43.41.54.66c.11.25.17.54.17.88 0 .81-.3 1.45-.9 1.92-.57.48-1.38.72-2.41.72zM61.95 36.34c-7.47 0-13.53 6.06-13.53 13.53S54.48 63.4 61.95 63.4s13.53-6.06 13.53-13.53H61.95V36.34z" class="st3"/>
    <path d="M78.61 46.56H65.08V33.03c7.47 0 13.53 6.06 13.53 13.53z" class="st3"/>
</svg>