<svg xmlns="http://www.w3.org/2000/svg" id="Laag_1" x="0" y="0" version="1.1" viewBox="29 20.3 70 70" xml:space="preserve">
    <style>
        .st3{fill:#000}
    </style>    <path d="M56.87 82.83c-.56 0-1.05-.12-1.46-.35s-.73-.56-.95-.98v4.17h-2.24V75.34h1.95v1.19c.27-.42.61-.75 1.02-.98.41-.23.89-.35 1.45-.35.49 0 .95.1 1.36.29.42.2.77.46 1.08.81s.54.74.71 1.2c.17.46.26.96.26 1.49 0 .55-.08 1.06-.24 1.53s-.38.87-.66 1.21c-.28.34-.62.61-1.01.8-.39.2-.82.3-1.27.3zm-.76-1.89c.24 0 .46-.05.67-.16.2-.11.38-.25.52-.43.15-.18.26-.38.34-.62.08-.24.12-.49.12-.75 0-.27-.04-.52-.13-.75a1.83 1.83 0 00-.36-.59c-.15-.17-.34-.3-.56-.39-.22-.09-.46-.14-.71-.14-.31 0-.6.09-.89.27-.29.18-.5.43-.65.74v1.51c.15.37.38.69.68.94s.63.37.97.37zM64.08 82.83c-.63 0-1.24-.1-1.85-.3-.61-.2-1.12-.49-1.54-.88l.8-1.37c.45.31.88.55 1.31.71.42.17.83.25 1.22.25.29 0 .51-.05.67-.15.16-.1.24-.25.24-.45s-.1-.35-.3-.47c-.2-.12-.55-.24-1.06-.37-.5-.14-.91-.28-1.25-.41-.34-.13-.62-.28-.83-.43-.21-.16-.37-.34-.46-.55-.09-.21-.14-.45-.14-.73 0-.37.07-.71.22-1.02.15-.31.35-.57.62-.78s.57-.38.93-.5c.36-.12.75-.18 1.17-.18.55 0 1.07.08 1.55.22s.95.42 1.39.81l-.87 1.34c-.42-.29-.79-.5-1.12-.63-.33-.13-.64-.2-.95-.2-.24 0-.45.05-.62.15s-.25.25-.25.47c0 .21.09.36.27.46.18.1.52.21 1.02.34.52.14.96.28 1.32.42.36.14.65.3.88.47s.39.37.49.59.15.49.15.8c0 .73-.27 1.31-.81 1.74s-1.28.65-2.2.65zM71.22 82.83c-.5 0-.97-.1-1.39-.29a3.35 3.35 0 01-1.1-.8c-.31-.34-.55-.75-.72-1.21s-.26-.97-.26-1.52c0-.53.08-1.03.24-1.5.16-.47.38-.87.67-1.21s.63-.61 1.03-.81c.4-.2.83-.29 1.31-.29.51 0 .98.12 1.39.36.42.24.73.57.96.98v-4.07h2.24v7.7c0 .22.04.38.11.47s.19.14.37.16v1.89c-.21.05-.38.08-.53.09-.15.01-.29.02-.42.02-.39 0-.71-.08-.95-.25-.24-.16-.38-.4-.42-.71l-.04-.38c-.26.46-.61.8-1.06 1.02-.45.24-.93.35-1.43.35zm.6-1.89c.31 0 .6-.09.89-.27.29-.18.5-.43.65-.75v-1.54c-.14-.37-.37-.68-.68-.92-.31-.24-.64-.36-.97-.36-.24 0-.46.05-.67.16-.2.11-.38.25-.52.43-.15.18-.26.38-.34.62-.08.23-.12.48-.12.74 0 .27.04.52.13.76s.21.43.36.6c.15.17.34.3.56.39.22.09.46.14.71.14z" class="st3"/>
    <path d="M89.93 20.82H38.07c-1.54 0-2.79 1.25-2.79 2.78V87c0 1.53 1.25 2.78 2.79 2.78h51.86c1.54 0 2.79-1.25 2.79-2.78V23.6c0-1.53-1.25-2.78-2.79-2.78zm-51.65 3h51.44v44.2H38.28v-44.2zm51.44 62.96H38.28V71.02h51.44v15.76z" class="st3"/>
    <path d="M50.79 45.05V33.99c0-.35.1-.46.46-.47.27-.01.54-.03.82-.03 1.65-.02 3.29-.07 4.94-.06 1.35.01 2.68.22 3.93.78 1.75.79 2.91 2.09 3.43 3.94.48 1.71.48 3.43-.02 5.13-.6 2.01-1.93 3.37-3.83 4.19-1.03.44-2.11.7-3.23.76-.86.04-1.73.02-2.6.01-.18 0-.2.05-.2.2v7.83c-.01.2-.07.27-.28.27H51.1c-.28 0-.32-.04-.32-.32.01-3.73.01-7.45.01-11.17zm3.72-4.21v3.84c0 .17.05.22.21.23.34 0 .69.02 1.03.02.89.02 1.78-.02 2.64-.3 1.28-.42 2.11-1.26 2.42-2.58.17-.72.2-1.44.08-2.17-.21-1.31-.89-2.26-2.14-2.76-.59-.24-1.22-.36-1.85-.37-.73-.01-1.46.02-2.18.03-.16 0-.22.05-.22.22.01 1.28.01 2.56.01 3.84zM66.75 54.13V52.6c0-.08.04-.15.06-.23.08.02.17.03.24.07 1.36.85 2.84 1.24 4.44 1.18.42-.01.84-.09 1.22-.29.84-.43 1.09-1.43.55-2.2-.28-.4-.67-.7-1.09-.95-.62-.36-1.25-.7-1.88-1.04-.77-.42-1.51-.87-2.15-1.48-.91-.87-1.36-1.94-1.4-3.2-.05-1.36.34-2.56 1.29-3.55.73-.76 1.63-1.2 2.64-1.45.93-.23 1.87-.24 2.82-.18.7.04 1.39.13 2.07.31.2.05.39.13.59.19.23.08.32.24.32.47v2.85c0 .22-.16.31-.35.19-1.2-.71-2.51-.95-3.89-.91-.48.02-.95.13-1.35.42-.67.49-.8 1.4-.24 2.02.28.31.63.57.98.79.64.39 1.31.72 1.97 1.08.79.43 1.54.91 2.19 1.53.87.84 1.34 1.85 1.4 3.06.06 1.07-.09 2.09-.64 3.02-.63 1.08-1.59 1.75-2.76 2.14-1.12.38-2.28.44-3.44.37-.92-.06-1.83-.2-2.71-.53-.22-.08-.43-.2-.66-.29-.18-.08-.25-.21-.25-.4.04-.47.03-.97.03-1.46z" class="st3"/>
</svg>