<svg xmlns="http://www.w3.org/2000/svg" id="Laag_1" x="0" y="0" version="1.1" viewBox="29 20.3 70 70" xml:space="preserve">
    <style>
        .st3,.st4{fill:#000}.st4{stroke:#000;stroke-width:3;stroke-miterlimit:10}
    </style>    <path d="M59.46 83.74c-.34.14-.73.28-1.17.4-.44.12-.88.19-1.33.19-.31 0-.6-.04-.88-.12-.27-.08-.51-.2-.72-.37-.21-.17-.37-.4-.49-.67-.12-.28-.18-.61-.18-1.01v-4.25h-1.04v-1.88h1.04v-2.59h2.48v2.59h1.66v1.88h-1.66v3.39c0 .27.07.46.2.58s.3.18.51.18c.19 0 .38-.03.57-.09.2-.06.37-.13.51-.2l.5 1.97zM62.73 84.33c-.4 0-.78-.06-1.12-.19-.35-.13-.64-.31-.89-.54s-.44-.51-.59-.82c-.15-.32-.22-.66-.22-1.03 0-.4.09-.77.26-1.1.17-.33.41-.61.72-.85s.68-.42 1.1-.56c.42-.13.89-.2 1.41-.2.34 0 .67.03.99.09s.6.14.84.26V79c0-.94-.54-1.41-1.63-1.41-.44 0-.87.08-1.27.23-.4.15-.83.37-1.27.67l-.73-1.55c.54-.35 1.1-.62 1.67-.79.58-.17 1.19-.26 1.84-.26 1.23 0 2.18.29 2.85.87.67.58 1.01 1.43 1.01 2.54v2.09c0 .25.04.42.12.52.08.1.21.16.41.18v2.09c-.22.05-.41.08-.59.1s-.34.02-.48.02c-.46 0-.82-.09-1.05-.27-.24-.18-.39-.44-.45-.77l-.05-.37c-.36.46-.79.82-1.29 1.07-.5.24-1.03.37-1.59.37zm.73-1.79c.27 0 .53-.05.78-.14.25-.09.46-.22.63-.37.24-.19.36-.38.36-.59v-.78c-.22-.08-.45-.15-.71-.19-.25-.05-.49-.07-.71-.07-.46 0-.83.1-1.12.31-.29.21-.44.47-.44.81 0 .3.11.54.34.74.23.19.52.28.87.28zM74.66 78.16c-.6.01-1.14.11-1.63.29-.49.19-.84.46-1.05.84v4.88H69.5v-8.14h2.28v1.64c.28-.55.64-.98 1.08-1.29.44-.31.91-.47 1.4-.48h.25c.05 0 .1.01.16.02v2.24z" class="st3"/>
    <path d="M89.93 20.82H38.07c-1.54 0-2.79 1.25-2.79 2.78V87c0 1.53 1.25 2.78 2.79 2.78h51.86c1.54 0 2.79-1.25 2.79-2.78V23.6c0-1.53-1.25-2.78-2.79-2.78zm-51.65 3h51.44v44.2H38.28v-44.2zm51.44 62.96H38.28V71.02h51.44v15.76zM43.54 35h40.92" class="st3"/>
    <path d="M43.54 33.5h40.93v3H43.54z" class="st3"/>
    <path d="M43.54 45.72h40.92M43.54 54.93h40.92" class="st4"/>
</svg>