<svg xmlns="http://www.w3.org/2000/svg" id="Laag_1" x="0" y="0" version="1.1" viewBox="29 20.3 70 70" xml:space="preserve">
    <style>
        .st3{fill:#000}
    </style>    <path d="M58.22 81.9c-.31.13-.66.25-1.06.36-.4.11-.8.17-1.2.17a2.9 2.9 0 01-.79-.1c-.25-.07-.46-.18-.65-.34-.19-.15-.33-.36-.44-.61-.11-.25-.16-.55-.16-.91v-3.84h-.94v-1.69h.94V72.6h2.24v2.34h1.5v1.69h-1.5v3.07c0 .24.06.42.18.52.12.11.28.16.46.16.17 0 .34-.03.52-.08.18-.06.33-.12.46-.18l.44 1.78zM61.77 82.32c-.49 0-.93-.1-1.33-.29-.4-.2-.74-.46-1.03-.8-.28-.34-.51-.73-.67-1.18s-.24-.93-.24-1.44c0-.54.08-1.04.25-1.5.17-.46.4-.86.7-1.2s.66-.61 1.08-.81c.42-.2.88-.29 1.39-.29.56 0 1.05.12 1.46.36.42.24.75.57 1 .99v-1.2h1.95v6.85c0 .56-.1 1.06-.31 1.51s-.5.83-.88 1.14c-.37.31-.82.55-1.34.72-.52.17-1.1.25-1.72.25-.79 0-1.47-.13-2.03-.38a4.34 4.34 0 01-1.47-1.09l1.2-1.22c.27.31.61.55 1.01.74s.83.27 1.29.27c.27 0 .53-.04.77-.11.24-.08.46-.19.64-.34.19-.15.33-.36.44-.6.11-.25.16-.54.16-.89v-.71c-.22.41-.55.72-.97.93s-.87.29-1.35.29zm.77-1.78c.35 0 .65-.1.92-.29.27-.19.48-.44.63-.74v-1.54c-.15-.39-.38-.7-.69-.93-.31-.23-.63-.34-.98-.34-.24 0-.46.05-.67.16-.2.11-.37.25-.52.43-.15.18-.26.39-.34.63-.08.24-.12.48-.12.74 0 .27.04.52.13.75.09.23.21.43.37.59s.34.3.55.39c.23.1.47.15.72.15zM69.96 82.43c-.36 0-.7-.06-1.01-.17-.31-.12-.58-.28-.8-.49-.22-.21-.4-.46-.53-.74-.13-.29-.2-.6-.2-.93 0-.36.08-.7.23-.99.15-.3.37-.55.65-.77.28-.21.61-.38.99-.5s.81-.18 1.27-.18c.31 0 .61.03.9.08.29.05.54.13.76.23v-.34c0-.85-.49-1.27-1.47-1.27-.4 0-.78.07-1.15.2-.36.14-.75.34-1.15.61l-.66-1.4a5.666 5.666 0 013.18-.95c1.11 0 1.97.26 2.58.78s.91 1.29.91 2.3v1.89c0 .22.04.38.11.47.07.09.19.14.37.16v1.89c-.2.05-.37.08-.53.09-.16.01-.3.02-.43.02-.42 0-.74-.08-.95-.25-.21-.16-.35-.39-.41-.69l-.04-.34c-.33.42-.72.74-1.17.97-.47.21-.95.32-1.45.32zm.66-1.61c.24 0 .48-.04.71-.13s.42-.2.57-.34c.21-.17.32-.35.32-.53v-.7a3.988 3.988 0 00-1.28-.23c-.41 0-.75.09-1.02.28-.27.19-.4.43-.4.73 0 .27.1.49.31.67.21.16.47.25.79.25z" class="st3"/>
    <path d="M89.93 20.82H38.07c-1.54 0-2.79 1.25-2.79 2.78V87c0 1.53 1.25 2.78 2.79 2.78h51.86c1.54 0 2.79-1.25 2.79-2.78V23.6c0-1.53-1.25-2.78-2.79-2.78zm-51.65 3h51.44v44.2H38.28v-44.2zm51.44 62.96H38.28V71.02h51.44v15.76z" class="st3"/>
    <path d="M46.06 58.94h35.73c.93 0 1.5-1.01 1.02-1.81l-7.45-12.41a.51.51 0 00-.72-.16l-8.66 5.78c-.25.17-.59.08-.73-.18l-8.92-16.79c-.2-.38-.75-.35-.92.04L45.1 57.48c-.3.69.21 1.46.96 1.46z" class="st3"/>
    <circle cx="70.39" cy="36.57" r="3.67" class="st3"/>
</svg>