<svg xmlns="http://www.w3.org/2000/svg" id="Laag_1" x="0" y="0" version="1.1" viewBox="29 20.3 70 70" xml:space="preserve">
    <style>
        .st3{fill:#000}
    </style>    <path d="M59.73 74.74h2.36l-3.36 8.14H56.7l-1.26-3.35-1.26 3.35h-2.03l-3.36-8.14h2.34l2.22 5.84.76-2.22-1.44-3.63h1.98l.79 2.45.77-2.45h1.98l-1.43 3.63.76 2.22 2.21-5.84zM64.98 83.03c-.4 0-.78-.06-1.12-.19-.35-.13-.64-.31-.89-.54s-.44-.51-.59-.82c-.15-.32-.22-.66-.22-1.03 0-.4.09-.77.26-1.1.17-.33.41-.61.72-.85s.68-.42 1.1-.56c.42-.13.89-.2 1.41-.2.34 0 .67.03.99.09s.6.14.84.26v-.39c0-.94-.54-1.41-1.63-1.41-.44 0-.87.08-1.27.23-.4.15-.83.37-1.27.67l-.73-1.55c.54-.35 1.1-.62 1.67-.79.58-.17 1.19-.26 1.84-.26 1.23 0 2.18.29 2.85.87.67.58 1.01 1.43 1.01 2.54v2.09c0 .25.04.42.12.52.08.1.21.16.41.18v2.09c-.22.05-.41.08-.59.1-.17.01-.33.02-.47.02-.47 0-.82-.09-1.05-.27-.24-.18-.39-.44-.45-.77l-.05-.37c-.36.46-.79.82-1.29 1.07s-1.04.37-1.6.37zm.73-1.78c.27 0 .53-.05.78-.14.25-.09.46-.22.63-.37.24-.19.36-.38.36-.59v-.78c-.22-.08-.45-.15-.71-.19-.25-.05-.49-.07-.71-.07-.46 0-.83.1-1.12.31-.29.21-.44.47-.44.81 0 .3.11.54.34.74s.52.28.87.28zM73.65 82.87l-2.88-8.14h2.56l1.78 6.15 1.8-6.15h2.31l-2.87 8.14h-2.7z" class="st3"/>
    <path d="M89.93 20.82H38.07c-1.54 0-2.79 1.25-2.79 2.78V87c0 1.53 1.25 2.78 2.79 2.78h51.86c1.54 0 2.79-1.25 2.79-2.78V23.6c0-1.53-1.25-2.78-2.79-2.78zm-51.65 3h51.44v44.2H38.28v-44.2zm51.44 62.96H38.28V71.02h51.44v15.76z" class="st3"/>
    <path d="M52.92 48.28v-12.3c0-.99.44-1.6 1.15-1.65.63-.05 1.2.47 1.29 1.21.03.26.02.52.02.78v23.9c0 .23.01.47-.01.7-.07.77-.58 1.3-1.22 1.3s-1.15-.53-1.22-1.3c-.03-.32-.01-.64-.01-.96V48.28zM75.09 48.37v11.95c0 .26.02.53-.03.78-.15.7-.55 1.12-1.2 1.12-.64 0-1.05-.42-1.2-1.12-.06-.28-.03-.58-.03-.87v-23.9c0-.26-.02-.53.02-.78.12-.75.53-1.21 1.21-1.21.68 0 1.09.46 1.21 1.21.04.25.02.52.02.78v12.04zM50.46 48.82v6.67c0 1.12-.46 1.77-1.23 1.77S48 56.61 48 55.49V41.98c0-1.12.46-1.77 1.23-1.77s1.23.65 1.23 1.77v6.84zM60.31 48.73v6.75c0 1.12-.47 1.77-1.23 1.77-.77 0-1.23-.65-1.23-1.77V41.97c0-1.12.46-1.77 1.23-1.77s1.23.65 1.23 1.77v6.76zM70.16 48.73v6.75c0 1.12-.46 1.77-1.23 1.77s-1.23-.65-1.23-1.77V41.97c0-1.12.46-1.77 1.23-1.77s1.23.65 1.23 1.77c.01 2.25 0 4.5 0 6.76zM80.02 48.76v6.75c0 1.1-.49 1.76-1.26 1.74-.74-.02-1.2-.66-1.2-1.71-.01-4.53 0-9.07 0-13.6 0-1.11.48-1.76 1.26-1.74.75.02 1.2.65 1.2 1.71v6.85zM62.77 48.75c0-1.15-.01-2.31 0-3.46.01-.9.49-1.45 1.24-1.45.75.01 1.22.55 1.22 1.47.01 2.31.01 4.62 0 6.93 0 .9-.49 1.45-1.24 1.45-.75-.01-1.21-.55-1.22-1.47v-3.47zM45.53 48.4c0 .53.02 1.06 0 1.59-.04 1.01-.54 1.69-1.21 1.71-.67.01-1.21-.67-1.23-1.67-.03-1.13-.03-2.26 0-3.39.03-1.01.54-1.69 1.21-1.71.67-.01 1.19.67 1.24 1.67.01.6-.02 1.2-.01 1.8zM84.94 48.4c0 .53.02 1.06 0 1.59-.04 1.01-.54 1.7-1.21 1.71-.67.01-1.21-.66-1.24-1.66-.03-1.13-.03-2.26 0-3.39.03-1.01.53-1.69 1.21-1.71.7-.01 1.21.7 1.24 1.77.02.56 0 1.12 0 1.69z" class="st3"/>
</svg>