<svg xmlns="http://www.w3.org/2000/svg" id="Laag_1" x="0" y="0" version="1.1" viewBox="29 20.3 70 70" xml:space="preserve">
    <style>
        .st3,.st4{fill:#000}.st4{stroke:#000;stroke-width:3;stroke-miterlimit:10}
    </style>    <path d="M89.93 20.82H38.07c-1.54 0-2.79 1.25-2.79 2.78V87c0 1.53 1.25 2.78 2.79 2.78h51.86c1.54 0 2.79-1.25 2.79-2.78V23.6c0-1.53-1.25-2.78-2.79-2.78zm-51.65 3h51.44v44.2H38.28v-44.2zm51.44 62.96H38.28V71.02h51.44v15.76zM43.38 35h40.93" class="st3"/>
    <path d="M43.38 33.5h40.93v3H43.38z" class="st3"/>
    <path d="M43.38 45.72h40.93M43.38 54.93h40.93" class="st4"/>
    <path d="M58.48 75.1h2.28l-3.25 7.88h-1.97l-1.21-3.24-1.21 3.24h-1.97L47.9 75.1h2.27l2.15 5.66.73-2.15-1.4-3.51h1.92l.77 2.37.75-2.37H57l-1.38 3.51.73 2.15 2.13-5.66zM66.51 83.12c-.6 0-1.12-.13-1.56-.38-.44-.25-.78-.6-1.02-1.05v4.47h-2.4V75.1h2.08v1.27c.29-.45.65-.8 1.09-1.05s.95-.38 1.55-.38c.53 0 1.02.11 1.46.32s.83.5 1.16.86c.32.37.58.79.76 1.29s.28 1.03.28 1.6c0 .59-.08 1.13-.25 1.63s-.41.93-.71 1.3-.66.65-1.08.86-.87.32-1.36.32zm-.81-2.02c.26 0 .5-.06.71-.17.21-.11.4-.27.56-.46s.28-.41.37-.67c.09-.26.13-.52.13-.8 0-.29-.05-.56-.14-.8a1.807 1.807 0 00-.99-1.06c-.24-.1-.49-.15-.76-.15-.33 0-.65.1-.95.29-.31.19-.54.46-.7.79v1.62c.16.4.4.74.73 1 .32.27.67.41 1.04.41zM74.4 83.12c-.54 0-1.04-.1-1.49-.31a3.49 3.49 0 01-1.18-.86c-.33-.37-.59-.8-.77-1.3-.18-.5-.28-1.04-.28-1.63 0-.57.08-1.1.25-1.6s.41-.93.72-1.3.68-.65 1.1-.86.89-.32 1.4-.32c.55 0 1.05.13 1.49.39.44.26.79.61 1.03 1.05v-4.37h2.4v8.25c0 .24.04.41.11.5s.21.15.4.17v2.03c-.22.05-.41.08-.57.1-.16.01-.31.02-.45.02-.42 0-.76-.09-1.02-.26s-.41-.43-.45-.76l-.04-.4c-.28.49-.66.85-1.13 1.09-.48.25-.98.37-1.52.37zm.64-2.02c.33 0 .65-.1.95-.29.3-.19.54-.46.7-.8v-1.65c-.15-.4-.39-.73-.73-.98s-.68-.38-1.04-.38c-.26 0-.5.06-.71.17s-.4.27-.56.46c-.16.19-.28.41-.37.66s-.13.52-.13.79c0 .29.05.56.14.81.1.25.23.46.39.64.17.18.36.32.6.42.24.1.49.15.76.15z" class="st3"/>
</svg>