<svg xmlns="http://www.w3.org/2000/svg" id="Laag_1" x="0" y="0" version="1.1" viewBox="29 20.3 70 70" xml:space="preserve">
    <style>
        .st3,.st4{fill:#000}.st4{stroke:#000;stroke-width:3;stroke-miterlimit:10}
    </style>    <path d="M59 73.93h2.36L58 82.07h-2.03l-1.26-3.35-1.26 3.35h-2.03l-3.36-8.14h2.34l2.22 5.84.76-2.22-1.44-3.63h1.98l.79 2.45.77-2.45h1.98l-1.43 3.63.76 2.22L59 73.93zM67.29 82.23c-.62 0-1.16-.13-1.61-.39s-.81-.62-1.05-1.08v4.62h-2.48V73.93h2.15v1.32c.3-.46.67-.83 1.12-1.08.45-.26.98-.39 1.6-.39.55 0 1.05.11 1.51.33s.86.51 1.19.89c.33.38.6.82.79 1.33.19.51.29 1.06.29 1.65 0 .61-.09 1.17-.26 1.69s-.42.96-.73 1.34c-.31.38-.68.67-1.12.89-.42.22-.89.33-1.4.33zm-.83-2.1c.27 0 .51-.06.74-.18.22-.12.42-.28.58-.47.17-.2.29-.43.38-.69.09-.26.13-.54.13-.83a2.228 2.228 0 00-.55-1.49c-.17-.19-.38-.33-.62-.43s-.5-.16-.78-.16c-.34 0-.67.1-.98.3-.32.2-.56.47-.72.81v1.67c.17.41.42.76.75 1.04.32.3.68.43 1.07.43zM75.28 82.23c-.69 0-1.37-.11-2.05-.33-.67-.22-1.24-.54-1.7-.97l.88-1.52c.5.34.98.6 1.45.79.47.19.92.28 1.36.28.32 0 .57-.06.74-.17.18-.11.26-.28.26-.5 0-.22-.11-.39-.33-.52-.22-.13-.61-.27-1.17-.41-.55-.15-1.01-.3-1.39-.45-.38-.14-.69-.3-.92-.48-.24-.18-.41-.38-.51-.6s-.15-.5-.15-.81c0-.41.08-.79.25-1.13.16-.34.39-.63.68-.87.29-.24.63-.42 1.03-.56.4-.13.83-.2 1.29-.2.61 0 1.18.08 1.71.25.53.17 1.05.47 1.54.9l-.96 1.49c-.46-.32-.88-.55-1.24-.7-.36-.14-.71-.22-1.05-.22-.27 0-.5.05-.68.16-.19.11-.28.28-.28.52 0 .23.1.4.3.51.2.11.58.24 1.12.37.58.16 1.07.31 1.46.47.4.15.72.33.97.52s.43.41.54.66c.11.25.17.54.17.88 0 .81-.3 1.45-.9 1.92-.59.48-1.4.72-2.42.72z" class="st3"/>
    <path d="M89.93 20.82H38.07c-1.54 0-2.79 1.25-2.79 2.78V87c0 1.53 1.25 2.78 2.79 2.78h51.86c1.54 0 2.79-1.25 2.79-2.78V23.6c0-1.53-1.25-2.78-2.79-2.78zm-51.65 3h51.44v44.2H38.28v-44.2zm51.44 62.96H38.28V71.02h51.44v15.76zM43.54 35h40.92" class="st3"/>
    <path d="M43.54 33.5h40.93v3H43.54z" class="st3"/>
    <path d="M43.54 45.72h40.92M43.54 54.93h40.92" class="st4"/>
</svg>