<svg xmlns="http://www.w3.org/2000/svg" id="Laag_1" x="0" y="0" version="1.1" viewBox="29 20.3 70 70" xml:space="preserve">
    <style>
        .st3{fill:#000}.st4{fill:none;stroke:#000;stroke-width:3;stroke-linecap:round;stroke-miterlimit:10}
    </style>    <path d="M52.51 76.04l1.47 2.29.16.29.15-.29 1.46-2.29h2.54l-2.82 4.08 2.88 4.06h-2.54l-1.53-2.28-.14-.29-.14.28-1.53 2.28h-2.54l2.88-4.06-2.82-4.08h2.52zM72.06 84.17h-2.48V79.6c0-.54-.1-.93-.29-1.17a.942.942 0 00-.76-.36c-.17 0-.33.04-.5.11-.17.07-.33.17-.47.3s-.28.28-.4.46-.21.37-.29.57v4.67h-2.48V79.6c0-.54-.1-.93-.29-1.17a.942.942 0 00-.76-.36c-.33 0-.65.13-.97.4-.32.26-.55.61-.69 1.05v4.67H59.2v-8.14h2.23v1.36c.3-.5.71-.87 1.22-1.13.51-.26 1.11-.39 1.79-.39.34 0 .64.04.89.12.25.08.47.2.66.34.19.14.34.31.45.5.11.19.2.4.25.61.31-.51.72-.9 1.22-1.17.51-.27 1.08-.41 1.74-.41.52 0 .93.1 1.25.29.31.19.56.44.74.74.17.3.29.64.35 1s.08.71.08 1.05v5.21zM73.66 72.86h2.48v8.42c0 .62.26.93.79.93.12 0 .26-.02.41-.05.15-.04.29-.09.41-.16l.33 1.86c-.31.14-.67.26-1.07.34-.4.08-.78.12-1.13.12-.71 0-1.26-.19-1.64-.56-.38-.37-.57-.91-.57-1.61v-9.29z" class="st3"/>
    <path d="M89.93 20.82H38.07c-1.54 0-2.79 1.25-2.79 2.78V87c0 1.53 1.25 2.78 2.79 2.78h51.86c1.54 0 2.79-1.25 2.79-2.78V23.6c0-1.53-1.25-2.78-2.79-2.78zm-51.65 3h51.44v44.2H38.28v-44.2zm51.44 62.96H38.28V71.02h51.44v15.76z" class="st3"/>
    <path d="M54.94 39.58L47.52 47l7.58 7.58M73.06 39.6l7.42 7.43-7.58 7.58M70.2 31.95L58.82 59.89" class="st4"/>
</svg>