<svg xmlns="http://www.w3.org/2000/svg" id="Laag_1" x="0" y="0" version="1.1" viewBox="29 20.3 70 70" xml:space="preserve">
    <style>
        .st3{fill:#000}
    </style>    <path d="M52.72 82.89c.19.06.36.11.52.14.16.03.31.04.44.04.27 0 .48-.09.63-.28s.28-.52.41-1.01l-2.8-7.35h2.31l1.71 5.43 1.47-5.43h2.1l-2.8 8.54c-.2.61-.55 1.1-1.05 1.48s-1.1.57-1.79.57c-.19 0-.38-.02-.57-.05-.19-.03-.39-.09-.58-.16v-1.92zM62.62 81.93c-.76 0-1.33-.24-1.72-.71-.39-.47-.58-1.16-.58-2.08v-4.7h2.24v4.21c0 .45.09.79.27 1.03.18.24.43.36.76.36.3 0 .59-.08.87-.24.28-.16.53-.43.74-.83v-4.54h2.24v4.83c0 .22.04.38.11.47.07.09.19.14.37.16v1.89c-.21.05-.4.08-.55.09-.15.01-.29.02-.41.02-.8 0-1.26-.31-1.37-.94l-.04-.45c-.34.49-.75.84-1.25 1.07-.51.24-1.06.36-1.68.36zM71.08 81.79l-2.6-7.35h2.31l1.6 5.56 1.62-5.56h2.09l-2.59 7.35h-2.43z" class="st3"/>
    <path d="M89.93 20.82H38.07c-1.54 0-2.79 1.25-2.79 2.78V87c0 1.53 1.25 2.78 2.79 2.78h51.86c1.54 0 2.79-1.25 2.79-2.78V23.6c0-1.53-1.25-2.78-2.79-2.78zm-51.65 3h51.44v44.2H38.28v-44.2zm51.44 62.96H38.28V71.02h51.44v15.76z" class="st3"/>
    <path d="M74.8 42.5c.01-.21.02-.42.02-.63 0-5.96-4.85-10.82-10.82-10.82s-10.82 4.86-10.82 10.82c0 .31.01.62.04.93-3.95 1.61-6.75 5.5-6.75 10.03 0 5.96 4.86 10.82 10.82 10.82 2.75 0 5.26-1.02 7.16-2.71 1.9 1.69 4.41 2.71 7.16 2.71 5.96 0 10.82-4.86 10.82-10.82 0-4.86-3.22-8.97-7.63-10.33zM64 33.05c4.86 0 8.82 3.96 8.82 8.82v.21c-.39-.05-.8-.07-1.21-.07-2.75 0-5.26 1.02-7.16 2.71-1.9-1.69-4.41-2.71-7.16-2.71-.72 0-1.42.07-2.1.21-.01-.11-.01-.23-.01-.35 0-4.86 3.96-8.82 8.82-8.82zm.45 24.92a8.785 8.785 0 01-1.66-5.14v-.21c.39.05.8.07 1.21.07.72 0 1.42-.07 2.1-.21.01.11.01.23.01.35 0 1.92-.62 3.69-1.66 5.14zm-3.34-7.77a8.81 8.81 0 01-5.61-6 8.18 8.18 0 011.79-.19c2.21 0 4.24.82 5.79 2.17-.92 1.17-1.6 2.53-1.97 4.02zm3.34-2.52c.61.84 1.07 1.8 1.34 2.83a8.837 8.837 0 01-2.72.13c.27-1.08.75-2.08 1.38-2.96zm1.37-1.5a8.798 8.798 0 016.72-2.12 8.848 8.848 0 01-4.84 5.82 10.62 10.62 0 00-1.88-3.7zm-8.53 15.47c-4.86 0-8.82-3.96-8.82-8.82 0-3.55 2.1-6.61 5.12-8.01 1 3.52 3.73 6.31 7.22 7.38-.01.21-.02.42-.02.63 0 2.5.85 4.82 2.29 6.65a8.798 8.798 0 01-5.79 2.17zm14.32 0c-2.21 0-4.24-.82-5.79-2.17 1.44-1.83 2.29-4.15 2.29-6.65 0-.31-.01-.62-.04-.93a10.89 10.89 0 006.43-7.4 8.811 8.811 0 015.93 8.33c0 4.86-3.96 8.82-8.82 8.82z" class="st3"/>
</svg>