<svg xmlns="http://www.w3.org/2000/svg" id="Laag_1" x="0" y="0" version="1.1" viewBox="0 0 128 128" xml:space="preserve"><style>.st3{fill:#fff}</style><linearGradient id="SVGID_1_" x1="138.865" x2="139.365" y1="64" y2="64" gradientUnits="userSpaceOnUse"><stop offset="0" stop-color="#e96c5f"/><stop offset="1" stop-color="#ea5456"/></linearGradient><path fill="url(#SVGID_1_)" d="M128 0v93H93v35H0V0z"/><linearGradient id="SVGID_2_" x1="116.047" x2="89.797" y1="113.703" y2="98.547" gradientUnits="userSpaceOnUse"><stop offset="0" stop-color="#e58788"/><stop offset="1" stop-color="#fff"/></linearGradient><path fill="url(#SVGID_2_)" d="M128 93l-35 35V93z"/><linearGradient id="SVGID_3_" x1="57.9" x2="93" y1="110.55" y2="110.55" gradientUnits="userSpaceOnUse"><stop offset=".249" stop-color="#ea5456" stop-opacity=".1"/><stop offset=".376" stop-color="#b9645c" stop-opacity=".117"/><stop offset=".5" stop-color="#8e5f58" stop-opacity=".133"/><stop offset=".618" stop-color="#68504b" stop-opacity=".149"/><stop offset=".73" stop-color="#483d39" stop-opacity=".164"/><stop offset=".834" stop-color="#2e2927" stop-opacity=".178"/><stop offset=".927" stop-color="#110f0e" stop-opacity=".19"/><stop offset="1" stop-opacity=".2"/></linearGradient><path fill="url(#SVGID_3_)" d="M93 93l-35.1 35.1L93 128z"/><path d="M56.23 78.3c.32.06.61.17.88.33s.5.36.69.6c.19.24.34.52.44.84.1.32.16.65.16 1.01 0 .49-.1.92-.29 1.31-.2.39-.48.72-.84.99-.37.27-.81.49-1.33.64s-1.1.22-1.74.22c-1.57 0-2.8-.46-3.69-1.38l1.33-1.77c.28.29.6.51.95.66.36.15.78.22 1.28.22 1.17 0 1.75-.43 1.75-1.29 0-.46-.17-.82-.52-1.05-.35-.24-.89-.36-1.64-.36h-.46v-1.78h.51c.58 0 1.03-.12 1.36-.36.33-.24.49-.55.49-.95 0-.34-.12-.6-.36-.78s-.55-.26-.95-.26c-.42 0-.81.1-1.15.3-.35.2-.64.49-.88.86l-1.57-1.8c.17-.22.38-.42.65-.6.27-.19.57-.34.91-.47.34-.13.71-.23 1.1-.3s.8-.11 1.21-.11c.55 0 1.05.06 1.5.19.45.13.84.32 1.16.56.32.24.57.53.74.87.18.34.26.71.26 1.12 0 .31-.05.6-.15.88-.1.28-.24.53-.41.76-.18.23-.39.42-.63.57s-.47.28-.76.33zM62.97 82c-.54 0-1.03-.11-1.47-.33-.44-.22-.82-.51-1.14-.88-.32-.37-.56-.81-.74-1.3a4.67 4.67 0 01-.26-1.6c0-.6.09-1.16.28-1.67.19-.51.44-.96.77-1.33a3.564 3.564 0 012.72-1.22c.62 0 1.16.13 1.62.4.46.26.83.63 1.11 1.09v-1.33h2.15v7.58c0 .62-.12 1.18-.35 1.67s-.56.92-.97 1.26c-.41.35-.91.61-1.49.8-.58.19-1.21.28-1.91.28-.88 0-1.63-.14-2.25-.42s-1.16-.68-1.63-1.21l1.33-1.35c.3.34.67.61 1.12.81.44.2.92.3 1.43.3.3 0 .58-.04.85-.12.27-.08.51-.21.71-.38s.37-.39.49-.67c.12-.27.18-.6.18-.98v-.79c-.25.46-.6.8-1.07 1.03s-.94.36-1.48.36zm.85-1.96c.38 0 .72-.11 1.02-.32.3-.21.53-.48.7-.81V77.2c-.17-.43-.42-.78-.76-1.03s-.7-.38-1.08-.38c-.27 0-.51.06-.74.18-.22.12-.41.28-.57.48-.16.2-.28.43-.37.7s-.13.53-.13.81c0 .3.05.58.15.83.1.25.23.47.41.66a1.878 1.878 0 001.37.59zM74.87 82.13c-.62 0-1.16-.13-1.61-.39s-.81-.62-1.05-1.08v4.62h-2.48V73.83h2.15v1.32c.3-.46.67-.83 1.12-1.08.45-.26.98-.39 1.6-.39.55 0 1.05.11 1.51.33s.86.51 1.19.89c.34.38.6.82.79 1.33.19.51.29 1.06.29 1.65 0 .61-.09 1.17-.26 1.69-.18.52-.42.96-.73 1.34-.31.38-.68.67-1.12.89-.42.22-.89.33-1.4.33zm-.83-2.09c.27 0 .51-.06.74-.18.22-.12.42-.28.58-.47.17-.2.29-.43.38-.69s.13-.54.13-.83a2.228 2.228 0 00-.55-1.49c-.17-.19-.38-.33-.62-.43-.24-.1-.5-.16-.78-.16-.34 0-.67.1-.98.3-.32.2-.56.47-.72.81v1.67c.17.41.42.76.75 1.04.32.29.68.43 1.07.43z" class="st3"/><path d="M89.93 20.82H38.07c-1.54 0-2.79 1.25-2.79 2.78V87c0 1.53 1.25 2.78 2.79 2.78h51.86c1.54 0 2.79-1.25 2.79-2.78V23.6c0-1.53-1.25-2.78-2.79-2.78zm-51.65 3h51.44v44.2H38.28v-44.2zm51.44 62.96H38.28V71.02h51.44v15.76z" class="st3"/><path d="M77.95 45.36H53.56l.82-.58c6.05-3.5 19.45-11.9 19.45-11.9.56-.32.75-1.04.43-1.59l-1.17-2.87c-.32-.56-1.03-.75-1.59-.43l-22.04 13.4c-.56.32-.74 1.04-.42 1.59l2.11 2.29.02 17.57c0 .65.52 1.16 1.16 1.16h25.63c.64 0 1.16-.52 1.16-1.16V46.53c0-.64-.52-1.17-1.17-1.17zm-8.45.84l-3.6 3.49h-4.66l3.5-3.49h4.76zm-1.51-15.02l4.13-2.65-.6 3.89-4.23 2.72.7-3.96zm-7.37 4.54l4.21-2.62-.75 3.95-4.2 2.62.74-3.95zm-8.39 8.72l.7-3.96 4.17-2.67-.71 3.95-4.16 2.68zm4.36 1.76h4.66l-3.49 3.49H53.1l3.49-3.49zm20.52 16.38H53.15V50.51h23.97v12.07zm-2.97-12.89H69.4l3.5-3.49h4.62l-3.38 3.49z" class="st3"/></svg>