<svg xmlns="http://www.w3.org/2000/svg" id="Laag_1" x="0" y="0" version="1.1" viewBox="0 0 128 128" xml:space="preserve"><style>.st3{fill:#fff}</style><linearGradient id="SVGID_1_" x1="138.865" x2="139.365" y1="64" y2="64" gradientUnits="userSpaceOnUse"><stop offset="0" stop-color="#e96c5f"/><stop offset="1" stop-color="#ea5456"/></linearGradient><path fill="url(#SVGID_1_)" d="M128 0v93H93v35H0V0z"/><linearGradient id="SVGID_2_" x1="116.047" x2="89.797" y1="113.703" y2="98.547" gradientUnits="userSpaceOnUse"><stop offset="0" stop-color="#e58788"/><stop offset="1" stop-color="#fff"/></linearGradient><path fill="url(#SVGID_2_)" d="M128 93l-35 35V93z"/><linearGradient id="SVGID_3_" x1="57.9" x2="93" y1="110.55" y2="110.55" gradientUnits="userSpaceOnUse"><stop offset=".249" stop-color="#ea5456" stop-opacity=".1"/><stop offset=".376" stop-color="#b9645c" stop-opacity=".117"/><stop offset=".5" stop-color="#8e5f58" stop-opacity=".133"/><stop offset=".618" stop-color="#68504b" stop-opacity=".149"/><stop offset=".73" stop-color="#483d39" stop-opacity=".164"/><stop offset=".834" stop-color="#2e2927" stop-opacity=".178"/><stop offset=".927" stop-color="#110f0e" stop-opacity=".19"/><stop offset="1" stop-opacity=".2"/></linearGradient><path fill="url(#SVGID_3_)" d="M93 93l-35.1 35.1L93 128z"/><path d="M56.33 84.13c-.4 0-.78-.06-1.12-.19-.35-.13-.64-.31-.89-.54s-.44-.51-.59-.82c-.15-.32-.22-.66-.22-1.03 0-.4.09-.77.26-1.1.17-.33.41-.61.72-.85s.68-.42 1.1-.56c.42-.13.89-.2 1.41-.2.34 0 .67.03.99.09s.6.14.84.26v-.39c0-.94-.54-1.41-1.63-1.41-.44 0-.87.08-1.27.23-.4.15-.83.37-1.27.67l-.73-1.55c.54-.35 1.1-.62 1.67-.79.58-.17 1.19-.26 1.84-.26 1.23 0 2.18.29 2.85.87.67.58 1.01 1.43 1.01 2.54v2.09c0 .25.04.42.12.52.08.1.21.16.41.18v2.09c-.22.05-.41.08-.59.1-.18.02-.34.02-.48.02-.47 0-.82-.09-1.05-.27s-.39-.44-.45-.77l-.05-.37c-.36.46-.79.82-1.29 1.07-.5.24-1.03.37-1.59.37zm.73-1.79c.27 0 .53-.05.78-.14.25-.09.46-.22.63-.37.24-.19.36-.38.36-.59v-.78c-.22-.08-.45-.15-.71-.19-.25-.05-.49-.07-.71-.07-.46 0-.83.1-1.12.31-.29.21-.44.47-.44.81 0 .3.11.54.34.74.23.19.51.28.87.28zM64.99 83.97l-2.88-8.14h2.56l1.78 6.15 1.8-6.15h2.31l-2.87 8.14h-2.7zM71.5 74.91v-2.25h2.48v2.25H71.5zm0 9.06v-8.14h2.48v8.14H71.5z" class="st3"/><path d="M89.93 20.82H38.07c-1.54 0-2.79 1.25-2.79 2.78V87c0 1.53 1.25 2.78 2.79 2.78h51.86c1.54 0 2.79-1.25 2.79-2.78V23.6c0-1.53-1.25-2.78-2.79-2.78zm-51.65 3h51.44v44.2H38.28v-44.2zm51.44 62.96H38.28V71.02h51.44v15.76z" class="st3"/><path d="M63.98 31.77c7.72-.02 14.02 6.25 14.06 13.99.04 7.72-6.32 14.07-14.06 14.05-7.74-.02-14.02-6.31-14.02-14.02 0-7.72 6.28-14 14.02-14.02zm11.5 14.05c.04-6.26-5.09-11.44-11.38-11.49-6.35-.05-11.54 5.08-11.58 11.44-.04 6.25 5.11 11.44 11.39 11.5 6.34.05 11.53-5.08 11.57-11.45z" class="st3"/><path d="M59.77 45.94c0-2.56-.01-5.13.01-7.69 0-.27-.04-.53.04-.8.25.08.52.12.73.25 4.29 2.72 8.57 5.45 12.85 8.19.1.07.1.18 0 .24-4.26 2.72-8.52 5.45-12.79 8.16-.23.15-.53.19-.8.29-.08-.29-.03-.58-.03-.87-.01-2.59-.01-5.18-.01-7.77z" class="st3"/></svg>