<svg xmlns="http://www.w3.org/2000/svg" id="Laag_1" x="0" y="0" version="1.1" viewBox="0 0 128 128" xml:space="preserve"><style>.st3{fill:#fff}</style><linearGradient id="SVGID_1_" x1="138.865" x2="139.365" y1="64" y2="64" gradientUnits="userSpaceOnUse"><stop offset="0" stop-color="#e96c5f"/><stop offset="1" stop-color="#ea5456"/></linearGradient><path fill="url(#SVGID_1_)" d="M128 0v93H93v35H0V0z"/><linearGradient id="SVGID_2_" x1="116.047" x2="89.797" y1="113.703" y2="98.547" gradientUnits="userSpaceOnUse"><stop offset="0" stop-color="#e58788"/><stop offset="1" stop-color="#fff"/></linearGradient><path fill="url(#SVGID_2_)" d="M128 93l-35 35V93z"/><linearGradient id="SVGID_3_" x1="57.9" x2="93" y1="110.55" y2="110.55" gradientUnits="userSpaceOnUse"><stop offset=".249" stop-color="#ea5456" stop-opacity=".1"/><stop offset=".376" stop-color="#b9645c" stop-opacity=".117"/><stop offset=".5" stop-color="#8e5f58" stop-opacity=".133"/><stop offset=".618" stop-color="#68504b" stop-opacity=".149"/><stop offset=".73" stop-color="#483d39" stop-opacity=".164"/><stop offset=".834" stop-color="#2e2927" stop-opacity=".178"/><stop offset=".927" stop-color="#110f0e" stop-opacity=".19"/><stop offset="1" stop-opacity=".2"/></linearGradient><path fill="url(#SVGID_3_)" d="M93 93l-35.1 35.1L93 128z"/><path d="M89.93 20.82H38.07c-1.54 0-2.79 1.25-2.79 2.78V87c0 1.53 1.25 2.78 2.79 2.78h51.86c1.54 0 2.79-1.25 2.79-2.78V23.6c0-1.53-1.25-2.78-2.79-2.78zm-51.65 3h51.44v44.2H38.28v-44.2zm51.44 62.96H38.28V71.02h51.44v15.76z" class="st3"/><path d="M55.75 84.54c-.62 0-1.16-.13-1.63-.4s-.83-.63-1.1-1.11v1.35h-2.15V73.07h2.48v4.51c.27-.46.63-.83 1.08-1.09.45-.26.98-.4 1.59-.4.52 0 .99.11 1.43.33.43.22.81.52 1.12.91.31.38.55.83.73 1.36s.26 1.08.26 1.67-.1 1.14-.29 1.65c-.19.51-.46.96-.8 1.33s-.74.67-1.21.88a3.5 3.5 0 01-1.51.32zm-.69-2.09c.29 0 .55-.05.79-.16s.44-.26.61-.44a2.228 2.228 0 00.55-1.49c0-.29-.05-.57-.14-.83-.09-.26-.22-.49-.38-.69-.16-.2-.35-.35-.58-.46a1.664 1.664 0 00-1.81.23c-.33.27-.58.6-.75 1.01v1.71c.17.35.41.63.72.83.32.19.65.29.99.29zM63.1 84.54c-.4 0-.78-.06-1.12-.19-.35-.13-.64-.31-.89-.54a2.526 2.526 0 01-.81-1.85c0-.4.08-.77.26-1.1.17-.33.41-.61.72-.85s.68-.42 1.1-.56c.42-.13.89-.2 1.41-.2.34 0 .67.03.99.09.32.06.6.14.84.26v-.37c0-.94-.54-1.41-1.63-1.41-.44 0-.87.08-1.27.23-.4.15-.83.37-1.27.67l-.73-1.55c.54-.35 1.09-.62 1.67-.79.58-.17 1.19-.26 1.84-.26 1.23 0 2.18.29 2.85.87.67.58 1.01 1.43 1.01 2.54v2.09c0 .25.04.42.12.52.08.1.21.16.41.18v2.09c-.22.05-.41.08-.59.1s-.34.02-.48.02c-.46 0-.82-.09-1.05-.27-.24-.18-.39-.44-.45-.77l-.05-.37c-.36.46-.79.82-1.29 1.07-.5.23-1.03.35-1.59.35zm.73-1.78c.27 0 .53-.05.78-.14.25-.09.46-.22.63-.37.24-.19.36-.38.36-.59v-.78c-.22-.08-.45-.15-.7-.19-.25-.05-.49-.07-.71-.07-.46 0-.83.1-1.12.31-.29.21-.44.47-.44.81 0 .3.11.54.34.74s.51.28.86.28zM75.08 83.96c-.34.14-.73.28-1.17.4s-.88.19-1.33.19c-.31 0-.6-.04-.88-.12-.27-.08-.51-.2-.72-.37-.21-.17-.37-.4-.49-.67-.12-.28-.18-.61-.18-1.01v-4.25h-1.04v-1.88h1.04v-2.59h2.48v2.59h1.66v1.88H72.8v3.39c0 .27.07.46.2.58.13.12.3.18.51.18.19 0 .38-.03.57-.09.2-.06.37-.13.51-.2l.49 1.97zM71.42 48.58a4.638 4.638 0 01-.14-5.24c.37-.57.83-1.03 1.37-1.37-.08-1.25-.34-2.48-.76-3.66-.6-.1-1.18-.32-1.72-.67a4.653 4.653 0 01-2.02-4.92c-.53-.48-1.1-.91-1.72-1.31-.5-.32-1.01-.61-1.54-.86a4.658 4.658 0 01-5.36.23c-.62-.4-1.11-.92-1.46-1.51-1.18.09-2.35.33-3.47.71a4.64 4.64 0 01-5.95 4.08c-.38.44-.73.92-1.05 1.42-.32.5-.6 1-.85 1.52a4.638 4.638 0 01.4 5.57c-.43.67-1.01 1.2-1.66 1.56.11 1.21.39 2.4.81 3.54a4.648 4.648 0 014.09 5.72 13.524 13.524 0 003.03 1.88 4.661 4.661 0 015.33-.21c.57.37 1.04.84 1.38 1.38 1.28-.1 2.54-.38 3.74-.84.09-.63.32-1.25.69-1.82a4.643 4.643 0 014.83-2.04c.4-.47.78-.98 1.13-1.51.33-.53.64-1.08.9-1.65zm-15.99-.09c-3.11-2-4-6.14-2-9.25 2-3.11 6.14-4 9.25-2a6.68 6.68 0 012 9.25c-2 3.1-6.14 4-9.25 2zM79.71 58.73c-.61-.31-1.01-.98-.93-1.71.02-.25.1-.48.22-.69-.24-.4-.53-.76-.87-1.08-.21.07-.45.09-.68.07-.74-.07-1.32-.6-1.5-1.28-.26-.07-.52-.11-.79-.14-.22-.02-.44-.03-.65-.02-.3.64-.98 1.06-1.73.98-.27-.03-.52-.11-.74-.25-.38.23-.72.51-1.03.82.11.25.15.54.12.83-.08.78-.66 1.39-1.4 1.53-.05.21-.08.43-.11.65-.02.22-.03.43-.02.65.7.28 1.15.99 1.08 1.77-.03.3-.13.57-.29.8.24.38.53.73.87 1.03.25-.1.53-.14.81-.12.75.07 1.34.62 1.51 1.31.19.04.38.07.58.09.25.02.5.03.74.02.3-.64.98-1.04 1.72-.97.25.02.49.1.69.22.41-.25.77-.56 1.09-.91-.08-.22-.11-.47-.08-.72.07-.73.59-1.31 1.25-1.49.05-.22.09-.45.12-.69.03-.23.03-.47.02-.7zm-5.3 2.68a2.484 2.484 0 01-2.23-2.72 2.484 2.484 0 012.72-2.23c1.37.13 2.36 1.35 2.23 2.72a2.477 2.477 0 01-2.72 2.23z" class="st3"/></svg>