<svg xmlns="http://www.w3.org/2000/svg" id="Laag_1" x="0" y="0" version="1.1" viewBox="0 0 128 128" xml:space="preserve"><style>.st3,.st4{fill:#fff}.st4{stroke:#fff;stroke-width:3;stroke-miterlimit:10}</style><linearGradient id="SVGID_1_" x1="138.865" x2="139.365" y1="64" y2="64" gradientUnits="userSpaceOnUse"><stop offset="0" stop-color="#e96c5f"/><stop offset="1" stop-color="#ea5456"/></linearGradient><path fill="url(#SVGID_1_)" d="M128 0v93H93v35H0V0z"/><linearGradient id="SVGID_2_" x1="116.047" x2="89.797" y1="113.703" y2="98.547" gradientUnits="userSpaceOnUse"><stop offset="0" stop-color="#e58788"/><stop offset="1" stop-color="#fff"/></linearGradient><path fill="url(#SVGID_2_)" d="M128 93l-35 35V93z"/><linearGradient id="SVGID_3_" x1="57.9" x2="93" y1="110.55" y2="110.55" gradientUnits="userSpaceOnUse"><stop offset=".249" stop-color="#ea5456" stop-opacity=".1"/><stop offset=".376" stop-color="#b9645c" stop-opacity=".117"/><stop offset=".5" stop-color="#8e5f58" stop-opacity=".133"/><stop offset=".618" stop-color="#68504b" stop-opacity=".149"/><stop offset=".73" stop-color="#483d39" stop-opacity=".164"/><stop offset=".834" stop-color="#2e2927" stop-opacity=".178"/><stop offset=".927" stop-color="#110f0e" stop-opacity=".19"/><stop offset="1" stop-opacity=".2"/></linearGradient><path fill="url(#SVGID_3_)" d="M93 93l-35.1 35.1L93 128z"/><path d="M89.93 20.82H38.07c-1.54 0-2.79 1.25-2.79 2.78V87c0 1.53 1.25 2.78 2.79 2.78h51.86c1.54 0 2.79-1.25 2.79-2.78V23.6c0-1.53-1.25-2.78-2.79-2.78zm-51.65 3h51.44v44.2H38.28v-44.2zm51.44 62.96H38.28V71.02h51.44v15.76z" class="st3"/><path d="M48.02 78.71c0-.56.1-1.09.29-1.6s.48-.96.85-1.35c.37-.39.83-.69 1.37-.92.54-.23 1.16-.34 1.85-.34.94 0 1.73.2 2.37.6.64.4 1.12.92 1.44 1.56l-2.42.73c-.32-.52-.79-.78-1.41-.78-.52 0-.95.19-1.29.57-.35.38-.52.89-.52 1.54 0 .32.05.61.14.88.09.26.22.49.39.67.17.19.36.33.58.43.22.1.46.16.71.16.31 0 .59-.08.85-.22.26-.15.45-.34.57-.58l2.42.74c-.3.63-.78 1.15-1.43 1.55-.66.4-1.45.6-2.39.6-.68 0-1.29-.12-1.84-.35s-1-.54-1.38-.93a3.99 3.99 0 01-.86-1.35c-.19-.51-.29-1.05-.29-1.61zM61.13 82.94c-.69 0-1.31-.11-1.85-.34-.54-.23-1-.54-1.37-.92s-.65-.84-.84-1.35a4.577 4.577 0 010-3.2c.19-.51.47-.96.84-1.35s.83-.7 1.37-.93c.54-.23 1.16-.35 1.85-.35s1.31.12 1.84.35c.54.23.99.54 1.36.93.37.39.66.84.85 1.35a4.577 4.577 0 010 3.2c-.19.51-.47.96-.84 1.35s-.83.7-1.37.92c-.53.23-1.14.34-1.84.34zm-1.81-4.21c0 .64.17 1.15.51 1.54s.77.58 1.3.58c.26 0 .5-.05.71-.16.22-.1.41-.25.57-.43.16-.19.29-.41.38-.67.09-.26.14-.55.14-.86 0-.64-.17-1.16-.51-1.54-.34-.39-.77-.58-1.29-.58-.26 0-.5.05-.72.16-.22.1-.41.25-.57.43-.16.19-.29.41-.38.67-.09.26-.14.55-.14.86zM79.58 82.79H77.1v-4.57c0-.54-.1-.93-.29-1.17a.942.942 0 00-.76-.36c-.17 0-.33.04-.5.11s-.33.17-.47.3-.28.28-.4.46-.21.37-.29.57v4.67H71.9v-4.57c0-.54-.1-.93-.29-1.17a.942.942 0 00-.76-.36c-.33 0-.65.13-.97.4-.32.26-.54.61-.69 1.05v4.67h-2.48v-8.14h2.23v1.36c.3-.5.71-.87 1.22-1.13.51-.26 1.11-.39 1.79-.39.34 0 .64.04.89.12.25.08.47.2.66.34.19.14.34.31.45.5.11.19.2.4.25.61.31-.51.72-.9 1.22-1.17.51-.27 1.08-.41 1.74-.41.52 0 .93.1 1.25.29s.56.44.74.74.29.64.35 1 .09.71.09 1.05v5.2zM43.54 36.6h40.92M43.54 35.1h40.93v3H43.54z" class="st3"/><path d="M43.54 47.32h40.92M43.54 56.53h40.92" class="st4"/></svg>