<svg xmlns="http://www.w3.org/2000/svg" id="Laag_1" x="0" y="0" version="1.1" viewBox="0 0 128 128" xml:space="preserve"><style>.st3{fill:#fff}</style><linearGradient id="SVGID_1_" x1="138.865" x2="139.365" y1="64" y2="64" gradientUnits="userSpaceOnUse"><stop offset="0" stop-color="#e96c5f"/><stop offset="1" stop-color="#ea5456"/></linearGradient><path fill="url(#SVGID_1_)" d="M128 0v93H93v35H0V0z"/><linearGradient id="SVGID_2_" x1="116.047" x2="89.797" y1="113.703" y2="98.547" gradientUnits="userSpaceOnUse"><stop offset="0" stop-color="#e58788"/><stop offset="1" stop-color="#fff"/></linearGradient><path fill="url(#SVGID_2_)" d="M128 93l-35 35V93z"/><linearGradient id="SVGID_3_" x1="57.9" x2="93" y1="110.55" y2="110.55" gradientUnits="userSpaceOnUse"><stop offset=".249" stop-color="#ea5456" stop-opacity=".1"/><stop offset=".376" stop-color="#b9645c" stop-opacity=".117"/><stop offset=".5" stop-color="#8e5f58" stop-opacity=".133"/><stop offset=".618" stop-color="#68504b" stop-opacity=".149"/><stop offset=".73" stop-color="#483d39" stop-opacity=".164"/><stop offset=".834" stop-color="#2e2927" stop-opacity=".178"/><stop offset=".927" stop-color="#110f0e" stop-opacity=".19"/><stop offset="1" stop-opacity=".2"/></linearGradient><path fill="url(#SVGID_3_)" d="M93 93l-35.1 35.1L93 128z"/><path d="M89.93 20.82H38.07c-1.54 0-2.79 1.25-2.79 2.78V87c0 1.53 1.25 2.78 2.79 2.78h51.86c1.54 0 2.79-1.25 2.79-2.78V23.6c0-1.53-1.25-2.78-2.79-2.78zm-51.65 3h51.44v44.2H38.28v-44.2zm51.44 62.96H38.28V71.02h51.44v15.76z" class="st3"/><path d="M51.5 78.31c0-.56.1-1.09.29-1.6s.48-.96.85-1.35c.37-.39.83-.69 1.37-.92.54-.23 1.16-.34 1.85-.34.94 0 1.73.2 2.37.6.64.4 1.12.92 1.44 1.56l-2.42.73c-.32-.52-.79-.78-1.41-.78-.52 0-.95.19-1.29.57-.35.38-.52.89-.52 1.54 0 .32.05.61.14.88.09.26.22.49.39.67.17.19.36.33.58.43.22.1.46.16.71.16.31 0 .59-.08.85-.22.26-.15.45-.34.57-.58l2.42.74c-.3.63-.78 1.15-1.43 1.55-.66.4-1.45.6-2.39.6-.68 0-1.29-.12-1.84-.35s-1-.54-1.38-.93a3.99 3.99 0 01-.86-1.35c-.19-.51-.29-1.05-.29-1.61zM64.02 82.54c-.69 0-1.37-.11-2.05-.33-.67-.22-1.24-.54-1.71-.97l.88-1.52c.5.34.98.6 1.45.79.47.19.92.28 1.36.28.32 0 .57-.06.74-.17.18-.11.26-.28.26-.5 0-.22-.11-.39-.33-.52-.22-.13-.61-.27-1.17-.41-.55-.15-1.01-.3-1.39-.45-.38-.14-.69-.3-.92-.48s-.41-.38-.51-.6-.15-.5-.15-.81c0-.41.08-.79.25-1.13.17-.34.39-.63.68-.87.29-.24.63-.42 1.03-.56.4-.13.83-.2 1.29-.2.61 0 1.18.08 1.71.25.53.17 1.05.47 1.54.9l-.96 1.49c-.46-.32-.88-.55-1.24-.7-.36-.14-.71-.22-1.05-.22-.27 0-.5.05-.68.16-.19.11-.28.28-.28.52 0 .23.1.4.3.51.2.11.58.24 1.12.37.58.16 1.07.31 1.47.47.4.15.72.33.97.52s.43.41.54.66c.11.25.17.54.17.88 0 .81-.3 1.45-.9 1.92-.58.49-1.39.72-2.42.72zM70.5 82.39l-2.88-8.14h2.56l1.78 6.15 1.8-6.15h2.31l-2.87 8.14h-2.7zM84.79 48.43v-9.82H56.55v-5.87H43.21v29.43h41.57v-9.82h-.04v-3.92h.05zm-28.24-6.82h25.24v3.82H56.55v-3.82zm0 6.8h25.2v3.82h-25.2v-3.82zM46.21 35.74h7.33v2.87h-7.33v-2.87zm.08 9.69v-3.82h7.26v3.82h-7.26zm7.26 2.98v3.82h-7.26v-3.82h7.26zm-7.34 10.76v-3.94h7.33v3.94h-7.33zm35.58 0H56.55v-3.82h25.24v3.82z" class="st3"/></svg>