<svg xmlns="http://www.w3.org/2000/svg" id="Laag_1" x="0" y="0" version="1.1" viewBox="0 0 128 128" xml:space="preserve"><style>.st3{fill:#fff}</style><linearGradient id="SVGID_1_" x1="138.865" x2="139.365" y1="64" y2="64" gradientUnits="userSpaceOnUse"><stop offset="0" stop-color="#e96c5f"/><stop offset="1" stop-color="#ea5456"/></linearGradient><path fill="url(#SVGID_1_)" d="M128 0v93H93v35H0V0z"/><linearGradient id="SVGID_2_" x1="116.047" x2="89.797" y1="113.703" y2="98.547" gradientUnits="userSpaceOnUse"><stop offset="0" stop-color="#e58788"/><stop offset="1" stop-color="#fff"/></linearGradient><path fill="url(#SVGID_2_)" d="M128 93l-35 35V93z"/><linearGradient id="SVGID_3_" x1="57.9" x2="93" y1="110.55" y2="110.55" gradientUnits="userSpaceOnUse"><stop offset=".249" stop-color="#ea5456" stop-opacity=".1"/><stop offset=".376" stop-color="#b9645c" stop-opacity=".117"/><stop offset=".5" stop-color="#8e5f58" stop-opacity=".133"/><stop offset=".618" stop-color="#68504b" stop-opacity=".149"/><stop offset=".73" stop-color="#483d39" stop-opacity=".164"/><stop offset=".834" stop-color="#2e2927" stop-opacity=".178"/><stop offset=".927" stop-color="#110f0e" stop-opacity=".19"/><stop offset="1" stop-opacity=".2"/></linearGradient><path fill="url(#SVGID_3_)" d="M93 93l-35.1 35.1L93 128z"/><path d="M89.93 20.82H38.07c-1.54 0-2.79 1.25-2.79 2.78V87c0 1.53 1.25 2.78 2.79 2.78h51.86c1.54 0 2.79-1.25 2.79-2.78V23.6c0-1.53-1.25-2.78-2.79-2.78zm-51.65 3h51.44v44.2H38.28v-44.2zm51.44 62.96H38.28V71.02h51.44v15.76z" class="st3"/><path d="M58.2 84.34c-.56 0-1.07-.11-1.54-.32-.47-.21-.88-.51-1.22-.89a4.19 4.19 0 01-.8-1.34c-.19-.51-.29-1.07-.29-1.68 0-.59.09-1.14.26-1.66s.42-.96.74-1.34c.32-.38.7-.67 1.14-.89s.92-.33 1.45-.33c.57 0 1.08.13 1.54.4s.81.63 1.06 1.08v-4.51h2.48v8.53c0 .25.04.42.12.52.08.1.21.16.41.18v2.09c-.23.05-.42.08-.59.1-.17.02-.32.02-.47.02-.43 0-.79-.09-1.05-.27s-.42-.44-.46-.78l-.05-.42c-.29.51-.68.88-1.17 1.13s-1 .38-1.56.38zm.67-2.09c.34 0 .67-.1.98-.3.32-.2.56-.48.72-.83v-1.71c-.15-.41-.41-.75-.75-1.01-.35-.26-.71-.4-1.08-.4-.27 0-.51.06-.74.18-.22.12-.42.28-.58.47-.17.2-.29.42-.38.68-.09.26-.13.53-.13.82 0 .3.05.58.15.84.1.26.23.48.4.67.17.19.38.33.62.43.25.11.51.16.79.16zM69.84 84.34c-.62 0-1.16-.13-1.63-.4s-.83-.63-1.1-1.11v1.35h-2.15V72.87h2.48v4.51c.27-.46.63-.83 1.08-1.09.45-.26.98-.4 1.59-.4.52 0 .99.11 1.43.33.43.22.81.52 1.12.91.31.38.55.83.73 1.36s.26 1.08.26 1.67-.1 1.14-.29 1.65c-.19.51-.46.96-.8 1.33s-.74.67-1.21.88a3.5 3.5 0 01-1.51.32zm-.69-2.09c.29 0 .55-.05.79-.16s.44-.26.61-.44a2.228 2.228 0 00.55-1.49c0-.29-.05-.57-.14-.83-.09-.26-.22-.49-.38-.69-.16-.2-.35-.35-.58-.46-.23-.12-.47-.18-.73-.18-.39 0-.75.13-1.08.4-.33.27-.58.6-.75 1.01v1.71c.17.35.41.63.72.83.32.2.64.3.99.3zM64 31.79c-7.01 0-12.29 2.93-12.29 6.83v17.59c0 3.89 5.28 6.83 12.29 6.83 7 0 12.29-2.94 12.29-6.83V38.62c0-3.9-5.29-6.83-12.29-6.83zm9.64 24.42c0 1.98-4.13 4.18-9.64 4.18-5.49 0-9.6-2.19-9.64-4.18v-1.52c2.22 1.55 5.73 2.49 9.64 2.49 3.97 0 7.44-.94 9.64-2.48v1.51zm0-4.22c-1.23 1.66-4.82 3.19-9.64 3.19-4.32 0-8.27-1.32-9.64-3.21v-3.4c2.19 1.53 5.66 2.51 9.64 2.51 3.98 0 7.45-.98 9.64-2.52v3.43zm0-6.12c-1.23 1.69-4.85 3.21-9.64 3.21-4.79 0-8.41-1.52-9.64-3.21v-2.92c2.21 1.55 5.64 2.5 9.64 2.5 3.99 0 7.43-.95 9.64-2.5v2.92zM64 42.8c-5.52 0-9.64-2.21-9.64-4.18 0-1.98 4.12-4.19 9.64-4.19 5.51 0 9.64 2.21 9.64 4.19 0 1.97-4.13 4.18-9.64 4.18z" class="st3"/></svg>