<svg xmlns="http://www.w3.org/2000/svg" id="Laag_1" x="0" y="0" version="1.1" viewBox="0 0 128 128" xml:space="preserve"><style>.st3{fill:#fff}</style><linearGradient id="SVGID_1_" x1="138.865" x2="139.365" y1="64" y2="64" gradientUnits="userSpaceOnUse"><stop offset="0" stop-color="#e96c5f"/><stop offset="1" stop-color="#ea5456"/></linearGradient><path fill="url(#SVGID_1_)" d="M128 0v93H93v35H0V0z"/><linearGradient id="SVGID_2_" x1="116.047" x2="89.797" y1="113.703" y2="98.547" gradientUnits="userSpaceOnUse"><stop offset="0" stop-color="#e58788"/><stop offset="1" stop-color="#fff"/></linearGradient><path fill="url(#SVGID_2_)" d="M128 93l-35 35V93z"/><linearGradient id="SVGID_3_" x1="57.9" x2="93" y1="110.55" y2="110.55" gradientUnits="userSpaceOnUse"><stop offset=".249" stop-color="#ea5456" stop-opacity=".1"/><stop offset=".376" stop-color="#b9645c" stop-opacity=".117"/><stop offset=".5" stop-color="#8e5f58" stop-opacity=".133"/><stop offset=".618" stop-color="#68504b" stop-opacity=".149"/><stop offset=".73" stop-color="#483d39" stop-opacity=".164"/><stop offset=".834" stop-color="#2e2927" stop-opacity=".178"/><stop offset=".927" stop-color="#110f0e" stop-opacity=".19"/><stop offset="1" stop-opacity=".2"/></linearGradient><path fill="url(#SVGID_3_)" d="M93 93l-35.1 35.1L93 128z"/><path d="M89.93 20.82H38.07c-1.54 0-2.79 1.25-2.79 2.78V87c0 1.53 1.25 2.78 2.79 2.78h51.86c1.54 0 2.79-1.25 2.79-2.78V23.6c0-1.53-1.25-2.78-2.79-2.78zm-51.65 3h51.44v44.2H38.28v-44.2zm51.44 62.96H38.28V71.02h51.44v15.76z" class="st3"/><path d="M55.1 84.34c-.56 0-1.07-.11-1.54-.32-.47-.21-.88-.51-1.22-.89a4.19 4.19 0 01-.8-1.34c-.19-.51-.29-1.07-.29-1.68 0-.59.09-1.14.26-1.66s.42-.96.74-1.34c.32-.38.7-.67 1.14-.89s.92-.33 1.45-.33c.57 0 1.08.13 1.54.4s.81.63 1.06 1.08v-4.51h2.48v8.53c0 .25.04.42.12.52.08.1.21.16.41.18v2.09c-.23.05-.42.08-.59.1-.17.02-.32.02-.47.02-.43 0-.79-.09-1.05-.27s-.42-.44-.46-.78l-.05-.42c-.29.51-.68.88-1.17 1.13s-1.01.38-1.56.38zm.66-2.09c.34 0 .67-.1.98-.3.32-.2.56-.48.72-.83v-1.71c-.15-.41-.41-.75-.75-1.01-.35-.26-.71-.4-1.08-.4-.27 0-.51.06-.74.18-.22.12-.42.28-.58.47-.17.2-.29.42-.38.68-.09.26-.13.53-.13.82 0 .3.05.58.15.84.1.26.23.48.4.67.17.19.38.33.62.43.25.11.51.16.79.16zM66.74 84.34c-.62 0-1.16-.13-1.63-.4-.47-.26-.83-.63-1.1-1.11v1.35h-2.15V72.87h2.48v4.51c.27-.46.63-.83 1.08-1.09.45-.26.98-.4 1.59-.4.52 0 .99.11 1.43.33.43.22.81.52 1.12.91.31.38.55.83.73 1.36s.26 1.08.26 1.67-.1 1.14-.29 1.65c-.19.51-.46.96-.8 1.33s-.74.67-1.21.88c-.48.22-.98.32-1.51.32zm-.7-2.09c.29 0 .55-.05.79-.16s.44-.26.61-.44a2.228 2.228 0 00.55-1.49c0-.29-.05-.57-.14-.83-.09-.26-.22-.49-.38-.69-.16-.2-.35-.35-.58-.46-.23-.12-.47-.18-.73-.18-.39 0-.75.13-1.08.4-.33.27-.58.6-.75 1.01v1.71c.17.35.41.63.72.83.32.2.65.3.99.3zM72.18 84.19v-5.6h-1.04v-1.88h1.04v-.67c0-.51.07-.97.2-1.38.13-.41.33-.76.57-1.05.25-.29.55-.51.9-.67.35-.16.74-.23 1.16-.23.66 0 1.37.16 2.12.48l-.45 1.86c-.17-.07-.35-.13-.55-.18-.2-.05-.39-.07-.57-.07-.61 0-.92.38-.92 1.15v.76h1.89v1.88h-1.89v5.6h-2.46zM61.04 28.99c-7.01 0-12.29 2.93-12.29 6.83v17.59c0 3.89 5.28 6.83 12.29 6.83 1.32 0 2.57-.1 3.74-.3a7.762 7.762 0 01-1.47-2.48c-.72.09-1.48.13-2.27.13-5.49 0-9.6-2.19-9.64-4.18v-1.52c2.22 1.55 5.73 2.49 9.64 2.49.61 0 1.21-.02 1.79-.07.04-.71.17-1.4.39-2.04-.69.07-1.42.11-2.18.11-4.32 0-8.27-1.32-9.64-3.21v-3.4c2.19 1.53 5.66 2.51 9.64 2.51 3.98 0 7.45-.98 9.64-2.52v1.12c.93 0 1.82.16 2.65.46V35.82c0-3.9-5.29-6.83-12.29-6.83zm9.64 14.08c-1.23 1.69-4.85 3.21-9.64 3.21-4.79 0-8.41-1.52-9.64-3.21v-2.92c2.21 1.55 5.64 2.5 9.64 2.5 3.99 0 7.43-.95 9.64-2.5v2.92zM61.04 40c-5.52 0-9.64-2.21-9.64-4.18 0-1.98 4.12-4.19 9.64-4.19 5.51 0 9.64 2.21 9.64 4.19 0 1.97-4.13 4.18-9.64 4.18z" class="st3"/><path d="M74.77 59.19a2.123 2.123 0 011.65-2.6c.18-.55.28-1.11.3-1.69-.24-.15-.45-.34-.62-.58-.53-.75-.51-1.72-.02-2.44-.14-.29-.31-.58-.51-.85a7.79 7.79 0 00-.51-.63 2.13 2.13 0 01-2.32-.82c-.19-.27-.32-.58-.37-.89-.52-.17-1.06-.26-1.6-.29-.15.31-.38.58-.67.79-.79.56-1.83.51-2.56-.07-.24.13-.47.27-.69.43-.22.16-.43.32-.62.5.31.87.01 1.88-.78 2.44-.3.21-.63.34-.97.38-.16.53-.24 1.09-.26 1.64.3.15.56.37.77.66.54.76.51 1.75 0 2.47.12.21.24.42.39.62.18.25.37.49.58.7a2.127 2.127 0 012.65 1.64c.56.18 1.14.27 1.73.28.15-.25.35-.48.6-.66.74-.52 1.69-.51 2.4-.04.25-.13.5-.28.74-.45.26-.16.48-.35.69-.54zm-6.79-2.77c-.98-1.38-.66-3.3.73-4.28 1.38-.98 3.3-.66 4.28.73.98 1.38.66 3.3-.73 4.28-1.38.98-3.3.65-4.28-.73zM81.83 60a.874.874 0 01-.48-.88c.01-.13.05-.25.11-.35-.12-.21-.27-.39-.45-.56-.11.03-.23.05-.35.04a.888.888 0 01-.77-.66c-.13-.03-.27-.06-.41-.07-.11-.01-.23-.01-.34-.01-.16.33-.51.55-.89.51a.821.821 0 01-.38-.13c-.19.12-.37.26-.53.42.06.13.08.28.06.43-.04.4-.34.72-.72.79-.03.11-.04.22-.05.33-.01.11-.01.22-.01.33.36.14.6.51.56.91a.85.85 0 01-.15.41c.13.2.28.37.45.53.13-.05.27-.07.42-.06.39.04.69.32.78.68.1.02.2.04.3.05.13.01.26.02.38.01.16-.33.51-.54.89-.5.13.01.25.05.36.11.21-.13.4-.29.56-.47-.04-.12-.05-.24-.04-.37.04-.38.3-.67.64-.77.03-.12.05-.23.06-.36 0-.12.01-.24 0-.36zm-2.73 1.39c-.7-.07-1.22-.7-1.15-1.4.07-.7.7-1.22 1.4-1.15.7.07 1.22.7 1.15 1.4-.07.7-.7 1.22-1.4 1.15z" class="st3"/></svg>