<svg xmlns="http://www.w3.org/2000/svg" id="Laag_1" x="0" y="0" version="1.1" viewBox="0 0 128 128" xml:space="preserve"><style>.st3{fill:#fff}</style><linearGradient id="SVGID_1_" x1="138.865" x2="139.365" y1="64" y2="64" gradientUnits="userSpaceOnUse"><stop offset="0" stop-color="#e96c5f"/><stop offset="1" stop-color="#ea5456"/></linearGradient><path fill="url(#SVGID_1_)" d="M128 0v93H93v35H0V0z"/><linearGradient id="SVGID_2_" x1="116.047" x2="89.797" y1="113.703" y2="98.547" gradientUnits="userSpaceOnUse"><stop offset="0" stop-color="#e58788"/><stop offset="1" stop-color="#fff"/></linearGradient><path fill="url(#SVGID_2_)" d="M128 93l-35 35V93z"/><linearGradient id="SVGID_3_" x1="57.9" x2="93" y1="110.55" y2="110.55" gradientUnits="userSpaceOnUse"><stop offset=".249" stop-color="#ea5456" stop-opacity=".1"/><stop offset=".376" stop-color="#b9645c" stop-opacity=".117"/><stop offset=".5" stop-color="#8e5f58" stop-opacity=".133"/><stop offset=".618" stop-color="#68504b" stop-opacity=".149"/><stop offset=".73" stop-color="#483d39" stop-opacity=".164"/><stop offset=".834" stop-color="#2e2927" stop-opacity=".178"/><stop offset=".927" stop-color="#110f0e" stop-opacity=".19"/><stop offset="1" stop-opacity=".2"/></linearGradient><path fill="url(#SVGID_3_)" d="M93 93l-35.1 35.1L93 128z"/><path d="M55.17 83.63c-.5 0-.97-.1-1.39-.29a3.35 3.35 0 01-1.1-.8c-.31-.34-.55-.75-.72-1.21s-.26-.97-.26-1.52c0-.53.08-1.03.24-1.5s.38-.87.67-1.21c.29-.34.63-.61 1.03-.81.4-.2.83-.29 1.31-.29.51 0 .98.12 1.39.36.42.24.73.57.96.98v-4.07h2.24v7.7c0 .22.04.38.1.47.07.09.19.14.37.16v1.89c-.21.05-.38.08-.53.09-.15.01-.29.02-.42.02-.39 0-.71-.08-.95-.25-.24-.16-.38-.4-.42-.71l-.04-.38c-.26.46-.61.8-1.06 1.02-.44.24-.91.35-1.42.35zm.6-1.89c.31 0 .6-.09.89-.27.28-.18.5-.43.65-.75v-1.54c-.14-.37-.37-.68-.68-.92-.31-.24-.64-.36-.97-.36-.24 0-.46.05-.67.16s-.38.25-.52.43c-.15.18-.26.38-.34.62-.08.23-.12.48-.12.74 0 .27.04.52.13.76s.21.43.36.6c.15.17.34.3.56.39.23.09.46.14.71.14zM64.33 83.63c-.5 0-.97-.1-1.39-.29a3.35 3.35 0 01-1.1-.8c-.31-.34-.55-.75-.72-1.21s-.26-.97-.26-1.52c0-.53.08-1.03.24-1.5s.38-.87.67-1.21c.29-.34.63-.61 1.03-.81.4-.2.83-.29 1.31-.29.51 0 .98.12 1.39.36.42.24.73.57.96.98v-4.07h2.24v7.7c0 .22.04.38.11.47s.19.14.37.16v1.89c-.21.05-.38.08-.53.09-.15.01-.29.02-.42.02-.39 0-.71-.08-.95-.25-.24-.16-.38-.4-.42-.71l-.04-.38c-.26.46-.61.8-1.06 1.02-.45.24-.93.35-1.43.35zm.6-1.89c.31 0 .6-.09.89-.27.29-.18.5-.43.65-.75v-1.54c-.14-.37-.37-.68-.68-.92-.31-.24-.64-.36-.97-.36-.24 0-.46.05-.67.16s-.38.25-.52.43c-.15.18-.26.38-.34.62-.08.23-.12.48-.12.74 0 .27.04.52.13.76s.21.43.36.6c.15.17.34.3.56.39.22.09.46.14.71.14zM73.33 83.63c-.63 0-1.24-.1-1.85-.3-.61-.2-1.12-.49-1.54-.88l.8-1.37c.45.31.88.55 1.31.71.42.17.83.25 1.22.25.29 0 .51-.05.67-.15.16-.1.24-.25.24-.45s-.1-.35-.3-.47c-.2-.12-.55-.24-1.06-.37-.5-.14-.91-.28-1.25-.41s-.62-.28-.83-.43c-.21-.16-.37-.34-.46-.55-.09-.21-.14-.45-.14-.73 0-.37.07-.71.22-1.02.15-.31.35-.57.62-.78.26-.21.57-.38.93-.5s.75-.18 1.17-.18c.55 0 1.07.08 1.55.22s.95.42 1.39.81l-.87 1.34c-.42-.29-.79-.5-1.12-.63-.33-.13-.64-.2-.95-.2-.24 0-.45.05-.62.15s-.25.25-.25.47c0 .21.09.36.27.46.18.1.52.21 1.01.34.52.14.96.28 1.32.42.36.14.65.3.88.47s.39.37.49.59c.1.22.15.49.15.8 0 .73-.27 1.31-.81 1.74-.53.43-1.27.65-2.19.65z" class="st3"/><path d="M89.93 20.82H38.07c-1.54 0-2.79 1.25-2.79 2.78V87c0 1.53 1.25 2.78 2.79 2.78h51.86c1.54 0 2.79-1.25 2.79-2.78V23.6c0-1.53-1.25-2.78-2.79-2.78zm-51.65 3h51.44v44.2H38.28v-44.2zm51.44 62.96H38.28V71.02h51.44v15.76z" class="st3"/><path d="M46.06 58.94h35.73c.93 0 1.5-1.01 1.02-1.81l-7.45-12.41a.51.51 0 00-.72-.16l-8.66 5.78c-.25.17-.59.08-.73-.18l-8.92-16.79c-.2-.38-.75-.35-.92.04L45.1 57.48c-.3.69.21 1.46.96 1.46z" class="st3"/><circle cx="70.39" cy="36.57" r="3.67" class="st3"/></svg>