<svg xmlns="http://www.w3.org/2000/svg" id="Laag_1" x="0" y="0" version="1.1" viewBox="0 0 128 128" xml:space="preserve"><style>.st3{fill:#fff}</style><linearGradient id="SVGID_1_" x1="138.865" x2="139.365" y1="64" y2="64" gradientUnits="userSpaceOnUse"><stop offset="0" stop-color="#e96c5f"/><stop offset="1" stop-color="#ea5456"/></linearGradient><path fill="url(#SVGID_1_)" d="M128 0v93H93v35H0V0z"/><linearGradient id="SVGID_2_" x1="116.047" x2="89.797" y1="113.703" y2="98.547" gradientUnits="userSpaceOnUse"><stop offset="0" stop-color="#e58788"/><stop offset="1" stop-color="#fff"/></linearGradient><path fill="url(#SVGID_2_)" d="M128 93l-35 35V93z"/><linearGradient id="SVGID_3_" x1="57.9" x2="93" y1="110.55" y2="110.55" gradientUnits="userSpaceOnUse"><stop offset=".249" stop-color="#ea5456" stop-opacity=".1"/><stop offset=".376" stop-color="#b9645c" stop-opacity=".117"/><stop offset=".5" stop-color="#8e5f58" stop-opacity=".133"/><stop offset=".618" stop-color="#68504b" stop-opacity=".149"/><stop offset=".73" stop-color="#483d39" stop-opacity=".164"/><stop offset=".834" stop-color="#2e2927" stop-opacity=".178"/><stop offset=".927" stop-color="#110f0e" stop-opacity=".19"/><stop offset="1" stop-opacity=".2"/></linearGradient><path fill="url(#SVGID_3_)" d="M93 93l-35.1 35.1L93 128z"/><path d="M89.93 20.82H38.07c-1.54 0-2.79 1.25-2.79 2.78V87c0 1.53 1.25 2.78 2.79 2.78h51.86c1.54 0 2.79-1.25 2.79-2.78V23.6c0-1.53-1.25-2.78-2.79-2.78zm-51.65 3h51.44v44.2H38.28v-44.2zm51.44 62.96H38.28V71.02h51.44v15.76z" class="st3"/><path d="M55.5 82.94c-.68 0-1.29-.11-1.84-.33-.54-.22-1-.52-1.38-.91-.38-.38-.66-.82-.86-1.33s-.29-1.03-.29-1.57c0-.59.1-1.14.29-1.67.2-.52.48-.98.85-1.37.37-.39.83-.7 1.37-.93.54-.23 1.16-.34 1.85-.34s1.31.11 1.84.34c.54.23.99.53 1.36.92s.65.83.84 1.34c.19.51.29 1.04.29 1.6 0 .14 0 .29-.02.43s-.03.26-.05.36h-6.01c.04.55.24.96.6 1.25s.76.43 1.22.43c.36 0 .71-.09 1.05-.26.33-.18.56-.41.67-.71l2.11.59c-.32.64-.82 1.16-1.49 1.57-.66.39-1.46.59-2.4.59zm1.72-4.99c-.05-.52-.24-.92-.56-1.22s-.72-.45-1.19-.45c-.49 0-.89.15-1.2.46s-.5.71-.55 1.22h3.5zM62.4 74.65l1.47 2.29.15.29.16-.29 1.46-2.29h2.54l-2.82 4.08 2.88 4.06H65.7l-1.53-2.28-.14-.29-.14.29-1.53 2.28h-2.54l2.88-4.06-2.82-4.08h2.52zM72.63 82.94c-.68 0-1.29-.11-1.84-.33-.54-.22-1-.52-1.38-.91-.38-.38-.66-.82-.86-1.33s-.29-1.03-.29-1.57c0-.59.1-1.14.29-1.67.2-.52.48-.98.85-1.37.37-.39.83-.7 1.37-.93.54-.23 1.16-.34 1.85-.34s1.31.11 1.84.34c.54.23.99.53 1.36.92s.65.83.84 1.34c.19.51.29 1.04.29 1.6 0 .14 0 .29-.02.43s-.03.26-.05.36h-6.01c.04.55.24.96.6 1.25s.76.43 1.22.43c.36 0 .71-.09 1.05-.26.33-.18.56-.41.67-.71l2.11.59c-.32.64-.82 1.16-1.49 1.57-.66.39-1.46.59-2.4.59zm1.72-4.99c-.05-.52-.24-.92-.56-1.22s-.72-.45-1.19-.45c-.49 0-.89.15-1.2.46s-.5.71-.55 1.22h3.5zM72.23 47.86a4.638 4.638 0 01-.14-5.24c.37-.57.83-1.03 1.37-1.37-.08-1.25-.34-2.48-.76-3.66-.6-.1-1.18-.32-1.72-.67A4.653 4.653 0 0168.96 32c-.53-.48-1.1-.91-1.72-1.31-.5-.32-1.01-.61-1.54-.86a4.658 4.658 0 01-5.36.23c-.62-.4-1.11-.92-1.46-1.51-1.18.09-2.35.33-3.47.71a4.64 4.64 0 01-5.95 4.08c-.38.44-.73.92-1.05 1.42-.32.5-.6 1-.85 1.52a4.638 4.638 0 01.4 5.57c-.43.67-1.01 1.2-1.66 1.56.11 1.21.39 2.4.81 3.54a4.648 4.648 0 014.09 5.72 13.524 13.524 0 003.03 1.88 4.661 4.661 0 015.33-.21c.57.37 1.04.84 1.38 1.38 1.28-.1 2.54-.38 3.74-.84.09-.63.32-1.25.69-1.82a4.643 4.643 0 014.83-2.04c.4-.47.78-.98 1.13-1.51.33-.53.64-1.08.9-1.65zm-15.99-.09c-3.11-2-4-6.14-2-9.25 2-3.11 6.14-4 9.25-2a6.68 6.68 0 012 9.25c-2.01 3.11-6.15 4-9.25 2zM80.52 58.01c-.61-.31-1.01-.98-.93-1.71.02-.25.1-.48.22-.69-.24-.4-.53-.76-.87-1.08-.21.07-.45.09-.68.07-.74-.07-1.32-.6-1.5-1.28-.26-.07-.52-.11-.79-.14-.22-.02-.44-.03-.65-.02-.3.64-.98 1.06-1.73.98-.27-.03-.52-.11-.74-.25-.38.23-.72.51-1.03.82.11.25.15.54.12.83-.08.78-.66 1.39-1.4 1.53-.05.21-.08.43-.11.65-.02.22-.03.43-.02.65.7.28 1.15.99 1.08 1.77-.03.3-.13.57-.29.8.24.38.53.73.87 1.03.25-.1.53-.14.81-.12.75.07 1.34.62 1.51 1.31.19.04.38.07.58.09.25.02.5.03.74.02.3-.64.98-1.04 1.72-.97.25.02.49.1.69.22.41-.25.77-.56 1.09-.91-.08-.22-.11-.47-.08-.72.07-.73.59-1.31 1.25-1.49.05-.22.09-.45.12-.69.02-.23.03-.46.02-.7zm-5.3 2.69a2.484 2.484 0 01-2.23-2.72 2.484 2.484 0 012.72-2.23c1.37.13 2.36 1.35 2.23 2.72a2.497 2.497 0 01-2.72 2.23z" class="st3"/></svg>