<svg xmlns="http://www.w3.org/2000/svg" id="Laag_1" x="0" y="0" version="1.1" viewBox="0 0 128 128" xml:space="preserve"><style>.st3{fill:#fff}</style><linearGradient id="SVGID_1_" x1="138.865" x2="139.365" y1="64" y2="64" gradientUnits="userSpaceOnUse"><stop offset="0" stop-color="#e96c5f"/><stop offset="1" stop-color="#ea5456"/></linearGradient><path fill="url(#SVGID_1_)" d="M128 0v93H93v35H0V0z"/><linearGradient id="SVGID_2_" x1="116.047" x2="89.797" y1="113.703" y2="98.547" gradientUnits="userSpaceOnUse"><stop offset="0" stop-color="#e58788"/><stop offset="1" stop-color="#fff"/></linearGradient><path fill="url(#SVGID_2_)" d="M128 93l-35 35V93z"/><linearGradient id="SVGID_3_" x1="57.9" x2="93" y1="110.55" y2="110.55" gradientUnits="userSpaceOnUse"><stop offset=".249" stop-color="#ea5456" stop-opacity=".1"/><stop offset=".376" stop-color="#b9645c" stop-opacity=".117"/><stop offset=".5" stop-color="#8e5f58" stop-opacity=".133"/><stop offset=".618" stop-color="#68504b" stop-opacity=".149"/><stop offset=".73" stop-color="#483d39" stop-opacity=".164"/><stop offset=".834" stop-color="#2e2927" stop-opacity=".178"/><stop offset=".927" stop-color="#110f0e" stop-opacity=".19"/><stop offset="1" stop-opacity=".2"/></linearGradient><path fill="url(#SVGID_3_)" d="M93 93l-35.1 35.1L93 128z"/><path d="M55.96 75.11v-2.25h2.48v2.25h-2.48zm0 9.06v-8.14h2.48v8.14h-2.48zM68.39 74.79c-.34 0-.59.11-.74.33-.15.22-.23.49-.23.82v.76h1.97v1.88h-1.97v5.6h-2.48v-5.6h-1.78v5.6h-2.48v-5.6h-1.04V76.7h1.04v-.26c0-.46.07-.89.2-1.29s.33-.73.57-1.01c.25-.28.55-.5.91-.66.36-.16.76-.24 1.22-.24.33 0 .67.04 1.02.12.35.08.71.19 1.07.33.25-.3.55-.54.92-.72.37-.18.8-.27 1.29-.27.36 0 .71.05 1.05.14.34.09.68.21 1.01.34l-.45 1.86c-.16-.06-.33-.12-.52-.17s-.38-.08-.58-.08zm-3.45 1.91v-.22c0-.11 0-.24.01-.37 0-.13.01-.26.02-.38s.02-.19.03-.21a2.576 2.576 0 00-.92-.19c-.33 0-.57.09-.71.28-.15.19-.22.43-.22.74v.34h1.79z" class="st3"/><path d="M89.93 20.82H38.07c-1.54 0-2.79 1.25-2.79 2.78V87c0 1.53 1.25 2.78 2.79 2.78h51.86c1.54 0 2.79-1.25 2.79-2.78V23.6c0-1.53-1.25-2.78-2.79-2.78zm-51.65 3h51.44v44.2H38.28v-44.2zm51.44 62.96H38.28V71.02h51.44v15.76z" class="st3"/><path d="M75.57 45.45c-.42-6.02-5.44-11.04-11.57-11.04s-11.15 5.02-11.57 11.05c-1 .03-1.8.6-1.8 1.61v9.33c0 1.03.84 1.04 1.87 1.04h1.66c1.03 0 1.87-.01 1.87-1.04v-9.33c0-.98-.76-1.53-1.72-1.6.41-5 4.6-9.19 9.7-9.19s9.29 4.19 9.7 9.19c-.96.07-1.72.62-1.72 1.6v9.33c0 1.03.84 1.04 1.87 1.04h1.66c1.03 0 1.87-.01 1.87-1.04v-9.33c-.02-1.02-.82-1.58-1.82-1.62z" class="st3"/><path d="M67.58 46c-2.63-1.93-3.55-2.85-3.87-3.24a.493.493 0 00-.6-.14.78.78 0 00-.42.52c-.01.02-.01.04-.01.06v12.97c0 .17-.16.31-.32.27-.51-.12-1.08-.11-1.66.03-1.57.39-2.6 1.69-2.3 2.9.18 1.12 1.82 1.87 3.4 1.47 1.38-.34 2.35-1.39 2.35-2.46l.03-12.4c0-.16.14-.29.3-.27.87.09 3.41.64 5.17 4.08.01 0 .05-2.24-2.07-3.79z" class="st3"/></svg>