<svg xmlns="http://www.w3.org/2000/svg" id="Laag_1" x="0" y="0" version="1.1" viewBox="0 0 128 128" xml:space="preserve"><style>.st3{fill:#fff}</style><linearGradient id="SVGID_1_" x1="138.865" x2="139.365" y1="64" y2="64" gradientUnits="userSpaceOnUse"><stop offset="0" stop-color="#e96c5f"/><stop offset="1" stop-color="#ea5456"/></linearGradient><path fill="url(#SVGID_1_)" d="M128 0v93H93v35H0V0z"/><linearGradient id="SVGID_2_" x1="116.047" x2="89.797" y1="113.703" y2="98.547" gradientUnits="userSpaceOnUse"><stop offset="0" stop-color="#e58788"/><stop offset="1" stop-color="#fff"/></linearGradient><path fill="url(#SVGID_2_)" d="M128 93l-35 35V93z"/><linearGradient id="SVGID_3_" x1="57.9" x2="93" y1="110.55" y2="110.55" gradientUnits="userSpaceOnUse"><stop offset=".249" stop-color="#ea5456" stop-opacity=".1"/><stop offset=".376" stop-color="#b9645c" stop-opacity=".117"/><stop offset=".5" stop-color="#8e5f58" stop-opacity=".133"/><stop offset=".618" stop-color="#68504b" stop-opacity=".149"/><stop offset=".73" stop-color="#483d39" stop-opacity=".164"/><stop offset=".834" stop-color="#2e2927" stop-opacity=".178"/><stop offset=".927" stop-color="#110f0e" stop-opacity=".19"/><stop offset="1" stop-opacity=".2"/></linearGradient><path fill="url(#SVGID_3_)" d="M93 93l-35.1 35.1L93 128z"/><path d="M89.72 20.82H37.86c-1.54 0-2.79 1.25-2.79 2.78V87c0 1.53 1.25 2.78 2.79 2.78h51.86c1.54 0 2.79-1.25 2.79-2.78V23.6c0-1.53-1.25-2.78-2.79-2.78zm-51.65 3h51.44v44.2H38.07v-44.2zm51.44 62.96H38.07V71.02h51.44v15.76z" class="st3"/><path d="M77.88 53.35c-.08-.83-.52-1.5-1.37-2.08-3.86-2.68-7.71-5.36-11.57-8.03-.03-3.11-1.3-5.49-4-6.99-2.71-1.51-6.22-1.13-8.57.91-.27.23-.53.49-.79.73l-.97 1.39c-.02.07-.04.14-.07.2-.36.7-.59 1.43-.73 2.21-.5 2.71.7 6.3 3.85 7.94 1.66.87 3.42 1.03 5.22.65.8-.17 1.58-.48 2.39-.73.26.45.57 1.01.85 1.52.02.03.05.04.08.04.56-.1 1.11-.17 1.7-.27.13.55.24 1.07.4 1.56.52-.05 1.06-.16 1.58-.27.02.03.04.04.04.06.11.5.17 1 .35 1.49.54-.01 1.07-.17 1.53-.27.06.08.06.09.06.1.1.52.19 1.05.31 1.54.55-.07 1.02-.17 1.65-.3.09.58.12 1.05.29 1.59.53 0 .98-.12 1.51-.25.01.3.02.53.04.76.03.49.38.73.84.58.25-.08.5-.16.74-.26.19-.08.36-.07.55.02.76.37 1.49.28 2.19-.18.11-.08.23-.16.35-.23l.93-1.33c.28-.5.62-1.69.62-2.1zM54.37 43.03a1.73 1.73 0 01-.41-2.44c.56-.8 1.64-.98 2.44-.42.78.56.98 1.68.42 2.45-.56.79-1.66.97-2.45.41zM57.56 82.87l-1.99-3.06-.81.84v2.22h-2.32V72.29h2.32v6.13l2.57-3.16h2.46l-2.74 3.28 2.97 4.33h-2.46z" class="st3"/><path d="M63.94 83.02c-.64 0-1.21-.1-1.72-.31s-.94-.49-1.29-.85-.62-.77-.8-1.24c-.18-.47-.28-.96-.28-1.47 0-.55.09-1.07.28-1.56s.45-.92.8-1.28c.35-.37.78-.66 1.28-.87.51-.21 1.08-.32 1.73-.32.65 0 1.22.11 1.73.32.5.21.93.5 1.28.86s.61.78.79 1.25c.18.47.27.97.27 1.49 0 .14 0 .27-.01.4s-.02.24-.04.34h-5.63c.04.51.22.9.56 1.17s.71.4 1.14.4c.34 0 .66-.08.98-.25s.52-.39.63-.67l1.97.55c-.3.6-.76 1.09-1.39 1.46-.65.39-1.4.58-2.28.58zm1.61-4.67c-.05-.48-.22-.87-.52-1.15s-.67-.42-1.12-.42c-.45 0-.83.14-1.12.43s-.47.67-.51 1.14h3.27zM68.91 84.02c.19.07.37.12.54.15.17.03.32.04.46.04.28 0 .5-.1.65-.29.16-.19.29-.54.42-1.04l-2.9-7.61h2.39l1.77 5.63 1.52-5.63h2.17l-2.9 8.84c-.2.63-.57 1.14-1.09 1.53-.52.39-1.14.59-1.86.59-.19 0-.39-.02-.59-.05s-.4-.09-.6-.17v-1.99z" class="st3"/></svg>