<svg xmlns="http://www.w3.org/2000/svg" id="Laag_1" x="0" y="0" version="1.1" viewBox="0 0 128 128" xml:space="preserve"><style>.st3,.st4{fill:#fff}.st4{stroke:#fff;stroke-width:3;stroke-miterlimit:10}</style><linearGradient id="SVGID_1_" x1="138.865" x2="139.365" y1="64" y2="64" gradientUnits="userSpaceOnUse"><stop offset="0" stop-color="#e96c5f"/><stop offset="1" stop-color="#ea5456"/></linearGradient><path fill="url(#SVGID_1_)" d="M128 0v93H93v35H0V0z"/><linearGradient id="SVGID_2_" x1="116.047" x2="89.797" y1="113.703" y2="98.547" gradientUnits="userSpaceOnUse"><stop offset="0" stop-color="#e58788"/><stop offset="1" stop-color="#fff"/></linearGradient><path fill="url(#SVGID_2_)" d="M128 93l-35 35V93z"/><linearGradient id="SVGID_3_" x1="57.9" x2="93" y1="110.55" y2="110.55" gradientUnits="userSpaceOnUse"><stop offset=".249" stop-color="#ea5456" stop-opacity=".1"/><stop offset=".376" stop-color="#b9645c" stop-opacity=".117"/><stop offset=".5" stop-color="#8e5f58" stop-opacity=".133"/><stop offset=".618" stop-color="#68504b" stop-opacity=".149"/><stop offset=".73" stop-color="#483d39" stop-opacity=".164"/><stop offset=".834" stop-color="#2e2927" stop-opacity=".178"/><stop offset=".927" stop-color="#110f0e" stop-opacity=".19"/><stop offset="1" stop-opacity=".2"/></linearGradient><path fill="url(#SVGID_3_)" d="M93 93l-35.1 35.1L93 128z"/><path d="M89.93 20.82H38.07c-1.54 0-2.79 1.25-2.79 2.78V87c0 1.53 1.25 2.78 2.79 2.78h51.86c1.54 0 2.79-1.25 2.79-2.78V23.6c0-1.53-1.25-2.78-2.79-2.78zm-51.65 3h51.44v44.2H38.28v-44.2zm51.44 62.96H38.28V71.02h51.44v15.76zM43.38 35h40.93" class="st3"/><path d="M43.38 33.5h40.93v3H43.38z" class="st3"/><path d="M43.38 45.72h40.93M43.38 54.93h40.93" class="st4"/><path d="M53.13 72.19h2.32v7.87c0 .58.25.87.74.87.12 0 .24-.02.38-.05.14-.03.27-.08.38-.15l.3 1.74c-.29.14-.62.24-1 .32s-.73.12-1.06.12c-.67 0-1.18-.17-1.54-.52-.36-.35-.54-.85-.54-1.51v-8.69zM61.64 82.92c-.65 0-1.23-.11-1.73-.32a3.653 3.653 0 01-2.07-2.12c-.18-.48-.27-.98-.27-1.5s.09-1.02.27-1.5.44-.9.79-1.26c.35-.36.78-.65 1.28-.87.51-.22 1.08-.33 1.73-.33s1.22.11 1.73.33c.5.22.93.51 1.28.87s.61.78.8 1.26.28.98.28 1.5-.09 1.02-.27 1.5c-.18.48-.44.9-.79 1.26-.35.36-.78.65-1.28.86-.53.21-1.11.32-1.75.32zm-1.7-3.95c0 .6.16 1.08.48 1.44s.73.54 1.22.54c.24 0 .46-.05.67-.14.2-.1.38-.23.53-.41s.27-.38.36-.63.13-.51.13-.8c0-.6-.16-1.08-.48-1.44s-.72-.54-1.2-.54c-.24 0-.47.05-.67.15s-.39.23-.54.41c-.15.17-.27.38-.36.63-.1.24-.14.5-.14.79zM69.81 82.8c-.5 0-.96-.1-1.38-.3-.42-.2-.77-.48-1.07-.83-.29-.35-.52-.75-.69-1.22-.17-.46-.25-.96-.25-1.49 0-.56.09-1.08.26-1.56s.42-.89.72-1.25c.31-.35.68-.63 1.12-.83.44-.2.91-.3 1.44-.3.58 0 1.08.12 1.52.37.43.25.78.59 1.04 1.02v-1.25h2.02v7.09c0 .58-.11 1.1-.33 1.57-.21.46-.51.85-.9 1.18s-.85.57-1.39.75c-.54.17-1.14.26-1.79.26-.82 0-1.52-.13-2.1-.39-.58-.26-1.09-.64-1.52-1.13l1.25-1.26c.28.32.63.57 1.04.76.42.19.86.28 1.33.28.28 0 .55-.04.8-.12.25-.08.47-.2.67-.36.19-.16.35-.37.46-.62s.17-.56.17-.92v-.74c-.23.43-.56.75-1 .96-.44.22-.91.33-1.42.33zm.8-1.84c.36 0 .68-.1.96-.3.28-.2.5-.45.65-.76v-1.59c-.15-.41-.39-.73-.71-.96-.32-.24-.66-.36-1.02-.36-.25 0-.48.06-.69.17-.21.11-.39.26-.54.45-.15.19-.27.41-.35.65-.08.25-.12.5-.12.76 0 .28.04.54.14.78.09.24.22.44.38.62.16.17.35.31.57.41.23.08.47.13.73.13z" class="st3"/></svg>