<svg xmlns="http://www.w3.org/2000/svg" id="Laag_1" x="0" y="0" version="1.1" viewBox="0 0 128 128" xml:space="preserve"><style>.st3{fill:#fff}</style><linearGradient id="SVGID_1_" x1="138.865" x2="139.365" y1="64" y2="64" gradientUnits="userSpaceOnUse"><stop offset="0" stop-color="#e96c5f"/><stop offset="1" stop-color="#ea5456"/></linearGradient><path fill="url(#SVGID_1_)" d="M128 0v93H93v35H0V0z"/><linearGradient id="SVGID_2_" x1="116.047" x2="89.797" y1="113.703" y2="98.547" gradientUnits="userSpaceOnUse"><stop offset="0" stop-color="#e58788"/><stop offset="1" stop-color="#fff"/></linearGradient><path fill="url(#SVGID_2_)" d="M128 93l-35 35V93z"/><linearGradient id="SVGID_3_" x1="57.9" x2="93" y1="110.55" y2="110.55" gradientUnits="userSpaceOnUse"><stop offset=".249" stop-color="#ea5456" stop-opacity=".1"/><stop offset=".376" stop-color="#b9645c" stop-opacity=".117"/><stop offset=".5" stop-color="#8e5f58" stop-opacity=".133"/><stop offset=".618" stop-color="#68504b" stop-opacity=".149"/><stop offset=".73" stop-color="#483d39" stop-opacity=".164"/><stop offset=".834" stop-color="#2e2927" stop-opacity=".178"/><stop offset=".927" stop-color="#110f0e" stop-opacity=".19"/><stop offset="1" stop-opacity=".2"/></linearGradient><path fill="url(#SVGID_3_)" d="M93 93l-35.1 35.1L93 128z"/><path d="M61.72 83.59h-2.48v-4.57c0-.54-.1-.93-.29-1.17a.942.942 0 00-.76-.36c-.17 0-.33.04-.5.11s-.33.17-.47.3c-.15.13-.28.28-.4.46s-.21.37-.29.57v4.67h-2.48v-4.57c0-.54-.1-.93-.29-1.17a.942.942 0 00-.76-.36c-.33 0-.65.13-.97.4-.32.26-.55.61-.69 1.05v4.67h-2.48v-8.14h2.23v1.36c.3-.5.71-.87 1.22-1.13.51-.26 1.11-.39 1.79-.39.34 0 .64.04.89.12.25.08.47.2.66.34s.34.31.45.5c.11.19.2.4.25.61.31-.51.72-.9 1.22-1.17.51-.27 1.08-.41 1.74-.41.52 0 .93.1 1.25.29.31.19.56.44.74.74.18.3.29.64.35 1s.08.71.08 1.05v5.2zM65.66 83.74c-.4 0-.78-.06-1.12-.19-.35-.13-.64-.31-.89-.54s-.44-.51-.59-.82c-.15-.32-.22-.66-.22-1.03 0-.4.09-.77.26-1.1.17-.33.41-.61.72-.85s.68-.42 1.1-.56c.42-.13.89-.2 1.41-.2.34 0 .67.03.99.09s.6.14.84.26v-.37c0-.94-.54-1.41-1.63-1.41-.44 0-.87.08-1.27.23-.4.15-.83.37-1.27.67l-.73-1.55c.54-.35 1.1-.62 1.67-.79.58-.17 1.19-.26 1.84-.26 1.23 0 2.18.29 2.85.87.67.58 1.01 1.43 1.01 2.54v2.09c0 .25.04.42.12.52.08.1.21.16.41.18v2.09c-.22.05-.41.08-.59.1-.18.02-.34.02-.48.02-.47 0-.82-.09-1.05-.27-.24-.18-.39-.44-.45-.77l-.05-.37c-.36.46-.79.82-1.29 1.07s-1.03.35-1.59.35zm.73-1.78c.27 0 .53-.05.78-.14.25-.09.46-.22.63-.37.24-.19.36-.38.36-.59v-.78c-.22-.08-.45-.15-.71-.19-.25-.05-.49-.07-.71-.07-.46 0-.83.1-1.12.31-.29.21-.44.47-.44.81 0 .3.11.54.34.74s.52.28.87.28zM74.15 75.45l1.47 2.29.15.29.16-.29 1.46-2.29h2.54l-2.82 4.08L80 83.59h-2.54l-1.53-2.28-.14-.29-.14.29-1.53 2.28h-2.54l2.88-4.06-2.82-4.08h2.51z" class="st3"/><path d="M89.93 20.82H38.07c-1.54 0-2.79 1.25-2.79 2.78V87c0 1.53 1.25 2.78 2.79 2.78h51.86c1.54 0 2.79-1.25 2.79-2.78V23.6c0-1.53-1.25-2.78-2.79-2.78zm-51.65 3h51.44v44.2H38.28v-44.2zm51.44 62.96H38.28V71.02h51.44v15.76z" class="st3"/><path d="M82.23 49.39l-8.42-4.61v-8.16h-.06l.12-.07-9.69-4.84-9.5 5.05.08.04v7.96l-9 4.63.02.01V59l9.71 5 8.71-4.07 8.87 3.76 9.13-4.42v-9.82h-.08l.11-.06zM54.77 61.94l-7.48-3.85v-7.9l7.48 3.94v7.81zM49.01 49.4l6.51-3.35 6.74 3.3-6.74 3.47-6.51-3.42zm14.44 9.24l-7.18 3.35v-7.86l7.18-3.7v8.21zm0-10.36l-7.18-3.52v-7.13l7.18 3.94v6.71zm.74-8.02l-6.36-3.49 6.37-3.39 6.48 3.24-6.49 3.64zm8.13-2.84v7.31l-7.37 3.39v-6.56l7.37-4.14zm-7.37 21.2v-8.04l7.37 3.47v7.69l-7.37-3.12zm8.08-5.88l-7.18-3.39 7.18-3.3 6.09 3.34-6.09 3.35zm7.7 5.59l-6.91 3.35v-7.66l6.91-3.79v8.1z" class="st3"/></svg>