<svg xmlns="http://www.w3.org/2000/svg" id="Laag_1" x="0" y="0" version="1.1" viewBox="0 0 128 128" xml:space="preserve"><style>.st3{fill:#fff}</style><linearGradient id="SVGID_1_" x1="138.865" x2="139.365" y1="64" y2="64" gradientUnits="userSpaceOnUse"><stop offset="0" stop-color="#e96c5f"/><stop offset="1" stop-color="#ea5456"/></linearGradient><path fill="url(#SVGID_1_)" d="M128 0v93H93v35H0V0z"/><linearGradient id="SVGID_2_" x1="116.047" x2="89.797" y1="113.703" y2="98.547" gradientUnits="userSpaceOnUse"><stop offset="0" stop-color="#e58788"/><stop offset="1" stop-color="#fff"/></linearGradient><path fill="url(#SVGID_2_)" d="M128 93l-35 35V93z"/><linearGradient id="SVGID_3_" x1="57.9" x2="93" y1="110.55" y2="110.55" gradientUnits="userSpaceOnUse"><stop offset=".249" stop-color="#ea5456" stop-opacity=".1"/><stop offset=".376" stop-color="#b9645c" stop-opacity=".117"/><stop offset=".5" stop-color="#8e5f58" stop-opacity=".133"/><stop offset=".618" stop-color="#68504b" stop-opacity=".149"/><stop offset=".73" stop-color="#483d39" stop-opacity=".164"/><stop offset=".834" stop-color="#2e2927" stop-opacity=".178"/><stop offset=".927" stop-color="#110f0e" stop-opacity=".19"/><stop offset="1" stop-opacity=".2"/></linearGradient><path fill="url(#SVGID_3_)" d="M93 93l-35.1 35.1L93 128z"/><path d="M60.55 82.27h-2.48V77.7c0-.54-.1-.93-.29-1.17a.942.942 0 00-.76-.36c-.17 0-.33.04-.5.11s-.33.17-.47.3c-.15.13-.28.28-.4.46s-.21.37-.29.57v4.67h-2.48V77.7c0-.54-.1-.93-.29-1.17a.942.942 0 00-.76-.36c-.33 0-.65.13-.97.4-.32.26-.55.61-.69 1.05v4.67h-2.48v-8.14h2.23v1.36c.3-.5.71-.87 1.22-1.13.51-.26 1.11-.39 1.79-.39.34 0 .64.04.89.12.25.08.47.2.66.34s.34.31.45.5c.11.19.2.4.25.61.31-.51.72-.9 1.22-1.17.51-.27 1.08-.41 1.74-.41.52 0 .93.1 1.25.29.31.19.56.44.74.74.18.3.29.64.35 1s.08.71.08 1.05v5.21zM67.33 82.43c-.62 0-1.16-.13-1.61-.39a2.6 2.6 0 01-1.05-1.08v4.62h-2.48V74.13h2.15v1.32c.3-.46.67-.83 1.12-1.08.45-.26.98-.39 1.6-.39.55 0 1.05.11 1.51.33s.86.51 1.19.89c.34.38.6.82.79 1.33.19.51.29 1.06.29 1.65 0 .61-.09 1.17-.26 1.69s-.42.96-.73 1.34c-.31.38-.68.67-1.12.89-.43.22-.9.33-1.4.33zm-.84-2.1c.27 0 .51-.06.74-.18.22-.12.42-.28.58-.47.17-.2.29-.43.38-.69s.13-.54.13-.83a2.228 2.228 0 00-.55-1.49c-.17-.19-.38-.33-.62-.43-.24-.1-.5-.16-.78-.16-.34 0-.67.1-.98.3-.32.2-.56.47-.72.81v1.67c.17.41.42.76.75 1.04.33.3.69.43 1.07.43zM75.26 82.3c-.54 0-1.03-.11-1.47-.33-.44-.22-.82-.51-1.14-.88-.31-.37-.56-.81-.74-1.3a4.67 4.67 0 01-.26-1.6c0-.6.09-1.16.28-1.67.19-.51.44-.96.78-1.33.33-.38.73-.67 1.19-.89s.98-.33 1.53-.33c.62 0 1.16.13 1.62.4s.83.63 1.11 1.09v-1.33h2.15v7.58c0 .62-.12 1.18-.35 1.67s-.56.92-.97 1.26c-.41.35-.91.61-1.49.8-.58.19-1.21.28-1.91.28-.88 0-1.63-.14-2.25-.42-.62-.28-1.16-.68-1.63-1.21l1.33-1.35c.3.34.67.61 1.12.81.44.2.92.3 1.43.3.3 0 .58-.04.85-.12.27-.08.51-.21.71-.38s.37-.39.49-.67c.12-.27.18-.6.18-.98v-.79c-.25.46-.6.8-1.07 1.03-.45.25-.95.36-1.49.36zm.85-1.97c.38 0 .72-.11 1.02-.32s.53-.48.7-.81v-1.7c-.17-.43-.42-.78-.76-1.03s-.7-.38-1.08-.38c-.27 0-.51.06-.74.18-.22.12-.41.28-.57.48-.16.2-.29.43-.37.7-.09.26-.13.53-.13.81 0 .3.05.58.15.83.1.25.23.47.41.66a1.833 1.833 0 001.37.58z" class="st3"/><path d="M89.93 20.82H38.07c-1.54 0-2.79 1.25-2.79 2.78V87c0 1.53 1.25 2.78 2.79 2.78h51.86c1.54 0 2.79-1.25 2.79-2.78V23.6c0-1.53-1.25-2.78-2.79-2.78zm-51.65 3h51.44v44.2H38.28v-44.2zm51.44 62.96H38.28V71.02h51.44v15.76z" class="st3"/><path d="M63.76 32.73c8.6-.02 15.64 6.97 15.68 15.6.04 8.61-7.04 15.7-15.68 15.67-8.63-.02-15.64-7.03-15.64-15.64 0-8.6 7.01-15.61 15.64-15.63zm12.82 15.66c.04-6.98-5.68-12.76-12.69-12.82-7.08-.06-12.87 5.66-12.92 12.76-.05 6.97 5.69 12.76 12.7 12.82 7.07.07 12.86-5.65 12.91-12.76z" class="st3"/><path d="M59.07 48.53c0-2.86-.01-5.72.01-8.58 0-.3-.05-.59.04-.89.27.09.58.13.82.28 4.78 3.03 9.55 6.08 14.33 9.13.12.07.12.2 0 .27-4.75 3.04-9.5 6.07-14.26 9.1-.26.16-.59.21-.89.32-.09-.33-.03-.65-.03-.98-.03-2.87-.02-5.76-.02-8.65z" class="st3"/></svg>