<svg xmlns="http://www.w3.org/2000/svg" id="Laag_1" x="0" y="0" version="1.1" viewBox="0 0 128 128" xml:space="preserve"><style>.st3{fill:#fff}</style><linearGradient id="SVGID_1_" x1="138.865" x2="139.365" y1="64" y2="64" gradientUnits="userSpaceOnUse"><stop offset="0" stop-color="#e96c5f"/><stop offset="1" stop-color="#ea5456"/></linearGradient><path fill="url(#SVGID_1_)" d="M128 0v93H93v35H0V0z"/><linearGradient id="SVGID_2_" x1="116.047" x2="89.797" y1="113.703" y2="98.547" gradientUnits="userSpaceOnUse"><stop offset="0" stop-color="#e58788"/><stop offset="1" stop-color="#fff"/></linearGradient><path fill="url(#SVGID_2_)" d="M128 93l-35 35V93z"/><linearGradient id="SVGID_3_" x1="57.9" x2="93" y1="110.55" y2="110.55" gradientUnits="userSpaceOnUse"><stop offset=".249" stop-color="#ea5456" stop-opacity=".1"/><stop offset=".376" stop-color="#b9645c" stop-opacity=".117"/><stop offset=".5" stop-color="#8e5f58" stop-opacity=".133"/><stop offset=".618" stop-color="#68504b" stop-opacity=".149"/><stop offset=".73" stop-color="#483d39" stop-opacity=".164"/><stop offset=".834" stop-color="#2e2927" stop-opacity=".178"/><stop offset=".927" stop-color="#110f0e" stop-opacity=".19"/><stop offset="1" stop-opacity=".2"/></linearGradient><path fill="url(#SVGID_3_)" d="M93 93l-35.1 35.1L93 128z"/><path d="M56.84 83.03c-.63 0-1.18-.1-1.67-.31s-.9-.48-1.24-.83-.59-.76-.76-1.22a4.18 4.18 0 010-2.9c.17-.46.43-.87.76-1.22s.75-.63 1.24-.84c.49-.21 1.05-.32 1.67-.32.63 0 1.18.11 1.67.32s.9.49 1.23.84.59.76.77 1.22.27.95.27 1.45-.09.99-.26 1.45-.43.87-.76 1.22-.75.63-1.24.83c-.5.21-1.05.31-1.68.31zm-1.64-3.81c0 .58.15 1.04.46 1.39.31.35.7.53 1.18.53a1.5 1.5 0 001.15-.53c.15-.17.26-.37.34-.61.08-.24.13-.5.13-.78 0-.58-.15-1.04-.46-1.39-.31-.35-.7-.53-1.16-.53-.23 0-.45.05-.65.14-.2.09-.37.22-.52.39-.15.17-.26.37-.34.61-.09.24-.13.5-.13.78zM66.29 83.03c-.56 0-1.05-.12-1.47-.36s-.75-.57-.99-1v1.22h-1.95V72.67h2.24v4.07c.24-.42.57-.75.97-.99.41-.24.88-.36 1.44-.36.47 0 .9.1 1.29.3.39.2.73.47 1.01.82s.5.75.66 1.23c.16.47.24.97.24 1.5s-.09 1.03-.26 1.49c-.17.46-.41.86-.72 1.2-.31.34-.67.61-1.09.8-.43.2-.88.3-1.37.3zm-.63-1.89a1.695 1.695 0 001.26-.55c.15-.17.28-.37.36-.59a2.224 2.224 0 000-1.5c-.08-.24-.2-.45-.34-.62-.14-.18-.32-.32-.53-.42-.21-.1-.42-.15-.66-.15-.36 0-.68.12-.97.36-.29.24-.52.55-.68.91v1.54c.15.32.37.57.65.75.31.18.6.27.91.27zM70.45 85.72c-.37 0-.73-.06-1.06-.17-.34-.12-.64-.29-.91-.53l.94-1.53c.1.1.22.18.35.22.13.05.27.07.41.07.21 0 .39-.07.53-.21.14-.14.21-.33.21-.56v-7.48h2.24v7.31c0 .42-.07.81-.2 1.16a2.586 2.586 0 01-1.43 1.5c-.34.15-.7.22-1.08.22zm.46-11.02v-2.03h2.24v2.03h-2.24z" class="st3"/><path d="M89.93 20.82H38.07c-1.54 0-2.79 1.25-2.79 2.78V87c0 1.53 1.25 2.78 2.79 2.78h51.86c1.54 0 2.79-1.25 2.79-2.78V23.6c0-1.53-1.25-2.78-2.79-2.78zm-51.65 3h51.44v44.2H38.28v-44.2zm51.44 62.96H38.28V71.02h51.44v15.76z" class="st3"/><path d="M64 30.29c-7.01 0-12.29 2.94-12.29 6.84v17.59c0 3.89 5.28 6.82 12.29 6.82 7 0 12.29-2.94 12.29-6.82V37.13c0-3.9-5.29-6.84-12.29-6.84zm9.64 24.43c0 1.97-4.13 4.18-9.64 4.18-5.49 0-9.6-2.2-9.64-4.18V41.46c2.21 1.55 5.65 2.5 9.64 2.5s7.43-.95 9.64-2.5v13.26zM64 41.31c-5.52 0-9.64-2.21-9.64-4.18 0-1.98 4.13-4.19 9.64-4.19 5.52 0 9.64 2.21 9.64 4.19 0 1.97-4.12 4.18-9.64 4.18z" class="st3"/></svg>