<svg xmlns="http://www.w3.org/2000/svg" id="Laag_1" x="0" y="0" version="1.1" viewBox="0 0 128 128" xml:space="preserve"><style>.st3{fill:#fff}</style><linearGradient id="SVGID_1_" x1="138.865" x2="139.365" y1="64" y2="64" gradientUnits="userSpaceOnUse"><stop offset="0" stop-color="#e96c5f"/><stop offset="1" stop-color="#ea5456"/></linearGradient><path fill="url(#SVGID_1_)" d="M128 0v93H93v35H0V0z"/><linearGradient id="SVGID_2_" x1="116.047" x2="89.797" y1="113.703" y2="98.547" gradientUnits="userSpaceOnUse"><stop offset="0" stop-color="#e58788"/><stop offset="1" stop-color="#fff"/></linearGradient><path fill="url(#SVGID_2_)" d="M128 93l-35 35V93z"/><linearGradient id="SVGID_3_" x1="57.9" x2="93" y1="110.55" y2="110.55" gradientUnits="userSpaceOnUse"><stop offset=".249" stop-color="#ea5456" stop-opacity=".1"/><stop offset=".376" stop-color="#b9645c" stop-opacity=".117"/><stop offset=".5" stop-color="#8e5f58" stop-opacity=".133"/><stop offset=".618" stop-color="#68504b" stop-opacity=".149"/><stop offset=".73" stop-color="#483d39" stop-opacity=".164"/><stop offset=".834" stop-color="#2e2927" stop-opacity=".178"/><stop offset=".927" stop-color="#110f0e" stop-opacity=".19"/><stop offset="1" stop-opacity=".2"/></linearGradient><path fill="url(#SVGID_3_)" d="M93 93l-35.1 35.1L93 128z"/><path d="M89.58 20.82H37.72c-1.54 0-2.79 1.25-2.79 2.78V87c0 1.53 1.25 2.78 2.79 2.78h51.86c1.54 0 2.79-1.25 2.79-2.78V23.6c0-1.53-1.25-2.78-2.79-2.78zm-51.65 3h51.44v44.2H37.93v-44.2zm51.44 62.96H37.93V71.02h51.44v15.76z" class="st3"/><path d="M48.64 82.17c-.56 0-1.05-.12-1.46-.35s-.73-.56-.95-.98v4.17h-2.24V74.68h1.95v1.19c.27-.42.61-.75 1.02-.98.41-.23.89-.35 1.45-.35.49 0 .95.1 1.36.29.42.2.77.46 1.08.81s.54.74.71 1.2c.17.46.26.96.26 1.49 0 .55-.08 1.06-.24 1.53s-.38.87-.66 1.21c-.28.34-.62.61-1.01.8-.39.2-.82.3-1.27.3zm-.76-1.89c.24 0 .46-.05.67-.16.2-.11.38-.25.52-.43.15-.18.26-.38.34-.62.08-.24.12-.49.12-.75 0-.27-.04-.52-.13-.75a1.83 1.83 0 00-.36-.59c-.15-.17-.34-.3-.56-.39-.22-.09-.46-.14-.71-.14-.31 0-.6.09-.89.27-.29.18-.5.43-.65.74v1.51c.15.37.38.69.68.94s.62.37.97.37zM55.03 82.17c-.36 0-.7-.06-1.02-.17-.31-.12-.58-.28-.8-.49-.22-.21-.4-.46-.53-.74-.13-.29-.2-.6-.2-.93 0-.36.08-.7.23-.99.15-.3.37-.55.65-.77.28-.21.61-.38.99-.5s.81-.18 1.27-.18c.31 0 .61.03.9.08.29.05.54.13.76.23v-.34c0-.85-.49-1.27-1.47-1.27-.4 0-.78.07-1.15.2-.36.14-.75.34-1.15.61l-.66-1.4a5.666 5.666 0 013.18-.95c1.11 0 1.97.26 2.58.78.61.52.91 1.29.91 2.3v1.89c0 .22.03.38.1.47.07.09.19.14.37.16v1.89c-.2.05-.37.08-.53.09-.16.01-.3.02-.43.02-.42 0-.74-.08-.95-.25-.21-.16-.35-.39-.41-.69l-.04-.34c-.33.42-.72.74-1.17.97-.44.21-.92.32-1.43.32zm.66-1.61c.24 0 .48-.04.71-.13.23-.08.42-.2.57-.34.21-.17.32-.35.32-.53v-.7a3.988 3.988 0 00-1.28-.23c-.41 0-.75.09-1.02.28-.27.19-.4.43-.4.73 0 .27.1.49.31.67.21.16.47.25.79.25zM64.01 82.06c-.49 0-.93-.1-1.33-.29-.4-.2-.74-.46-1.03-.8-.28-.34-.51-.73-.67-1.18s-.24-.93-.24-1.44c0-.54.08-1.04.25-1.5.17-.46.4-.86.7-1.2s.66-.61 1.08-.81c.42-.2.88-.29 1.39-.29.56 0 1.05.12 1.46.36s.75.57 1 .99v-1.2h1.95v6.85c0 .56-.11 1.06-.32 1.51s-.5.83-.88 1.14c-.37.31-.82.55-1.34.72s-1.1.25-1.72.25c-.79 0-1.47-.13-2.03-.38a4.34 4.34 0 01-1.47-1.09l1.2-1.22c.27.31.61.55 1.01.74s.83.27 1.29.27c.27 0 .53-.04.77-.11.24-.08.46-.19.64-.34.19-.15.33-.36.44-.6s.16-.54.16-.89v-.71c-.22.41-.55.72-.97.93s-.86.29-1.34.29zm.77-1.78c.34 0 .65-.1.92-.29s.48-.44.63-.74v-1.54c-.15-.39-.38-.7-.69-.93-.31-.23-.63-.34-.98-.34-.24 0-.46.05-.67.16-.2.11-.37.25-.52.43-.15.18-.26.39-.34.63-.08.24-.12.48-.12.74 0 .27.04.52.13.75.09.23.21.43.37.59s.34.3.55.39c.23.1.47.15.72.15zM73.63 82.17c-.62 0-1.17-.1-1.66-.3-.49-.2-.91-.47-1.25-.82-.34-.34-.6-.74-.78-1.2-.18-.45-.27-.93-.27-1.42 0-.53.09-1.03.27-1.5.18-.47.43-.88.77-1.24s.75-.63 1.24-.84c.49-.21 1.05-.31 1.67-.31.63 0 1.18.1 1.67.31s.9.48 1.23.83c.34.35.59.75.76 1.21.17.46.26.94.26 1.44 0 .13 0 .26-.01.39s-.02.24-.04.33h-5.43c.04.5.22.87.54 1.13.32.26.69.39 1.1.39.33 0 .64-.08.95-.24.3-.16.51-.37.61-.64l1.9.53c-.29.58-.74 1.05-1.34 1.41-.62.36-1.35.54-2.19.54zm1.55-4.51c-.05-.47-.21-.83-.5-1.11s-.65-.41-1.08-.41c-.44 0-.8.14-1.08.41s-.45.64-.5 1.1h3.16zM81.46 82.17c-.63 0-1.24-.1-1.85-.3-.61-.2-1.12-.49-1.54-.88l.8-1.37c.45.31.88.55 1.31.71s.83.25 1.23.25c.29 0 .51-.05.67-.15.16-.1.24-.25.24-.45s-.1-.35-.3-.47c-.2-.12-.55-.24-1.06-.37-.5-.14-.91-.28-1.25-.41s-.62-.28-.83-.43c-.21-.16-.37-.34-.46-.55-.09-.21-.14-.45-.14-.73 0-.37.08-.71.22-1.02.15-.31.35-.57.62-.78.26-.21.57-.38.93-.5s.75-.18 1.17-.18c.55 0 1.07.08 1.55.22s.95.42 1.39.81l-.87 1.34c-.42-.29-.79-.5-1.12-.63-.33-.13-.64-.2-.95-.2-.24 0-.45.05-.62.15s-.25.25-.25.47c0 .21.09.36.27.46.18.1.52.21 1.01.34.52.14.96.28 1.32.42.36.14.65.3.88.47.22.17.39.37.49.59.1.22.15.49.15.8 0 .73-.27 1.31-.81 1.74-.54.44-1.27.65-2.2.65zM58.32 49.58c-.38 0-.77-.15-1.06-.44a1.49 1.49 0 010-2.12L73.38 30.9a1.49 1.49 0 012.12 0c.59.59.59 1.54 0 2.12L59.38 49.15c-.3.29-.68.43-1.06.43zM56.2 52.09l-4.12 2 2-4.12a1.588 1.588 0 112.12 2.12zM89.06 57.99H52.68c-.83 0-1.5-.67-1.5-1.5s.67-1.5 1.5-1.5h36.38c.83 0 1.5.67 1.5 1.5s-.68 1.5-1.5 1.5z" class="st3"/></svg>