<svg xmlns="http://www.w3.org/2000/svg" id="Laag_1" x="0" y="0" version="1.1" viewBox="0 0 128 128" xml:space="preserve"><style>.st3{fill:#fff}</style><linearGradient id="SVGID_1_" x1="138.865" x2="139.365" y1="64" y2="64" gradientUnits="userSpaceOnUse"><stop offset="0" stop-color="#e96c5f"/><stop offset="1" stop-color="#ea5456"/></linearGradient><path fill="url(#SVGID_1_)" d="M128 0v93H93v35H0V0z"/><linearGradient id="SVGID_2_" x1="116.047" x2="89.797" y1="113.703" y2="98.547" gradientUnits="userSpaceOnUse"><stop offset="0" stop-color="#e58788"/><stop offset="1" stop-color="#fff"/></linearGradient><path fill="url(#SVGID_2_)" d="M128 93l-35 35V93z"/><linearGradient id="SVGID_3_" x1="57.9" x2="93" y1="110.55" y2="110.55" gradientUnits="userSpaceOnUse"><stop offset=".249" stop-color="#ea5456" stop-opacity=".1"/><stop offset=".376" stop-color="#b9645c" stop-opacity=".117"/><stop offset=".5" stop-color="#8e5f58" stop-opacity=".133"/><stop offset=".618" stop-color="#68504b" stop-opacity=".149"/><stop offset=".73" stop-color="#483d39" stop-opacity=".164"/><stop offset=".834" stop-color="#2e2927" stop-opacity=".178"/><stop offset=".927" stop-color="#110f0e" stop-opacity=".19"/><stop offset="1" stop-opacity=".2"/></linearGradient><path fill="url(#SVGID_3_)" d="M93 93l-35.1 35.1L93 128z"/><path d="M56.17 81.93c-.56 0-1.05-.12-1.46-.35s-.73-.56-.95-.98v4.17h-2.24V74.44h1.95v1.19c.27-.42.61-.75 1.02-.98.41-.23.89-.35 1.45-.35.49 0 .95.1 1.36.29.42.2.77.46 1.08.81s.54.74.71 1.2c.17.46.26.96.26 1.49 0 .55-.08 1.06-.24 1.53s-.38.87-.66 1.21c-.28.34-.62.61-1.01.8-.38.2-.81.3-1.27.3zm-.75-1.89c.24 0 .46-.05.67-.16.2-.11.38-.25.52-.43.15-.18.26-.38.34-.62.08-.24.12-.49.12-.75 0-.27-.04-.52-.13-.75a1.83 1.83 0 00-.36-.59c-.15-.17-.34-.3-.56-.39-.22-.09-.46-.14-.71-.14-.31 0-.6.09-.89.27-.29.18-.5.43-.65.74v1.51c.15.37.38.69.68.94s.62.37.97.37zM67.57 81.79h-2.24v-4.13c0-.49-.09-.84-.27-1.06a.883.883 0 00-.72-.33c-.16 0-.32.03-.48.1s-.31.16-.46.27c-.15.12-.28.25-.4.41-.12.16-.21.33-.27.52v4.21h-2.24v-7.35h2.02v1.23c.27-.44.65-.78 1.15-1.01.49-.24 1.06-.36 1.71-.36.48 0 .86.09 1.15.26.29.17.51.4.67.67.16.28.26.58.32.9.05.33.08.64.08.95v4.72zM71.91 81.82c-.49 0-.93-.1-1.33-.29-.4-.2-.74-.46-1.03-.8-.28-.34-.51-.73-.67-1.18-.16-.45-.24-.93-.24-1.44 0-.54.08-1.04.25-1.5.17-.46.4-.86.7-1.2s.66-.61 1.08-.81c.42-.2.88-.29 1.39-.29.56 0 1.05.12 1.46.36.42.24.75.57 1 .99v-1.2h1.95v6.85c0 .56-.11 1.06-.31 1.51-.21.45-.5.83-.88 1.14-.37.31-.82.55-1.34.72s-1.1.25-1.72.25c-.79 0-1.47-.13-2.03-.38a4.34 4.34 0 01-1.47-1.09l1.2-1.22c.27.31.61.55 1.01.74s.83.27 1.29.27c.27 0 .53-.04.77-.11.24-.08.46-.19.64-.34.19-.15.33-.36.44-.6.11-.25.16-.54.16-.89v-.71c-.22.41-.55.72-.97.93s-.86.29-1.35.29zm.77-1.78c.35 0 .65-.1.92-.29.27-.19.48-.44.63-.74v-1.54c-.15-.39-.38-.7-.69-.93s-.63-.34-.98-.34c-.24 0-.46.05-.67.16-.2.11-.37.25-.52.43-.14.18-.26.39-.34.63-.08.24-.12.48-.12.74 0 .27.04.52.13.75.09.23.21.43.37.59.16.17.34.3.55.39.24.1.47.15.72.15z" class="st3"/><path d="M89.93 20.82H38.07c-1.54 0-2.79 1.25-2.79 2.78V87c0 1.53 1.25 2.78 2.79 2.78h51.86c1.54 0 2.79-1.25 2.79-2.78V23.6c0-1.53-1.25-2.78-2.79-2.78zm-51.65 3h51.44v44.2H38.28v-44.2zm51.44 62.96H38.28V71.02h51.44v15.76z" class="st3"/><path d="M46.06 58.94h35.73c.93 0 1.5-1.01 1.02-1.81l-7.45-12.41a.51.51 0 00-.72-.16l-8.66 5.78c-.25.17-.59.08-.73-.18l-8.92-16.79c-.2-.38-.75-.35-.92.04L45.1 57.48c-.3.69.21 1.46.96 1.46z" class="st3"/><circle cx="70.39" cy="36.57" r="3.67" class="st3"/></svg>