<svg xmlns="http://www.w3.org/2000/svg" id="Laag_1" x="0" y="0" version="1.1" viewBox="0 0 128 128" xml:space="preserve"><style>.st3,.st4{fill:#fff}.st4{stroke:#fff;stroke-width:3;stroke-miterlimit:10}</style><linearGradient id="SVGID_1_" x1="138.865" x2="139.365" y1="64" y2="64" gradientUnits="userSpaceOnUse"><stop offset="0" stop-color="#e96c5f"/><stop offset="1" stop-color="#ea5456"/></linearGradient><path fill="url(#SVGID_1_)" d="M128 0v93H93v35H0V0z"/><linearGradient id="SVGID_2_" x1="116.047" x2="89.797" y1="113.703" y2="98.547" gradientUnits="userSpaceOnUse"><stop offset="0" stop-color="#e58788"/><stop offset="1" stop-color="#fff"/></linearGradient><path fill="url(#SVGID_2_)" d="M128 93l-35 35V93z"/><linearGradient id="SVGID_3_" x1="57.9" x2="93" y1="110.55" y2="110.55" gradientUnits="userSpaceOnUse"><stop offset=".249" stop-color="#ea5456" stop-opacity=".1"/><stop offset=".376" stop-color="#b9645c" stop-opacity=".117"/><stop offset=".5" stop-color="#8e5f58" stop-opacity=".133"/><stop offset=".618" stop-color="#68504b" stop-opacity=".149"/><stop offset=".73" stop-color="#483d39" stop-opacity=".164"/><stop offset=".834" stop-color="#2e2927" stop-opacity=".178"/><stop offset=".927" stop-color="#110f0e" stop-opacity=".19"/><stop offset="1" stop-opacity=".2"/></linearGradient><path fill="url(#SVGID_3_)" d="M93 93l-35.1 35.1L93 128z"/><path d="M89.93 20.82H38.07c-1.54 0-2.79 1.25-2.79 2.78V87c0 1.53 1.25 2.78 2.79 2.78h51.86c1.54 0 2.79-1.25 2.79-2.78V23.6c0-1.53-1.25-2.78-2.79-2.78zm-51.65 3h51.44v44.2H38.28v-44.2zm51.44 62.96H38.28V71.02h51.44v15.76zM43.38 35h40.93" class="st3"/><path d="M43.38 33.5h40.93v3H43.38z" class="st3"/><path d="M43.38 45.72h40.93M43.38 54.93h40.93" class="st4"/><path d="M61.04 78.15c-.58.01-1.1.11-1.57.29s-.81.45-1.02.81v4.73h-2.4V76.1h2.2v1.59c.27-.53.62-.95 1.04-1.25.43-.3.88-.46 1.36-.46h.24c.05 0 .1 0 .15.01v2.16zM67.15 83.55c-.33.14-.71.27-1.13.39s-.85.18-1.28.18c-.3 0-.58-.04-.85-.11s-.5-.19-.7-.36-.36-.38-.47-.65c-.12-.27-.17-.6-.17-.98v-4.11h-1V76.1h1v-2.5h2.4v2.5h1.61v1.81h-1.61v3.29c0 .26.07.45.2.56.13.12.29.17.5.17.18 0 .36-.03.55-.09a4 4 0 00.5-.2l.45 1.91zM68.58 83.97v-5.42h-1v-1.82h1v-.63c0-.49.07-.94.2-1.33.13-.4.32-.74.55-1.02.24-.28.53-.5.87-.64.34-.15.71-.23 1.13-.23.64 0 1.33.16 2.05.47l-.43 1.8c-.16-.07-.34-.13-.53-.17-.2-.04-.38-.07-.55-.07-.59 0-.88.37-.88 1.11v.73h1.83v1.82h-1.83v5.42h-2.41z" class="st3"/></svg>