<svg xmlns="http://www.w3.org/2000/svg" data-name="Laag 1" viewBox="0 0 128 128.1"><defs><linearGradient id="a" x1="138.87" x2="139.37" y1="64" y2="64" gradientUnits="userSpaceOnUse"><stop offset="0" stop-color="#e96c5f"/><stop offset="1" stop-color="#ea5456"/></linearGradient><linearGradient id="b" x1="116.05" x2="89.8" y1="113.7" y2="98.55" gradientUnits="userSpaceOnUse"><stop offset="0" stop-color="#e58788"/><stop offset="1" stop-color="#fff"/></linearGradient><linearGradient id="c" x1="57.9" x2="93" y1="110.55" y2="110.55" gradientUnits="userSpaceOnUse"><stop offset=".25" stop-color="#ea5456" stop-opacity=".1"/><stop offset=".65" stop-color="#542726" stop-opacity=".17"/><stop offset="1" stop-color="#161412" stop-opacity=".2"/></linearGradient></defs><path fill="url(#a)" d="M128 0v93H93v35H0V0h128z"/><path fill="url(#b)" d="M128 93l-35 35V93h35z"/><path fill="url(#c)" d="M93 93l-35.1 35.1L93 128V93z"/><path fill="#fff" d="M89.93 20.82H38.07a2.79 2.79 0 00-2.79 2.78V87a2.79 2.79 0 002.79 2.78h51.86A2.79 2.79 0 0092.72 87V23.6a2.79 2.79 0 00-2.79-2.78zm-51.65 3h51.44V68H38.28zm51.44 63H38.28V71h51.44z"/><text fill="#fff" font-family="Raleway-ExtraBold,Raleway" font-size="15" font-weight="800" transform="translate(52.29 84.27)">sd<tspan x="17.29" y="0" letter-spacing="-.021em">f</tspan></text><path fill="#fff" d="M77.5 57l1.5-6.68-4.9-4.41 1.39-6.35-5.83-5.29-6.31 2-5.06-4.57-6.39 2-3.17-3.17-1.25 1.27 3.14 3.14-1.49 6.83L54 46.25l-1.4 6.4L58.47 58l6.37-2 5 4.5 6.51-2.09 3 3L80.52 60zM64.05 38.36l5.08-1.61 3.94 3.58L72 45.4l-5.21 1.67-3.84-3.5zM51.55 41l1.13-5.21 5.08-1.62 3.94 3.59L60.57 43l-5.08 1.62zm12.53 12.85L59 55.47l-3.95-3.59 1.13-5.2 5.08-1.62 3.95 3.59zm11.33 2.46l-5.08 1.62-3.94-3.58 1.1-5.09 5.2-1.66 3.85 3.5zM45.915 30.456l1.244-1.245.792.792-1.244 1.245zM80.05 61.824l1.244-1.245.792.792-1.244 1.245z"/></svg>