<svg xmlns="http://www.w3.org/2000/svg" id="Laag_1" x="0" y="0" version="1.1" viewBox="0 0 128 128" xml:space="preserve"><style>.st3,.st4{fill:#fff}.st4{stroke:#fff;stroke-width:3;stroke-miterlimit:10}</style><linearGradient id="SVGID_1_" x1="138.865" x2="139.365" y1="64" y2="64" gradientUnits="userSpaceOnUse"><stop offset="0" stop-color="#e96c5f"/><stop offset="1" stop-color="#ea5456"/></linearGradient><path fill="url(#SVGID_1_)" d="M128 0v93H93v35H0V0z"/><linearGradient id="SVGID_2_" x1="116.047" x2="89.797" y1="113.703" y2="98.547" gradientUnits="userSpaceOnUse"><stop offset="0" stop-color="#e58788"/><stop offset="1" stop-color="#fff"/></linearGradient><path fill="url(#SVGID_2_)" d="M128 93l-35 35V93z"/><linearGradient id="SVGID_3_" x1="57.9" x2="93" y1="110.55" y2="110.55" gradientUnits="userSpaceOnUse"><stop offset=".249" stop-color="#ea5456" stop-opacity=".1"/><stop offset=".376" stop-color="#b9645c" stop-opacity=".117"/><stop offset=".5" stop-color="#8e5f58" stop-opacity=".133"/><stop offset=".618" stop-color="#68504b" stop-opacity=".149"/><stop offset=".73" stop-color="#483d39" stop-opacity=".164"/><stop offset=".834" stop-color="#2e2927" stop-opacity=".178"/><stop offset=".927" stop-color="#110f0e" stop-opacity=".19"/><stop offset="1" stop-opacity=".2"/></linearGradient><path fill="url(#SVGID_3_)" d="M93 93l-35.1 35.1L93 128z"/><path d="M89.93 20.82H38.07c-1.54 0-2.79 1.25-2.79 2.78V87c0 1.53 1.25 2.78 2.79 2.78h51.86c1.54 0 2.79-1.25 2.79-2.78V23.6c0-1.53-1.25-2.78-2.79-2.78zm-51.65 3h51.44v44.2H38.28v-44.2zm51.44 62.96H38.28V71.02h51.44v15.76zM43.38 35h40.93" class="st3"/><path d="M43.38 33.5h40.93v3H43.38z" class="st3"/><path d="M43.38 45.72h40.93M43.38 54.93h40.93" class="st4"/><path d="M58.55 83.55c-.33.14-.71.27-1.13.39-.43.12-.85.18-1.28.18-.3 0-.58-.04-.85-.11s-.5-.19-.7-.36-.36-.38-.47-.65c-.12-.27-.17-.6-.17-.98v-4.11h-1V76.1h1v-2.5h2.4v2.5h1.6v1.81h-1.6v3.29c0 .26.06.45.19.56.13.12.29.17.5.17.18 0 .36-.03.55-.09a4 4 0 00.5-.2l.46 1.91zM63.05 84.12c-.66 0-1.25-.11-1.78-.32s-.97-.51-1.33-.88c-.37-.37-.64-.8-.83-1.28-.19-.49-.29-.99-.29-1.52 0-.57.1-1.11.29-1.61a3.83 3.83 0 012.16-2.23c.53-.22 1.12-.33 1.79-.33s1.27.11 1.79.33c.52.22.96.52 1.32.89.36.38.63.81.82 1.3a4.424 4.424 0 01.26 1.95c-.01.13-.02.25-.04.35h-5.82c.04.53.23.93.58 1.21.35.28.74.41 1.18.41.35 0 .69-.08 1.01-.25.32-.17.54-.4.65-.69l2.04.57c-.31.62-.79 1.13-1.44 1.52-.67.39-1.45.58-2.36.58zm1.66-4.83c-.05-.5-.23-.89-.54-1.18s-.69-.43-1.15-.43c-.47 0-.86.15-1.16.44s-.48.69-.53 1.18h3.38z" class="st3"/><path d="M69.72 76.1l1.42 2.22.15.29.15-.29 1.41-2.22h2.46l-2.73 3.94 2.79 3.93h-2.46l-1.48-2.21-.13-.29-.14.29-1.48 2.21h-2.46l2.79-3.93-2.73-3.94h2.44z" class="st3"/></svg>