<svg xmlns="http://www.w3.org/2000/svg" id="Laag_1" x="0" y="0" version="1.1" viewBox="0 0 128 128" xml:space="preserve"><style>.st3{fill:#fff}</style><linearGradient id="SVGID_1_" x1="138.865" x2="139.365" y1="64" y2="64" gradientUnits="userSpaceOnUse"><stop offset="0" stop-color="#e96c5f"/><stop offset="1" stop-color="#ea5456"/></linearGradient><path fill="url(#SVGID_1_)" d="M128 0v93H93v35H0V0z"/><linearGradient id="SVGID_2_" x1="116.047" x2="89.797" y1="113.703" y2="98.547" gradientUnits="userSpaceOnUse"><stop offset="0" stop-color="#e58788"/><stop offset="1" stop-color="#fff"/></linearGradient><path fill="url(#SVGID_2_)" d="M128 93l-35 35V93z"/><linearGradient id="SVGID_3_" x1="57.9" x2="93" y1="110.55" y2="110.55" gradientUnits="userSpaceOnUse"><stop offset=".249" stop-color="#ea5456" stop-opacity=".1"/><stop offset=".376" stop-color="#b9645c" stop-opacity=".117"/><stop offset=".5" stop-color="#8e5f58" stop-opacity=".133"/><stop offset=".618" stop-color="#68504b" stop-opacity=".149"/><stop offset=".73" stop-color="#483d39" stop-opacity=".164"/><stop offset=".834" stop-color="#2e2927" stop-opacity=".178"/><stop offset=".927" stop-color="#110f0e" stop-opacity=".19"/><stop offset="1" stop-opacity=".2"/></linearGradient><path fill="url(#SVGID_3_)" d="M93 93l-35.1 35.1L93 128z"/><path d="M56.91 74.93h2.36l-3.36 8.14h-2.03l-1.26-3.35-1.26 3.35h-2.03l-3.36-8.14h2.34l2.22 5.84.76-2.22-1.44-3.63h1.98l.79 2.45.77-2.45h1.98l-1.43 3.63.76 2.22 2.21-5.84zM72.92 83.07h-2.48V78.5c0-.54-.1-.93-.29-1.17a.942.942 0 00-.76-.36c-.17 0-.33.04-.5.11-.17.07-.33.17-.47.3-.15.13-.28.28-.4.46s-.21.37-.29.57v4.67h-2.48V78.5c0-.54-.1-.93-.29-1.17a.942.942 0 00-.76-.36c-.33 0-.65.13-.97.4-.32.26-.55.61-.69 1.05v4.67h-2.48v-8.14h2.23v1.36c.3-.5.71-.87 1.22-1.13.51-.26 1.11-.39 1.79-.39.34 0 .64.04.89.12.25.08.47.2.66.34.19.14.33.31.45.5.11.19.2.4.25.61.31-.51.72-.9 1.22-1.17.51-.27 1.08-.41 1.74-.41.52 0 .93.1 1.25.29s.56.44.74.74.29.64.35 1 .09.71.09 1.05v5.21zM76.47 83.07l-2.88-8.14h2.56l1.78 6.15 1.8-6.15h2.31l-2.87 8.14h-2.7z" class="st3"/><path d="M89.93 20.82H38.07c-1.54 0-2.79 1.25-2.79 2.78V87c0 1.53 1.25 2.78 2.79 2.78h51.86c1.54 0 2.79-1.25 2.79-2.78V23.6c0-1.53-1.25-2.78-2.79-2.78zm-51.65 3h51.44v44.2H38.28v-44.2zm51.44 62.96H38.28V71.02h51.44v15.76z" class="st3"/><path d="M63.95 31.9c7.71-.02 14.02 6.25 14.06 13.98.04 7.72-6.32 14.07-14.06 14.05-7.74-.02-14.02-6.31-14.02-14.02-.01-7.71 6.28-13.99 14.02-14.01zm11.49 14.04c.04-6.26-5.09-11.44-11.38-11.49-6.35-.05-11.54 5.08-11.58 11.44-.04 6.25 5.11 11.44 11.39 11.5 6.34.06 11.53-5.07 11.57-11.45z" class="st3"/><path d="M59.74 46.07c0-2.56-.01-5.13.01-7.69 0-.27-.04-.53.04-.8.25.08.52.12.73.25 4.29 2.72 8.57 5.45 12.85 8.19.1.07.1.18 0 .24-4.26 2.72-8.52 5.45-12.79 8.16-.23.15-.53.19-.8.29-.08-.29-.03-.58-.03-.87-.02-2.59-.01-5.18-.01-7.77z" class="st3"/></svg>