<svg xmlns="http://www.w3.org/2000/svg" id="Laag_1" x="0" y="0" version="1.1" viewBox="29 20.3 70 70" xml:space="preserve">
    <style>
        .st3{fill:#fff}
    </style>    <path d="M53.37 79.92c.32.06.61.17.88.33s.5.36.69.6c.19.24.34.52.44.84.1.32.16.65.16 1.01 0 .49-.1.92-.29 1.31-.2.39-.48.72-.84.99-.37.27-.81.49-1.33.64s-1.1.22-1.74.22c-1.57 0-2.8-.46-3.69-1.38l1.33-1.77c.28.29.6.51.95.66.36.15.78.22 1.28.22 1.17 0 1.75-.43 1.75-1.29 0-.46-.17-.82-.52-1.05-.35-.24-.89-.36-1.64-.36h-.47v-1.78h.51c.58 0 1.03-.12 1.36-.36.33-.24.49-.55.49-.95 0-.34-.12-.6-.36-.78s-.55-.26-.95-.26c-.42 0-.81.1-1.15.3-.35.2-.64.49-.88.86l-1.57-1.8c.17-.22.38-.42.65-.6.27-.19.57-.34.91-.47.34-.13.71-.23 1.1-.3s.8-.11 1.21-.11c.55 0 1.05.06 1.5.19.45.13.84.32 1.16.56.32.24.57.53.74.87.18.34.26.71.26 1.12 0 .31-.05.6-.15.88-.1.28-.24.53-.41.76-.18.23-.39.42-.63.57s-.46.27-.75.33zM60.33 83.74c-.56 0-1.07-.11-1.54-.32-.47-.21-.88-.51-1.22-.89a4.19 4.19 0 01-.8-1.34c-.19-.51-.29-1.07-.29-1.68 0-.59.09-1.14.26-1.66.18-.52.42-.96.74-1.34.32-.38.7-.67 1.14-.89.44-.22.92-.33 1.45-.33.57 0 1.08.13 1.54.4.46.27.81.63 1.06 1.08v-4.51h2.48v8.53c0 .25.04.42.12.52.08.1.21.16.41.18v2.09c-.23.05-.42.08-.59.1-.17.02-.32.02-.46.02-.43 0-.79-.09-1.05-.27s-.42-.44-.46-.78l-.05-.42c-.29.51-.68.88-1.17 1.13s-1.02.38-1.57.38zm.66-2.09c.34 0 .67-.1.98-.3.31-.2.56-.48.72-.83v-1.71c-.15-.41-.41-.75-.75-1.01s-.71-.4-1.08-.4c-.27 0-.51.06-.74.18-.22.12-.42.28-.58.47-.17.2-.29.42-.38.68-.09.26-.13.53-.13.82 0 .3.05.58.15.84.1.26.23.48.4.67.17.19.38.33.62.43.25.11.51.16.79.16zM79.95 83.59h-2.48v-4.57c0-.54-.1-.93-.29-1.17a.942.942 0 00-.76-.36c-.17 0-.33.04-.5.11s-.33.17-.47.3-.28.28-.4.46-.21.37-.29.57v4.67h-2.48v-4.57c0-.54-.1-.93-.29-1.17a.942.942 0 00-.76-.36c-.33 0-.65.13-.97.4s-.54.61-.69 1.05v4.67h-2.48v-8.14h2.23v1.36c.3-.5.71-.87 1.22-1.13.51-.26 1.11-.39 1.79-.39.34 0 .64.04.89.12.25.08.47.2.66.34.19.14.34.31.45.5.11.19.2.4.25.61.31-.51.72-.9 1.22-1.17.51-.27 1.08-.41 1.74-.41.52 0 .93.1 1.25.29s.56.44.74.74.29.64.35 1 .09.71.09 1.05v5.2z" class="st3"/>
    <path d="M89.93 20.82H38.07c-1.54 0-2.79 1.25-2.79 2.78V87c0 1.53 1.25 2.78 2.79 2.78h51.86c1.54 0 2.79-1.25 2.79-2.78V23.6c0-1.53-1.25-2.78-2.79-2.78zm-51.65 3h51.44v44.2H38.28v-44.2zm51.44 62.96H38.28V71.02h51.44v15.76z" class="st3"/>
    <path d="M82.23 49.39l-8.42-4.61v-8.16h-.06l.12-.07-9.69-4.84-9.5 5.05.08.04v7.96l-9 4.63.02.01V59l9.71 5 8.71-4.07 8.87 3.76 9.13-4.42v-9.82h-.08l.11-.06zM54.77 61.94l-7.48-3.85v-7.9l7.48 3.94v7.81zM49.01 49.4l6.51-3.35 6.74 3.3-6.74 3.47-6.51-3.42zm14.44 9.24l-7.18 3.35v-7.86l7.18-3.7v8.21zm0-10.36l-7.18-3.52v-7.13l7.18 3.94v6.71zm.74-8.02l-6.36-3.49 6.37-3.39 6.48 3.24-6.49 3.64zm8.13-2.84v7.31l-7.37 3.39v-6.56l7.37-4.14zm-7.37 21.2v-8.04l7.37 3.47v7.69l-7.37-3.12zm8.08-5.88l-7.18-3.39 7.18-3.3 6.09 3.34-6.09 3.35zm7.7 5.59l-6.91 3.35v-7.66l6.91-3.79v8.1z" class="st3"/>
</svg>