<svg xmlns="http://www.w3.org/2000/svg" id="Laag_1" x="0" y="0" version="1.1" viewBox="29 20.3 70 70" xml:space="preserve">
    <style>
        .st3{fill:#fff}
    </style>    <path d="M61.2 82.77h-2.48V78.2c0-.54-.1-.93-.29-1.17a.942.942 0 00-.76-.36c-.17 0-.33.04-.5.11s-.33.17-.47.3c-.15.13-.28.28-.4.46s-.21.37-.29.57v4.67h-2.48V78.2c0-.54-.1-.93-.29-1.17a.942.942 0 00-.76-.36c-.33 0-.65.13-.97.4-.32.26-.55.61-.69 1.05v4.67h-2.48v-8.14h2.23V76c.3-.5.71-.87 1.22-1.13.51-.26 1.11-.39 1.79-.39.34 0 .64.04.89.12.25.08.47.2.66.34s.34.31.45.5c.11.19.2.4.25.61.31-.51.72-.9 1.22-1.17.51-.27 1.08-.41 1.74-.41.52 0 .93.1 1.25.29.31.19.56.44.74.74.18.3.29.64.35 1s.08.71.08 1.05v5.22zM68.07 79.1c.32.06.61.17.88.33s.5.36.69.6c.19.24.34.52.44.84s.16.65.16 1.01c0 .49-.1.92-.29 1.31-.2.39-.48.72-.84.99-.37.27-.81.49-1.33.64s-1.09.22-1.74.22c-1.57 0-2.8-.46-3.69-1.38l1.33-1.77c.28.29.6.51.95.66.36.15.78.22 1.28.22 1.17 0 1.75-.43 1.75-1.29 0-.46-.17-.82-.52-1.05-.35-.24-.89-.36-1.64-.36h-.46v-1.78h.51c.58 0 1.03-.12 1.36-.36.33-.24.49-.55.49-.95 0-.34-.12-.6-.36-.78-.24-.18-.55-.26-.95-.26-.42 0-.81.1-1.15.3-.35.2-.64.49-.88.86l-1.57-1.8c.17-.22.38-.42.65-.6.27-.19.57-.34.91-.47.34-.13.71-.23 1.1-.3.39-.07.8-.11 1.21-.11.55 0 1.05.06 1.5.19.46.13.84.32 1.16.56.32.24.57.53.74.87.18.34.26.71.26 1.12 0 .31-.05.6-.15.88-.1.28-.24.53-.41.76-.18.23-.38.42-.63.57-.2.18-.47.28-.76.33zM74.12 82.93c-.84 0-1.47-.26-1.9-.78-.43-.52-.64-1.29-.64-2.3v-5.21h2.48v4.67c0 .5.1.88.29 1.14.2.26.47.4.84.4.33 0 .65-.09.96-.26s.58-.48.82-.91v-5.02h2.48v5.35c0 .25.04.42.12.52.08.1.21.16.41.18v2.09c-.24.05-.44.08-.6.1-.17.02-.32.02-.45.02-.89 0-1.4-.35-1.52-1.04l-.05-.5c-.37.54-.83.93-1.39 1.19s-1.17.36-1.85.36z" class="st3"/>
    <path d="M89.93 20.82H38.07c-1.54 0-2.79 1.25-2.79 2.78V87c0 1.53 1.25 2.78 2.79 2.78h51.86c1.54 0 2.79-1.25 2.79-2.78V23.6c0-1.53-1.25-2.78-2.79-2.78zm-51.65 3h51.44v44.2H38.28v-44.2zm51.44 62.96H38.28V71.02h51.44v15.76z" class="st3"/>
    <path d="M70.32 35.82c-4.64-3.4-6.27-5.02-6.83-5.72-.25-.31-.69-.43-1.05-.24-.54.29-.7.75-.74.91-.01.04-.01.07-.01.11v22.87c0 .3-.28.54-.57.48-.89-.2-1.9-.2-2.93.05-2.78.69-4.59 2.99-4.06 5.12.31 1.97 3.22 3.29 6 2.59 2.44-.6 4.14-2.45 4.15-4.33h.01l.06-21.87c0-.29.24-.51.53-.48 1.53.15 6.02 1.12 9.11 7.19-.01.01.07-3.94-3.67-6.68z" class="st3"/>
</svg>