<svg xmlns="http://www.w3.org/2000/svg" id="Laag_1" x="0" y="0" version="1.1" viewBox="29 20.3 70 70" xml:space="preserve">
    <style>
        .st3{fill:#fff}
    </style>    <path d="M89.93 20.82H38.07c-1.54 0-2.79 1.25-2.79 2.78V87c0 1.53 1.25 2.78 2.79 2.78h51.86c1.54 0 2.79-1.25 2.79-2.78V23.6c0-1.53-1.25-2.78-2.79-2.78zm-51.65 3h51.44v44.2H38.28v-44.2zm51.44 62.96H38.28V71.02h51.44v15.76z" class="st3"/>
    <path d="M53.18 83.14c-.4 0-.78-.06-1.12-.19-.35-.13-.64-.31-.89-.54a2.526 2.526 0 01-.81-1.85c0-.4.08-.77.26-1.1.17-.33.41-.61.72-.85s.68-.42 1.1-.56c.42-.13.89-.2 1.41-.2.34 0 .67.03.99.09s.6.14.84.26v-.37c0-.94-.54-1.41-1.63-1.41-.44 0-.87.08-1.27.23-.4.15-.83.37-1.27.67l-.73-1.55c.54-.35 1.09-.62 1.67-.79.58-.17 1.19-.26 1.84-.26 1.23 0 2.18.29 2.85.87.67.58 1.01 1.43 1.01 2.54v2.09c0 .25.04.42.12.52.08.1.21.16.41.18v2.09c-.22.05-.41.08-.59.1s-.34.02-.48.02c-.46 0-.82-.09-1.05-.27-.24-.18-.39-.44-.45-.77l-.05-.37c-.36.46-.79.82-1.29 1.07-.5.23-1.03.35-1.59.35zm.73-1.78c.27 0 .53-.05.78-.14.25-.09.46-.22.63-.37.24-.19.36-.38.36-.59v-.78c-.22-.08-.45-.15-.71-.19-.25-.05-.49-.07-.71-.07-.46 0-.83.1-1.12.31-.29.21-.44.47-.44.81 0 .3.11.54.34.74s.52.28.87.28zM65.1 83.14c-.62 0-1.16-.13-1.61-.39a2.6 2.6 0 01-1.05-1.08v4.62h-2.48V74.85h2.15v1.32c.3-.46.67-.83 1.12-1.08.45-.26.98-.39 1.6-.39.55 0 1.05.11 1.51.33s.86.51 1.19.89c.34.38.6.82.79 1.33.19.51.29 1.06.29 1.65 0 .61-.09 1.17-.26 1.69-.18.52-.42.96-.73 1.34-.31.38-.68.67-1.12.89-.42.22-.89.32-1.4.32zm-.84-2.09c.27 0 .51-.06.74-.18.22-.12.42-.28.58-.47.17-.2.29-.43.38-.69s.13-.54.13-.83a2.228 2.228 0 00-.55-1.49c-.17-.19-.38-.33-.62-.43-.24-.1-.5-.16-.78-.16-.34 0-.67.1-.98.3-.32.2-.56.47-.72.81v1.67c.17.41.42.76.75 1.04.33.29.69.43 1.07.43zM75.35 82.99l-2.12-3.27-.87.9v2.37h-2.48V71.67h2.48v6.56l2.74-3.38h2.63l-2.93 3.5 3.18 4.63h-2.63zM77.11 54.7c-.01 3.1-.01 6.2-.01 9.3H50.94c0-3.13 0-6.27-.01-9.4 0-.42.15-.51.54-.51 4.19.01 8.39.01 12.58.01 4.14 0 8.29.01 12.43-.01.47 0 .63.11.63.61zM57.52 42.6c-.65-.97-1.28-1.89-1.89-2.83-.17-.27-.59-.6-.13-.89.45-.28.58.25.75.5.62.88 1.21 1.77 1.8 2.67.16.24.31.29.6.21 1.91-.6 3.89-.83 5.88-.76 1.61.06 3.23.22 4.77.76.32.11.46.02.62-.23.64-.98 1.3-1.95 1.95-2.92.13-.2.26-.44.56-.25.31.19.2.42.05.65-.59.88-1.17 1.76-1.76 2.64-.09.13-.17.27-.3.47 4.05 1.85 6.21 5.01 6.65 9.46-.2.01-.35.02-.5.02-8.37 0-16.73 0-25.1.01-.43 0-.58-.12-.53-.54.26-2.04.93-3.91 2.18-5.57 1.1-1.46 2.5-2.51 4.16-3.25.07-.03.11-.07.24-.15zm13.59 4.39c0-.87-.68-1.53-1.57-1.53-.82 0-1.49.7-1.5 1.55-.01.82.71 1.51 1.55 1.5.85 0 1.52-.67 1.52-1.52zm-11.28.03c0-.9-.64-1.56-1.52-1.56-.8 0-1.52.69-1.53 1.48-.01.87.67 1.58 1.53 1.58.87.01 1.52-.64 1.52-1.5zM48.77 62.88V64h-5.23v-7.55c0-.86.43-1.48 1.17-1.84 1.07-.52 2.14-.48 3.16.17.59.38.9.94.9 1.65-.01 2.15-.01 4.3 0 6.45zM84.46 64h-5.17v-1.16-6.22c0-1.23.62-2.02 1.83-2.27 1.07-.22 2.1-.1 2.86.79.25.3.46.73.46 1.11.02 2.59.02 5.17.02 7.75z" class="st3"/>
</svg>