<svg xmlns="http://www.w3.org/2000/svg" id="Laag_1" x="0" y="0" version="1.1" viewBox="29 20.3 70 70" xml:space="preserve">
    <style>
        .st3{fill:#fff}
    </style>    <path d="M55.58 84.13c-.4 0-.78-.06-1.12-.19-.35-.13-.64-.31-.89-.54s-.44-.51-.59-.82c-.15-.32-.22-.66-.22-1.03 0-.4.09-.77.26-1.1.17-.33.41-.61.72-.85s.68-.42 1.1-.56c.42-.13.89-.2 1.41-.2.34 0 .67.03.99.09s.6.14.84.26v-.39c0-.94-.54-1.41-1.63-1.41-.44 0-.87.08-1.27.23-.4.15-.83.37-1.27.67l-.73-1.55c.54-.35 1.1-.62 1.67-.79.58-.17 1.19-.26 1.84-.26 1.23 0 2.18.29 2.85.87.67.58 1.01 1.43 1.01 2.54v2.09c0 .25.04.42.12.52.08.1.21.16.41.18v2.09c-.22.05-.41.08-.59.1-.18.02-.34.02-.48.02-.47 0-.82-.09-1.05-.27s-.39-.44-.45-.77l-.05-.37c-.36.46-.79.82-1.29 1.07-.5.24-1.03.37-1.59.37zm.73-1.79c.27 0 .53-.05.78-.14.25-.09.46-.22.63-.37.24-.19.36-.38.36-.59v-.78c-.22-.08-.45-.15-.71-.19-.25-.05-.49-.07-.71-.07-.46 0-.83.1-1.12.31-.29.21-.44.47-.44.81 0 .3.11.54.34.74.23.19.52.28.87.28zM65.57 84.13c-.69 0-1.37-.11-2.05-.33-.67-.22-1.24-.54-1.71-.97l.88-1.52c.5.34.98.6 1.45.79.47.19.92.28 1.36.28.32 0 .57-.06.74-.17.17-.11.26-.28.26-.5 0-.22-.11-.39-.33-.52s-.61-.27-1.17-.41c-.55-.15-1.01-.3-1.39-.45-.38-.14-.68-.3-.92-.48s-.41-.38-.51-.6c-.1-.23-.16-.5-.16-.81 0-.41.08-.79.25-1.13.17-.34.39-.63.68-.87.29-.24.63-.42 1.03-.56.4-.13.83-.2 1.29-.2.61 0 1.18.08 1.71.25.53.17 1.05.47 1.54.9l-.96 1.49c-.47-.32-.88-.55-1.24-.7-.36-.14-.71-.22-1.05-.22-.27 0-.5.05-.68.16s-.28.28-.28.52c0 .23.1.4.3.51.2.11.58.24 1.12.37.58.16 1.07.31 1.46.47.4.15.72.33.97.52s.43.41.54.66.17.54.17.88c0 .81-.3 1.45-.9 1.92-.57.48-1.38.72-2.4.72zM70.62 83.97v-5.6h-1.04V76.5h1.04v-.67c0-.51.07-.97.2-1.38.13-.41.33-.76.57-1.05.25-.29.55-.51.9-.67.35-.16.74-.23 1.16-.23.66 0 1.37.16 2.12.48l-.45 1.86c-.17-.07-.35-.13-.55-.18-.2-.05-.39-.07-.57-.07-.61 0-.91.38-.91 1.15v.76h1.89v1.88H73.1v5.6h-2.48z" class="st3"/>
    <path d="M89.93 20.82H38.07c-1.54 0-2.79 1.25-2.79 2.78V87c0 1.53 1.25 2.78 2.79 2.78h51.86c1.54 0 2.79-1.25 2.79-2.78V23.6c0-1.53-1.25-2.78-2.79-2.78zm-51.65 3h51.44v44.2H38.28v-44.2zm51.44 62.96H38.28V71.02h51.44v15.76z" class="st3"/>
    <path d="M63.98 31.9c7.72-.02 14.02 6.25 14.06 13.98.04 7.72-6.32 14.07-14.06 14.05-7.74-.02-14.02-6.31-14.02-14.02s6.28-13.99 14.02-14.01zm11.5 14.04c.04-6.26-5.09-11.44-11.38-11.49-6.35-.05-11.54 5.08-11.58 11.44-.04 6.25 5.11 11.44 11.39 11.5 6.34.06 11.53-5.07 11.57-11.45z" class="st3"/>
    <path d="M59.77 46.07c0-2.56-.01-5.13.01-7.69 0-.27-.04-.53.04-.8.25.08.52.12.73.25 4.29 2.72 8.57 5.45 12.85 8.19.1.07.1.18 0 .24-4.26 2.72-8.52 5.45-12.79 8.16-.23.15-.53.19-.8.29-.08-.29-.03-.58-.03-.87-.01-2.59-.01-5.18-.01-7.77z" class="st3"/>
</svg>