<svg xmlns="http://www.w3.org/2000/svg" id="Laag_1" x="0" y="0" version="1.1" viewBox="29 20.3 70 70" xml:space="preserve">
    <style>
        .st3{fill:#fff}
    </style>    <path d="M56.08 82.23c-.62 0-1.17-.1-1.66-.3-.49-.2-.91-.47-1.25-.82-.34-.34-.6-.74-.78-1.2-.18-.45-.27-.93-.27-1.42 0-.53.09-1.03.27-1.5.18-.47.43-.88.77-1.24s.75-.63 1.24-.84c.49-.21 1.05-.31 1.67-.31.63 0 1.18.1 1.67.31.48.21.9.48 1.23.83.34.35.59.75.76 1.21s.27.94.27 1.44c0 .13 0 .26-.01.39s-.02.24-.04.33h-5.43c.04.5.22.87.54 1.13.32.26.69.39 1.1.39.33 0 .64-.08.94-.24.3-.16.51-.37.61-.64l1.9.53c-.29.58-.74 1.05-1.34 1.41-.61.36-1.34.54-2.19.54zm1.56-4.51c-.05-.47-.21-.83-.5-1.11-.29-.27-.65-.41-1.08-.41-.44 0-.8.14-1.08.41s-.45.64-.5 1.1h3.16zM65.67 82.23c-.56 0-1.05-.12-1.46-.35s-.73-.56-.95-.98v4.17h-2.24V74.74h1.95v1.19c.27-.42.61-.75 1.02-.98.41-.23.89-.35 1.45-.35.5 0 .95.1 1.37.29.42.2.77.46 1.08.81.3.34.54.74.71 1.2.17.46.26.96.26 1.49 0 .55-.08 1.06-.24 1.53-.16.47-.38.87-.66 1.21-.28.34-.62.61-1.01.8-.39.2-.82.3-1.28.3zm-.75-1.89c.24 0 .46-.05.67-.16.2-.11.38-.25.52-.43s.26-.38.34-.62c.08-.24.12-.49.12-.75 0-.27-.04-.52-.13-.75s-.21-.43-.36-.59c-.15-.17-.34-.3-.56-.39-.22-.09-.46-.14-.71-.14-.31 0-.6.09-.89.27-.29.18-.5.43-.65.74v1.51c.15.37.38.69.68.94s.62.37.97.37zM72.88 82.23c-.63 0-1.24-.1-1.85-.3-.61-.2-1.12-.49-1.54-.88l.8-1.37c.45.31.88.55 1.31.71s.83.25 1.22.25c.29 0 .51-.05.67-.15.16-.1.24-.25.24-.45s-.1-.35-.3-.47c-.2-.12-.55-.24-1.06-.37-.5-.14-.91-.28-1.25-.41-.34-.13-.62-.28-.83-.43-.21-.16-.37-.34-.46-.55-.09-.21-.14-.45-.14-.73 0-.37.08-.71.22-1.02.15-.31.35-.57.62-.78.26-.21.57-.38.93-.5.36-.12.75-.18 1.17-.18.55 0 1.07.08 1.55.22s.95.42 1.39.81l-.87 1.34c-.42-.29-.79-.5-1.12-.63-.33-.13-.64-.2-.95-.2-.24 0-.45.05-.62.15s-.25.25-.25.47c0 .21.09.36.27.46.18.1.52.21 1.02.34.52.14.96.28 1.32.42.36.14.65.3.88.47.22.17.39.37.49.59.1.22.15.49.15.8 0 .73-.27 1.31-.81 1.74-.54.43-1.27.65-2.2.65z" class="st3"/>
    <path d="M89.93 20.82H38.07c-1.54 0-2.79 1.25-2.79 2.78V87c0 1.53 1.25 2.78 2.79 2.78h51.86c1.54 0 2.79-1.25 2.79-2.78V23.6c0-1.53-1.25-2.78-2.79-2.78zm-51.65 3h51.44v44.2H38.28v-44.2zm51.44 62.96H38.28V71.02h51.44v15.76z" class="st3"/>
    <path d="M81.22 58.75c-.81-4.22-2.63-10.76-6.45-13.94v-.35l3.42 1.65.02 1.54 2.86-.04-.04-2.86-2.86.04.01.56-3.42-1.66-.04-3.15-4.99.06.01.65-4.02-1.95-.02-1.53-2.85.04.04 2.86 2.85-.04-.01-.57 4.02 1.95.01.95c-2 .04-4.18.87-6.48 2.5-1.76 1.24-3.42 2.06-4.93 2.43l-.02-1.66-4.98.06.01.93c-3.77-2.37-5.14-8.73-5.5-10.9l1.71-.02-.06-4.98-4.98.06.06 4.98 1.89-.02c.34 2.27 1.88 10.06 6.9 12.46l.03 2.49 4.98-.06-.02-1.93c1.76-.38 3.67-1.29 5.69-2.71 2.06-1.45 3.98-2.21 5.71-2.24l.02 1.25 3.68-.05c3.82 2.77 5.64 9.63 6.36 13.23l-1.41.02.06 4.99 4.98-.06-.06-4.99-2.18.01zM45.95 34.98l-.03-2.25 2.25-.03.03 2.25-2.25.03zm11.07 14.89l-2.25.03-.03-2.26 2.25-.03.03 2.26zm25.06 12.49l-2.25.03-.03-2.26 2.25-.03.03 2.26z" class="st3"/>
</svg>