<svg xmlns="http://www.w3.org/2000/svg" id="Laag_1" x="0" y="0" version="1.1" viewBox="29 20.3 70 70" xml:space="preserve">
    <style>
        .st3{fill:#fff}
    </style>    <path d="M89.5 20.82H37.64c-1.54 0-2.79 1.25-2.79 2.78V87c0 1.53 1.25 2.78 2.79 2.78H89.5c1.54 0 2.79-1.25 2.79-2.78V23.6c0-1.53-1.25-2.78-2.79-2.78zm-51.65 3h51.44v44.2H37.85v-44.2zm51.44 62.96H37.85V71.02h51.44v15.76z" class="st3"/>
    <path d="M53.57 82.6c-.5 0-.96-.1-1.38-.3s-.77-.48-1.07-.83c-.29-.35-.52-.75-.69-1.22-.16-.46-.25-.96-.25-1.49 0-.56.09-1.08.26-1.56s.42-.89.72-1.25c.31-.35.68-.63 1.12-.83.44-.2.91-.3 1.44-.3.58 0 1.08.12 1.52.37.43.25.78.59 1.04 1.02v-1.25h2.02v7.09c0 .58-.11 1.1-.33 1.57s-.52.86-.91 1.18-.85.57-1.39.75-1.14.26-1.78.26c-.82 0-1.52-.13-2.1-.39-.58-.26-1.09-.64-1.52-1.13l1.25-1.26c.28.32.63.57 1.04.76.42.19.86.28 1.33.28.28 0 .55-.04.8-.12.25-.08.47-.2.67-.36.19-.16.35-.37.46-.62s.17-.56.17-.92v-.74c-.23.43-.57.75-1 .96-.45.22-.92.33-1.42.33zm.8-1.84c.36 0 .68-.1.96-.3s.5-.45.65-.76v-1.59c-.15-.41-.39-.73-.71-.96-.32-.24-.66-.36-1.02-.36-.25 0-.48.06-.69.17s-.39.26-.54.45c-.15.19-.27.41-.35.65-.08.25-.12.5-.12.76 0 .28.05.54.14.78.09.24.22.44.38.62.16.17.35.31.57.41.23.08.47.13.73.13zM63.53 82.72c-.64 0-1.21-.1-1.72-.31s-.94-.49-1.29-.85-.62-.77-.8-1.24-.28-.96-.28-1.47c0-.55.09-1.07.28-1.56s.45-.92.8-1.28c.35-.37.78-.66 1.28-.87.51-.21 1.08-.32 1.73-.32.65 0 1.22.11 1.73.32.5.21.93.5 1.28.86s.61.78.79 1.25.27.97.27 1.49c0 .14 0 .27-.01.4s-.02.24-.04.34h-5.63c.04.51.22.9.56 1.17s.71.4 1.14.4c.34 0 .66-.08.98-.25.31-.17.52-.39.63-.67l1.97.55c-.3.6-.76 1.09-1.39 1.46-.65.39-1.4.58-2.28.58zm1.61-4.67c-.05-.48-.22-.87-.52-1.15s-.67-.42-1.12-.42c-.45 0-.83.14-1.12.43s-.47.67-.51 1.14h3.27zM71.81 82.72c-.52 0-1-.1-1.44-.3s-.82-.48-1.14-.83c-.32-.36-.57-.78-.75-1.25s-.27-1-.27-1.57c0-.55.08-1.07.25-1.55.16-.48.4-.9.7-1.25.3-.35.66-.63 1.07-.83.41-.2.86-.3 1.36-.3.53 0 1.01.13 1.44.38.43.25.76.59.99 1.01v-4.22h2.32v7.97c0 .23.04.39.11.49.07.09.2.15.38.17v1.96c-.21.05-.4.08-.55.09-.16.01-.3.02-.44.02-.41 0-.73-.08-.99-.25a.99.99 0 01-.44-.73l-.04-.39c-.27.47-.64.83-1.09 1.06-.46.2-.95.32-1.47.32zm.62-1.96c.32 0 .63-.09.92-.28s.52-.45.67-.78v-1.59c-.14-.39-.38-.7-.7-.95-.32-.25-.66-.37-1.01-.37-.25 0-.48.06-.69.17s-.39.26-.54.44-.27.4-.36.64-.12.5-.12.77c0 .28.05.54.14.78.09.24.22.45.38.62.16.17.35.31.58.41s.47.14.73.14zM73.58 51.34v2.6h-3.72v-2.6h-5.29v-7.45h5.33v-7.2H57.33v7.2h5.25v7.45h-5.29v2.6h-3.72v-2.6H41v7.2h12.57v-2.61h3.72v2.61h12.57v-2.61h3.72v2.61h12.57v-7.2H73.58zm-14.26-9.45v-3.21h8.58v3.21h-8.58zm-7.74 14.65H43v-3.21h8.58v3.21zm16.29 0h-8.58v-3.21h8.58v3.21zm16.29 0h-8.58v-3.21h8.58v3.21z" class="st3"/>
</svg>