<svg xmlns="http://www.w3.org/2000/svg" id="Laag_1" x="0" y="0" version="1.1" viewBox="29 20.3 70 70" xml:space="preserve">
    <style>
        .st3,.st4{fill:#fff}.st4{stroke:#fff;stroke-width:3;stroke-miterlimit:10}
    </style>    <path d="M56.76 84.87h-2.48V80.3c0-.53-.1-.92-.31-1.16-.21-.25-.49-.37-.85-.37-.15 0-.3.03-.47.1-.17.07-.34.17-.5.29-.16.13-.31.28-.44.46s-.24.37-.31.59v4.67h-2.48V73.56h2.48v4.54c.3-.49.69-.86 1.19-1.12s1.03-.4 1.62-.4c.55 0 .99.1 1.33.29.34.19.59.43.77.73.18.29.3.63.36.99s.09.73.09 1.08v5.2zM62.3 85.03c-.68 0-1.29-.11-1.84-.33-.54-.22-1-.52-1.38-.91-.38-.38-.66-.82-.86-1.33s-.29-1.03-.29-1.57c0-.59.1-1.14.29-1.67.2-.52.48-.98.85-1.37s.83-.7 1.37-.93 1.16-.34 1.85-.34c.69 0 1.31.11 1.84.34s.99.53 1.36.92.65.83.84 1.34a4.536 4.536 0 01.27 2.03c-.01.14-.03.26-.05.36h-6.01c.04.55.24.96.6 1.25.36.28.76.43 1.22.43.36 0 .71-.09 1.05-.26s.56-.41.67-.71l2.11.59c-.32.64-.82 1.16-1.49 1.57-.66.39-1.46.59-2.4.59zm1.72-4.99c-.05-.52-.24-.92-.56-1.22s-.72-.45-1.19-.45c-.49 0-.89.15-1.2.46-.32.3-.5.71-.55 1.22h3.5zM67.77 75.81v-2.25h2.48v2.25h-2.48zm0 9.06v-8.14h2.48v8.14h-2.48zM71.47 80.8c0-.56.1-1.09.29-1.6s.48-.96.85-1.35.83-.69 1.37-.92c.54-.23 1.16-.34 1.85-.34.94 0 1.73.2 2.37.6.64.4 1.12.92 1.44 1.56l-2.42.73c-.32-.52-.79-.78-1.41-.78-.52 0-.95.19-1.29.57-.35.38-.52.89-.52 1.54 0 .32.05.61.14.88.09.26.22.49.39.67.17.19.36.33.58.43.22.1.46.16.71.16.31 0 .59-.08.85-.22s.45-.34.57-.58l2.42.74c-.3.63-.78 1.15-1.43 1.55-.66.4-1.46.6-2.39.6-.68 0-1.29-.12-1.84-.35s-1-.54-1.38-.93-.66-.84-.86-1.35c-.19-.52-.29-1.06-.29-1.61z" class="st3"/>
    <path d="M89.93 20.82H38.07c-1.54 0-2.79 1.25-2.79 2.78V87c0 1.53 1.25 2.78 2.79 2.78h51.86c1.54 0 2.79-1.25 2.79-2.78V23.6c0-1.53-1.25-2.78-2.79-2.78zm-51.65 3h51.44v44.2H38.28v-44.2zm51.44 62.96H38.28V71.02h51.44v15.76zM43.54 35h40.92" class="st3"/>
    <path d="M43.54 33.5h40.93v3H43.54z" class="st3"/>
    <path d="M43.54 45.72h40.92M43.54 54.93h40.92" class="st4"/>
</svg>