<svg xmlns="http://www.w3.org/2000/svg" id="Laag_1" x="0" y="0" version="1.1" viewBox="29 20.3 70 70" xml:space="preserve">
    <style>
        .st3{fill:#fff}
    </style>    <path d="M54.3 85.32c-.37 0-.73-.06-1.06-.17-.34-.12-.64-.29-.91-.53l.94-1.53c.1.1.22.18.35.22.13.05.27.07.41.07.21 0 .39-.07.53-.21.14-.14.21-.33.21-.56v-7.48H57v7.31c0 .42-.07.81-.2 1.16s-.32.66-.57.91-.53.45-.86.59c-.33.15-.69.22-1.07.22zm.46-11.02v-2.03H57v2.03h-2.24zM63.17 82.63c-.56 0-1.05-.12-1.46-.35s-.73-.56-.95-.98v4.17h-2.24V75.14h1.95v1.19c.27-.42.61-.75 1.02-.98.41-.23.89-.35 1.45-.35.49 0 .95.1 1.36.29.42.2.78.46 1.08.81.3.34.54.74.71 1.2.17.46.26.96.26 1.49 0 .55-.08 1.06-.24 1.53-.16.47-.38.87-.66 1.21s-.62.61-1.01.8c-.38.2-.81.3-1.27.3zm-.75-1.89c.24 0 .46-.05.67-.16.2-.11.38-.25.52-.43.15-.18.26-.38.34-.62.08-.24.12-.49.12-.75 0-.27-.04-.52-.13-.75a1.83 1.83 0 00-.36-.59c-.15-.17-.34-.3-.56-.39-.22-.09-.46-.14-.71-.14-.31 0-.6.09-.89.27-.29.18-.5.43-.65.74v1.51c.15.37.38.69.68.94s.62.37.97.37zM70.34 82.52c-.49 0-.93-.1-1.33-.29-.4-.2-.74-.46-1.03-.8-.29-.34-.51-.73-.67-1.18-.16-.45-.24-.93-.24-1.44 0-.54.08-1.04.25-1.5.17-.46.4-.86.7-1.2s.66-.61 1.08-.81c.43-.2.89-.3 1.4-.3.56 0 1.05.12 1.46.36s.75.57 1 .99v-1.2h1.95V82c0 .56-.11 1.06-.32 1.51s-.5.83-.88 1.14c-.37.31-.82.55-1.34.72s-1.1.25-1.72.25c-.79 0-1.47-.13-2.03-.38s-1.05-.62-1.47-1.09l1.2-1.22c.27.31.61.55 1.01.74s.83.27 1.29.27c.27 0 .53-.04.77-.11.24-.08.46-.19.64-.34.19-.15.33-.36.44-.6s.16-.54.16-.89v-.71c-.22.41-.55.72-.97.93s-.86.3-1.35.3zm.77-1.78c.34 0 .65-.1.92-.29s.48-.44.63-.74v-1.54c-.15-.39-.38-.7-.69-.93-.31-.23-.63-.34-.98-.34-.24 0-.46.05-.67.16s-.37.25-.52.43c-.15.18-.26.39-.34.63-.08.24-.12.48-.12.74 0 .27.04.52.13.75s.21.43.37.59c.16.17.34.3.55.39.24.1.47.15.72.15z" class="st3"/>
    <path d="M89.93 20.82H38.07c-1.54 0-2.79 1.25-2.79 2.78V87c0 1.53 1.25 2.78 2.79 2.78h51.86c1.54 0 2.79-1.25 2.79-2.78V23.6c0-1.53-1.25-2.78-2.79-2.78zm-51.65 3h51.44v44.2H38.28v-44.2zm51.44 62.96H38.28V71.02h51.44v15.76z" class="st3"/>
    <path d="M46.06 58.94h35.73c.93 0 1.5-1.01 1.02-1.81l-7.45-12.41a.51.51 0 00-.72-.16l-8.66 5.78c-.25.17-.59.08-.73-.18l-8.92-16.79c-.2-.38-.75-.35-.92.04L45.1 57.48c-.3.69.21 1.46.96 1.46z" class="st3"/>
    <circle cx="70.39" cy="36.57" r="3.67" class="st3"/>
</svg>