<svg xmlns="http://www.w3.org/2000/svg" id="Laag_1" x="0" y="0" version="1.1" viewBox="29 20.3 70 70" xml:space="preserve">
    <style>
        .st3{fill:#fff}
    </style>    <path d="M89.93 20.82H38.07c-1.54 0-2.79 1.25-2.79 2.78V87c0 1.53 1.25 2.78 2.79 2.78h51.86c1.54 0 2.79-1.25 2.79-2.78V23.6c0-1.53-1.25-2.78-2.79-2.78zm-51.65 3h51.44v44.2H38.28v-44.2zm51.44 62.96H38.28V71.02h51.44v15.76z" class="st3"/>
    <path d="M60.44 84.19h-2.48v-4.57c0-.54-.1-.93-.29-1.17a.942.942 0 00-.76-.36c-.17 0-.33.04-.5.11s-.33.17-.47.3-.28.28-.4.46-.21.37-.29.57v4.67h-2.48v-4.57c0-.54-.1-.93-.29-1.17a.942.942 0 00-.76-.36c-.33 0-.65.13-.97.4-.32.26-.54.61-.69 1.05v4.67h-2.48v-8.14h2.23v1.36c.3-.5.71-.87 1.22-1.13.51-.26 1.11-.39 1.79-.39.34 0 .64.04.89.12.25.08.47.2.66.34.19.14.34.31.45.5.11.19.2.4.25.61.31-.51.72-.9 1.22-1.17.51-.27 1.08-.41 1.74-.41.52 0 .93.1 1.25.29s.56.44.74.74.29.64.35 1 .09.71.09 1.05v5.2zM65.45 84.34c-.56 0-1.07-.11-1.54-.32-.47-.21-.88-.51-1.22-.89a4.19 4.19 0 01-.8-1.34c-.19-.51-.29-1.07-.29-1.68 0-.59.09-1.14.26-1.66s.42-.96.74-1.34c.32-.38.7-.67 1.14-.89s.92-.33 1.45-.33c.57 0 1.08.13 1.54.4s.81.63 1.06 1.08v-4.51h2.48v8.53c0 .25.04.42.12.52.08.1.21.16.41.18v2.09c-.23.05-.42.08-.59.1-.17.02-.32.02-.47.02-.43 0-.79-.09-1.05-.27s-.42-.44-.46-.78l-.05-.42c-.29.51-.68.88-1.17 1.13s-1 .38-1.56.38zm.67-2.09c.34 0 .67-.1.98-.3.32-.2.56-.48.72-.83v-1.71c-.15-.41-.41-.75-.75-1.01-.35-.26-.71-.4-1.08-.4-.27 0-.51.06-.74.18-.22.12-.42.28-.58.47-.17.2-.29.42-.38.68-.09.26-.13.53-.13.82 0 .3.05.58.15.84.1.26.23.48.4.67.17.19.38.33.62.43.25.11.51.16.79.16zM77.09 84.34c-.62 0-1.16-.13-1.63-.4s-.83-.63-1.1-1.11v1.35h-2.15V72.87h2.48v4.51c.27-.46.63-.83 1.08-1.09.45-.26.98-.4 1.59-.4.52 0 .99.11 1.43.33.43.22.81.52 1.12.91.31.38.55.83.73 1.36s.26 1.08.26 1.67-.1 1.14-.29 1.65c-.19.51-.46.96-.8 1.33s-.74.67-1.21.88a3.5 3.5 0 01-1.51.32zm-.7-2.09c.29 0 .55-.05.79-.16s.44-.26.61-.44a2.228 2.228 0 00.55-1.49c0-.29-.05-.57-.14-.83-.09-.26-.22-.49-.38-.69-.16-.2-.35-.35-.58-.46-.22-.12-.47-.18-.73-.18-.39 0-.75.13-1.08.4-.33.27-.58.6-.75 1.01v1.71c.17.35.41.63.72.83.32.2.65.3.99.3zM64 28.27c-7.01 0-12.29 2.93-12.29 6.83v17.59c0 3.89 5.28 6.83 12.29 6.83 1.96 0 3.78-.23 5.39-.64.28-1.32.96-2.51 1.57-3.39-1.73.81-4.17 1.38-6.96 1.38-5.49 0-9.6-2.19-9.64-4.18v-1.52c2.22 1.55 5.73 2.49 9.64 2.49 3.08 0 5.86-.57 7.98-1.54-.07-.78-.11-1.51-.14-2.18-1.78.99-4.52 1.72-7.84 1.72-4.32 0-8.27-1.32-9.64-3.21v-3.4c2.19 1.53 5.66 2.51 9.64 2.51 3.08 0 5.85-.59 7.96-1.57.13-1.08.34-1.95.61-2.63-1.72 1.25-4.78 2.2-8.57 2.2-4.79 0-8.41-1.52-9.64-3.21v-2.92c2.21 1.55 5.64 2.5 9.64 2.5 3.99 0 7.43-.95 9.64-2.5v2.27c.83-.75 1.82-.77 2.65-.57V35.1c0-3.9-5.29-6.83-12.29-6.83zm0 11.01c-5.52 0-9.64-2.21-9.64-4.18 0-1.98 4.12-4.19 9.64-4.19 5.51 0 9.64 2.21 9.64 4.19 0 1.97-4.13 4.18-9.64 4.18z" class="st3"/>
    <path d="M76.9 42.66l-1.16.03c-.09.04-.19.08-.28.12-.55.23-.89.64-.97 1.24a.43.43 0 01-.2.33c-.15.1-.3.22-.45.34-.27.22-.26.52.02.73.13.1.27.19.44.32-.29.27-.54.49-.75.81.26.31.52.51.84.8-.32.32-.57.57-.83.87.25.26.53.53.8.79 0 0 .01.01.03.08-.24.23-.54.49-.76.81.22.3.49.53.75.8.01.01.01.02.02.05-.27.27-.55.55-.78.84.23.29.5.56.78.85-.29.32-.55.62-.83.91-.02.02-.02.04-.01.06.2.38.41.78.58 1.11-.47.38-.96.73-1.38 1.14-.94.93-1.53 2.05-1.67 3.38-.26 2.54 1.42 4.66 3.23 5.43.52.22 1.05.37 1.61.43.05.01.1.03.15.04l1.22-.03c.25-.06.5-.12.75-.19 2.15-.6 3.76-2.55 3.92-4.77.16-2.21-.76-3.91-2.61-5.15-.08-3.36-.17-6.72-.25-10.09-.02-.74-.24-1.26-.71-1.64-.25-.15-1.09-.42-1.5-.44zm-.37 17.27c.68-.03 1.28.53 1.3 1.22.02.7-.51 1.28-1.21 1.3-.7.03-1.28-.51-1.3-1.21-.03-.7.51-1.28 1.21-1.31z" class="st3"/>
</svg>