<svg xmlns="http://www.w3.org/2000/svg" id="Laag_1" x="0" y="0" version="1.1" viewBox="29 20.3 70 70" xml:space="preserve">
    <style>
        .st3{fill:#fff}
    </style>    <path d="M89.58 20.82H37.72c-1.54 0-2.79 1.25-2.79 2.78V87c0 1.53 1.25 2.78 2.79 2.78h51.86c1.54 0 2.79-1.25 2.79-2.78V23.6c0-1.53-1.25-2.78-2.79-2.78zm-51.65 3h51.44v44.2H37.93v-44.2zm51.44 62.96H37.93V71.02h51.44v15.76z" class="st3"/>
    <path d="M55.73 84.36c-.67 0-1.27-.11-1.79-.33-.53-.22-.97-.52-1.33-.89s-.63-.81-.82-1.31c-.19-.49-.28-1.01-.28-1.55s.09-1.06.28-1.55c.18-.5.46-.93.82-1.3s.8-.68 1.33-.9a4.57 4.57 0 011.79-.34c.67 0 1.26.11 1.78.34s.96.53 1.32.9c.36.38.63.81.82 1.3s.29 1.01.29 1.55-.09 1.06-.28 1.55c-.19.5-.46.93-.82 1.31-.36.38-.8.67-1.33.89-.52.22-1.11.33-1.78.33zm-1.76-4.08c0 .62.17 1.12.5 1.49s.75.56 1.26.56c.25 0 .48-.05.69-.15.21-.1.39-.24.55-.42.15-.18.28-.4.37-.65.09-.25.13-.53.13-.83 0-.62-.17-1.12-.5-1.49-.33-.38-.75-.56-1.24-.56a1.661 1.661 0 00-1.26.57c-.15.18-.28.4-.37.65s-.13.53-.13.83zM64.4 84.36c-.54 0-1.04-.1-1.49-.31a3.49 3.49 0 01-1.18-.86c-.33-.37-.59-.8-.77-1.3s-.28-1.04-.28-1.63c0-.57.08-1.1.25-1.6s.41-.93.72-1.3.68-.65 1.1-.86a3.1 3.1 0 011.4-.32c.55 0 1.05.13 1.49.39.44.26.79.61 1.03 1.05v-4.37h2.4v8.25c0 .24.04.41.11.5.07.09.21.15.4.17v2.03c-.22.05-.41.08-.57.1-.16.01-.31.02-.45.02-.42 0-.76-.09-1.02-.26s-.41-.43-.45-.76l-.04-.4c-.28.49-.66.85-1.13 1.09s-.98.37-1.52.37zm.64-2.02c.33 0 .65-.1.95-.29.3-.19.54-.46.7-.8V79.6c-.15-.4-.39-.73-.73-.98s-.68-.38-1.04-.38c-.26 0-.5.06-.71.17-.22.12-.4.27-.56.46-.16.19-.28.41-.37.66s-.13.52-.13.79c0 .29.05.56.14.81a1.807 1.807 0 00.99 1.06c.24.1.49.15.76.15zM76.04 83.79c-.33.14-.71.27-1.13.39s-.85.18-1.28.18c-.3 0-.58-.04-.85-.11-.26-.07-.5-.19-.7-.36s-.36-.38-.47-.65c-.12-.27-.17-.6-.17-.98v-4.11h-1v-1.82h1v-2.5h2.4v2.5h1.61v1.82h-1.61v3.28c0 .26.07.45.2.56.13.12.29.17.5.17.18 0 .36-.03.55-.09a4 4 0 00.5-.2l.45 1.92z" class="st3"/></svg>