<svg xmlns="http://www.w3.org/2000/svg" id="Laag_1" x="0" y="0" version="1.1" viewBox="29 20.3 70 70" xml:space="preserve">
    <style>
        .st3{fill:#fff}.st4{fill:none;stroke:#fff;stroke-linecap:round;stroke-miterlimit:10}
    </style>    <path d="M89.93 20.82H38.07c-1.54 0-2.79 1.25-2.79 2.78V87c0 1.53 1.25 2.78 2.79 2.78h51.86c1.54 0 2.79-1.25 2.79-2.78V23.6c0-1.53-1.25-2.78-2.79-2.78zm-51.65 3h51.44v44.2H38.28v-44.2zm51.44 62.96H38.28V71.02h51.44v15.76z" class="st3"/>
    <path d="M55.01 83.14c-.62 0-1.16-.13-1.61-.39a2.6 2.6 0 01-1.05-1.08v4.62h-2.48V74.85h2.15v1.32c.3-.46.67-.83 1.12-1.08.45-.26.98-.39 1.6-.39.55 0 1.05.11 1.51.33s.86.51 1.19.89c.34.38.6.82.79 1.33.19.51.29 1.06.29 1.65 0 .61-.09 1.17-.26 1.69-.18.52-.42.96-.73 1.34-.31.38-.68.67-1.12.89-.42.22-.89.32-1.4.32zm-.84-2.09c.27 0 .51-.06.74-.18.22-.12.42-.28.58-.47.17-.2.29-.43.38-.69s.13-.54.13-.83a2.228 2.228 0 00-.55-1.49c-.17-.19-.38-.33-.62-.43-.24-.1-.5-.16-.78-.16-.34 0-.67.1-.98.3-.32.2-.56.47-.72.81v1.67c.17.41.42.76.75 1.04.33.29.69.43 1.07.43zM63.16 83.14c-.56 0-1.07-.11-1.54-.32-.47-.21-.88-.51-1.22-.89a4.19 4.19 0 01-.8-1.34c-.19-.51-.29-1.07-.29-1.68 0-.59.09-1.14.26-1.66s.42-.96.74-1.34c.32-.38.7-.67 1.14-.89s.92-.33 1.45-.33c.57 0 1.08.13 1.54.4s.81.63 1.06 1.08v-4.51H68v8.53c0 .25.04.42.12.52.08.1.21.16.41.18v2.09c-.23.05-.42.08-.59.1-.17.02-.32.02-.47.02-.43 0-.79-.09-1.05-.27s-.42-.44-.46-.78l-.05-.42c-.29.51-.68.88-1.17 1.13s-1.02.38-1.58.38zm.67-2.09c.34 0 .67-.1.98-.3.32-.2.56-.48.72-.83v-1.71c-.15-.41-.41-.75-.75-1.01-.35-.26-.71-.4-1.08-.4-.27 0-.51.06-.74.18-.22.12-.42.28-.58.47-.17.2-.29.42-.38.68-.09.26-.13.53-.13.82 0 .3.05.58.15.84.1.26.23.48.4.67.17.19.38.33.62.43.25.11.51.16.79.16zM74.8 83.14c-.62 0-1.16-.13-1.63-.4s-.83-.63-1.1-1.11v1.35h-2.15V71.67h2.48v4.51c.27-.46.63-.83 1.08-1.09.45-.26.98-.4 1.59-.4.52 0 .99.11 1.43.33.43.22.81.52 1.12.91.31.38.55.83.73 1.36s.26 1.08.26 1.67-.1 1.14-.29 1.65c-.19.51-.46.96-.8 1.33s-.74.67-1.21.88a3.5 3.5 0 01-1.51.32zm-.69-2.09c.29 0 .55-.05.79-.16s.44-.26.61-.44a2.228 2.228 0 00.55-1.49c0-.29-.05-.57-.14-.83-.09-.26-.22-.49-.38-.69-.16-.2-.35-.35-.58-.46a1.664 1.664 0 00-1.81.23c-.33.27-.58.6-.75 1.01v1.71c.17.35.41.63.72.83.32.19.64.29.99.29zM59.11 31.96c-6.35 0-11.13 2.65-11.13 6.18v15.93c0 3.52 4.78 6.18 11.13 6.18.37 0 .74-.01 1.1-.03v-2.41c-.36.03-.72.04-1.1.04-4.97 0-8.69-1.98-8.73-3.78v-1.38c2.01 1.4 5.19 2.25 8.73 2.25.37 0 .74-.01 1.1-.03V53.1c-.36.03-.72.04-1.1.04-3.91 0-7.49-1.2-8.73-2.91v-3.08c1.98 1.39 5.12 2.27 8.73 2.27.37 0 .74-.01 1.1-.03v-.09c0-.82.67-1.48 1.49-1.48h4.99c.41-.21.8-.43 1.14-.68v.68h2.4v-9.68c.01-3.53-4.78-6.18-11.12-6.18zm8.73 12.74c-1.11 1.53-4.39 2.91-8.73 2.91-4.34 0-7.61-1.38-8.73-2.91v-2.64c2 1.4 5.11 2.26 8.73 2.26 3.61 0 6.73-.86 8.73-2.26v2.64zm-8.73-2.78c-5 0-8.73-2-8.73-3.78 0-1.79 3.73-3.79 8.73-3.79 4.99 0 8.73 2 8.73 3.79 0 1.78-3.74 3.78-8.73 3.78z" class="st3"/>
    <path d="M68.2 53.98l-2.26 2.26 2.31 2.3M73.7 53.99l2.25 2.25-2.3 2.3M72.83 51.66l-3.46 8.49" class="st4"/></svg>