<svg xmlns="http://www.w3.org/2000/svg" id="Laag_1" x="0" y="0" version="1.1" viewBox="29 20.3 70 70" xml:space="preserve">
    <style>
        .st3{fill:#fff}
    </style>    <path d="M89.97 20.82H38.11c-1.54 0-2.79 1.25-2.79 2.78V87c0 1.53 1.25 2.78 2.79 2.78h51.86c1.54 0 2.79-1.25 2.79-2.78V23.6c0-1.53-1.25-2.78-2.79-2.78zm-51.65 3h51.44v44.2H38.32v-44.2zm51.44 62.96H38.32V71.02h51.44v15.76z" class="st3"/>
    <path d="M52.85 82.88c-.62 0-1.16-.13-1.61-.39a2.6 2.6 0 01-1.05-1.08v4.62h-2.48V74.59h2.15v1.32c.3-.46.67-.83 1.12-1.08.45-.26.98-.39 1.6-.39.55 0 1.05.11 1.51.33s.86.51 1.19.89c.34.38.6.82.79 1.33.19.51.29 1.06.29 1.65 0 .61-.09 1.17-.26 1.69-.18.52-.42.96-.73 1.34-.31.38-.68.67-1.12.89a3.1 3.1 0 01-1.4.32zm-.83-2.09c.27 0 .51-.06.74-.18.22-.12.42-.28.58-.47.17-.2.29-.43.38-.69s.13-.54.13-.83a2.228 2.228 0 00-.55-1.49c-.17-.19-.38-.33-.62-.43-.24-.1-.5-.16-.78-.16-.34 0-.67.1-.98.3-.32.2-.56.47-.72.81v1.67c.17.41.42.76.75 1.04.32.29.68.43 1.07.43zM62.77 82.88c-.62 0-1.16-.13-1.61-.39a2.6 2.6 0 01-1.05-1.08v4.62h-2.48V74.59h2.15v1.32c.3-.46.67-.83 1.12-1.08.45-.26.98-.39 1.6-.39.55 0 1.05.11 1.51.33s.86.51 1.19.89c.34.38.6.82.79 1.33.19.51.29 1.06.29 1.65 0 .61-.09 1.17-.26 1.69-.18.52-.42.96-.73 1.34-.31.38-.68.67-1.12.89a3.1 3.1 0 01-1.4.32zm-.83-2.09c.27 0 .51-.06.74-.18.22-.12.42-.28.58-.47.17-.2.29-.43.38-.69s.13-.54.13-.83a2.228 2.228 0 00-.55-1.49c-.17-.19-.38-.33-.62-.43-.24-.1-.5-.16-.78-.16-.34 0-.67.1-.98.3-.32.2-.56.47-.72.81v1.67c.17.41.42.76.75 1.04.32.29.68.43 1.07.43zM72.71 82.29c-.34.14-.73.28-1.17.4s-.88.19-1.33.19c-.31 0-.6-.04-.88-.12-.27-.08-.51-.2-.72-.37-.21-.17-.37-.4-.49-.67-.12-.28-.18-.61-.18-1.01v-4.25H66.9v-1.88h1.04V72h2.48v2.59h1.66v1.88h-1.66v3.39c0 .27.07.46.2.58.13.12.3.18.51.18.19 0 .38-.03.57-.09.2-.06.37-.13.51-.2l.5 1.96zM75.39 74.59l1.47 2.29.15.29.16-.29 1.46-2.29h2.54l-2.82 4.08 2.88 4.06h-2.54l-1.53-2.28-.14-.29-.14.29-1.53 2.28H72.8l2.88-4.06-2.82-4.08h2.53zM62.48 36.34c-7.47 0-13.53 6.06-13.53 13.53S55.01 63.4 62.48 63.4s13.53-6.06 13.53-13.53H62.48V36.34z" class="st3"/>
    <path d="M79.14 46.56H65.61V33.03c7.47 0 13.53 6.06 13.53 13.53z" class="st3"/>
</svg>