<svg xmlns="http://www.w3.org/2000/svg" id="Laag_1" x="0" y="0" version="1.1" viewBox="29 20.3 70 70" xml:space="preserve">
    <style>
        .st3{fill:#fff}
    </style>    <path d="M89.93 20.82H38.07c-1.54 0-2.79 1.25-2.79 2.78V87c0 1.53 1.25 2.78 2.79 2.78h51.86c1.54 0 2.79-1.25 2.79-2.78V23.6c0-1.53-1.25-2.78-2.79-2.78zm-51.65 3h51.44v44.2H38.28v-44.2zm51.44 62.96H38.28V71.02h51.44v15.76z" class="st3"/>
    <path d="M53.18 83.14c-.4 0-.78-.06-1.12-.19-.35-.13-.64-.31-.89-.54a2.526 2.526 0 01-.81-1.85c0-.4.08-.77.26-1.1.17-.33.41-.61.72-.85s.68-.42 1.1-.56c.42-.13.89-.2 1.41-.2.34 0 .67.03.99.09s.6.14.84.26v-.37c0-.94-.54-1.41-1.63-1.41-.44 0-.87.08-1.27.23-.4.15-.83.37-1.27.67l-.73-1.55c.54-.35 1.09-.62 1.67-.79.58-.17 1.19-.26 1.84-.26 1.23 0 2.18.29 2.85.87.67.58 1.01 1.43 1.01 2.54v2.09c0 .25.04.42.12.52.08.1.21.16.41.18v2.09c-.22.05-.41.08-.59.1s-.34.02-.48.02c-.46 0-.82-.09-1.05-.27-.24-.18-.39-.44-.45-.77l-.05-.37c-.36.46-.79.82-1.29 1.07-.5.23-1.03.35-1.59.35zm.73-1.78c.27 0 .53-.05.78-.14.25-.09.46-.22.63-.37.24-.19.36-.38.36-.59v-.78c-.22-.08-.45-.15-.71-.19-.25-.05-.49-.07-.71-.07-.46 0-.83.1-1.12.31-.29.21-.44.47-.44.81 0 .3.11.54.34.74s.52.28.87.28zM65.1 83.14c-.62 0-1.16-.13-1.61-.39a2.6 2.6 0 01-1.05-1.08v4.62h-2.48V74.85h2.15v1.32c.3-.46.67-.83 1.12-1.08.45-.26.98-.39 1.6-.39.55 0 1.05.11 1.51.33s.86.51 1.19.89c.34.38.6.82.79 1.33.19.51.29 1.06.29 1.65 0 .61-.09 1.17-.26 1.69-.18.52-.42.96-.73 1.34-.31.38-.68.67-1.12.89-.42.22-.89.32-1.4.32zm-.84-2.09c.27 0 .51-.06.74-.18.22-.12.42-.28.58-.47.17-.2.29-.43.38-.69s.13-.54.13-.83a2.228 2.228 0 00-.55-1.49c-.17-.19-.38-.33-.62-.43-.24-.1-.5-.16-.78-.16-.34 0-.67.1-.98.3-.32.2-.56.47-.72.81v1.67c.17.41.42.76.75 1.04.33.29.69.43 1.07.43zM75.35 82.99l-2.12-3.27-.87.9v2.37h-2.48V71.67h2.48v6.56l2.74-3.38h2.63l-2.93 3.5 3.18 4.63h-2.63zM64 31.39c-7.01 0-12.29 2.93-12.29 6.83v17.59c0 3.89 5.28 6.83 12.29 6.83 7 0 12.29-2.94 12.29-6.83V38.22c0-3.9-5.29-6.83-12.29-6.83zm9.64 24.43C73.64 57.8 69.51 60 64 60c-5.49 0-9.6-2.19-9.64-4.18V54.3c2.22 1.55 5.73 2.49 9.64 2.49 3.97 0 7.44-.94 9.64-2.48v1.51zm0-4.23c-1.23 1.66-4.82 3.19-9.64 3.19-4.32 0-8.27-1.32-9.64-3.21v-3.4c2.19 1.53 5.66 2.51 9.64 2.51 3.98 0 7.45-.98 9.64-2.52v3.43zm0-6.12c-1.23 1.69-4.85 3.21-9.64 3.21-4.79 0-8.41-1.52-9.64-3.21v-2.92c2.21 1.55 5.64 2.5 9.64 2.5 3.99 0 7.43-.95 9.64-2.5v2.92zM64 42.4c-5.52 0-9.64-2.21-9.64-4.18 0-1.98 4.12-4.19 9.64-4.19 5.51 0 9.64 2.21 9.64 4.19 0 1.98-4.13 4.18-9.64 4.18z" class="st3"/>
</svg>