<svg xmlns="http://www.w3.org/2000/svg" id="Laag_1" x="0" y="0" version="1.1" viewBox="29 20.3 70 70" xml:space="preserve">
    <style>
        .st3{fill:#fff}
    </style>    <path d="M56 82.23c-.63 0-1.24-.1-1.85-.3-.61-.2-1.12-.49-1.54-.88l.8-1.37c.45.31.88.55 1.31.71.42.17.83.25 1.22.25.29 0 .51-.05.67-.15.16-.1.24-.25.24-.45s-.1-.35-.3-.47c-.2-.12-.55-.24-1.06-.37-.5-.14-.91-.28-1.25-.41-.34-.13-.62-.28-.83-.43-.21-.16-.37-.34-.46-.55-.09-.21-.14-.45-.14-.73 0-.37.07-.71.22-1.02.15-.31.35-.57.62-.78s.57-.38.93-.5c.36-.12.75-.18 1.17-.18.55 0 1.07.08 1.55.22s.95.42 1.39.81l-.87 1.34c-.42-.29-.79-.5-1.12-.63-.33-.13-.64-.2-.95-.2-.24 0-.45.05-.62.15s-.25.25-.25.47c0 .21.09.36.27.46.18.1.52.21 1.02.34.52.14.96.28 1.32.42.36.14.65.3.88.47.22.17.39.37.49.59s.15.49.15.8c0 .73-.27 1.31-.81 1.74-.54.43-1.28.65-2.2.65zM61.85 82.09l-2.6-7.35h2.31l1.61 5.56 1.62-5.56h2.09l-2.59 7.35h-2.44zM70.33 82.12c-.49 0-.93-.1-1.33-.29-.4-.2-.74-.46-1.03-.8-.28-.34-.51-.73-.67-1.18-.16-.45-.24-.93-.24-1.44 0-.54.08-1.04.25-1.5.17-.46.4-.86.7-1.2s.66-.61 1.08-.81c.42-.2.88-.29 1.39-.29.56 0 1.05.12 1.46.36.42.24.75.57 1 .99v-1.2h1.95v6.85c0 .56-.1 1.06-.31 1.51s-.5.83-.88 1.14c-.37.31-.82.55-1.34.72-.52.17-1.1.25-1.72.25-.79 0-1.47-.13-2.03-.38a4.34 4.34 0 01-1.47-1.09l1.2-1.22c.27.31.61.55 1.01.74s.83.27 1.29.27c.27 0 .53-.04.77-.11.24-.08.46-.19.64-.34.19-.15.33-.36.44-.6.11-.25.16-.54.16-.89v-.71c-.22.41-.55.72-.97.93s-.86.29-1.35.29zm.77-1.78c.35 0 .65-.1.92-.29.27-.19.48-.44.63-.74v-1.54c-.15-.39-.38-.7-.69-.93s-.63-.34-.98-.34c-.24 0-.46.05-.67.16-.2.11-.37.25-.52.43-.14.18-.26.39-.34.63-.08.24-.12.48-.12.74 0 .27.04.52.13.75.09.23.21.43.37.59.16.17.34.3.55.39.24.1.47.15.72.15z" class="st3"/>
    <path d="M89.93 20.82H38.07c-1.54 0-2.79 1.25-2.79 2.78V87c0 1.53 1.25 2.78 2.79 2.78h51.86c1.54 0 2.79-1.25 2.79-2.78V23.6c0-1.53-1.25-2.78-2.79-2.78zm-51.65 3h51.44v44.2H38.28v-44.2zm51.44 62.96H38.28V71.02h51.44v15.76z" class="st3"/>
    <path d="M81.22 58.75c-.81-4.22-2.63-10.76-6.45-13.94v-.35l3.42 1.65.02 1.54 2.86-.04-.04-2.86-2.86.04.01.56-3.42-1.66-.04-3.15-4.99.06.01.65-4.02-1.95-.02-1.53-2.85.04.04 2.86 2.85-.04-.01-.57 4.02 1.95.01.95c-2 .04-4.18.87-6.48 2.5-1.76 1.24-3.42 2.06-4.93 2.43l-.02-1.66-4.98.06.01.93c-3.77-2.37-5.14-8.73-5.5-10.9l1.71-.02-.06-4.98-4.98.06.06 4.98 1.89-.02c.34 2.27 1.88 10.06 6.9 12.46l.03 2.49 4.98-.06-.02-1.93c1.76-.38 3.67-1.29 5.69-2.71 2.06-1.45 3.98-2.21 5.71-2.24l.02 1.25 3.68-.05c3.82 2.77 5.64 9.63 6.36 13.23l-1.41.02.06 4.99 4.98-.06-.06-4.99-2.18.01zM45.95 34.98l-.03-2.25 2.25-.03.03 2.25-2.25.03zm11.07 14.89l-2.25.03-.03-2.26 2.25-.03.03 2.26zm25.06 12.49l-2.25.03-.03-2.26 2.25-.03.03 2.26z" class="st3"/>
</svg>