<svg xmlns="http://www.w3.org/2000/svg" id="Laag_1" x="0" y="0" version="1.1" viewBox="29 20.3 70 70" xml:space="preserve">
    <style>
        .st3{fill:#fff}
    </style>    <path d="M55.89 83.2c-.31.13-.66.25-1.06.36-.4.11-.8.17-1.2.17a2.9 2.9 0 01-.79-.1c-.25-.07-.46-.18-.65-.34-.19-.15-.33-.36-.44-.61-.11-.25-.16-.55-.16-.91v-3.84h-.94v-1.69h.94V73.9h2.24v2.34h1.5v1.69h-1.5V81c0 .24.06.42.18.52.12.11.28.16.46.16.17 0 .34-.03.52-.08.18-.06.33-.12.46-.18l.44 1.78zM63.84 83.59H61.6v-4.13c0-.48-.09-.83-.28-1.05a.963.963 0 00-.77-.34c-.13 0-.27.03-.43.09-.15.06-.3.15-.45.27a2.068 2.068 0 00-.68.94v4.21h-2.24V73.37h2.24v4.1c.27-.44.63-.78 1.07-1.01s.94-.36 1.47-.36c.49 0 .89.09 1.2.26.3.17.54.39.7.66.16.27.27.57.33.9s.08.66.08.97v4.7zM76.94 83.59H74.7v-4.13c0-.49-.09-.84-.27-1.06a.847.847 0 00-.68-.33c-.15 0-.3.03-.46.1-.15.07-.3.16-.43.27-.13.12-.25.25-.36.41a2.3 2.3 0 00-.26.52v4.21H70v-4.13c0-.49-.09-.84-.27-1.06a.852.852 0 00-.69-.33c-.3 0-.59.12-.88.36-.29.24-.49.55-.62.95v4.21H65.3v-7.35h2.02v1.23c.27-.45.64-.79 1.1-1.02s1-.35 1.62-.35c.31 0 .58.04.8.11.23.08.43.18.59.31.17.13.3.28.41.46.1.17.18.36.22.55.28-.46.65-.81 1.11-1.06s.98-.37 1.57-.37c.47 0 .84.09 1.13.26.29.17.51.4.67.67.16.28.26.58.31.9.05.33.08.64.08.95v4.72z" class="st3"/>
    <path d="M89.93 20.82H38.07c-1.54 0-2.79 1.25-2.79 2.78V87c0 1.53 1.25 2.78 2.79 2.78h51.86c1.54 0 2.79-1.25 2.79-2.78V23.6c0-1.53-1.25-2.78-2.79-2.78zm-51.65 3h51.44v44.2H38.28v-44.2zm51.44 62.96H38.28V71.02h51.44v15.76z" class="st3"/>
    <path d="M46.06 58.94h35.73c.93 0 1.5-1.01 1.02-1.81l-7.45-12.41a.51.51 0 00-.72-.16l-8.66 5.78c-.25.17-.59.08-.73-.18l-8.92-16.79c-.2-.38-.75-.35-.92.04L45.1 57.48c-.3.69.21 1.46.96 1.46z" class="st3"/>
    <circle cx="70.39" cy="36.57" r="3.67" class="st3"/>
</svg>