<svg xmlns="http://www.w3.org/2000/svg" id="Laag_1" x="0" y="0" version="1.1" viewBox="29 20.3 70 70" xml:space="preserve">
    <style>
        .st3{fill:#fff}
    </style>    <path d="M61.96 84c-.31.13-.66.25-1.06.36-.4.11-.8.17-1.2.17a2.9 2.9 0 01-.79-.1c-.25-.07-.46-.18-.65-.34-.19-.15-.33-.36-.44-.61-.11-.25-.16-.55-.16-.91v-3.84h-.94v-1.69h.94V74.7h2.24v2.34h1.5v1.69h-1.5v3.07c0 .24.06.42.18.52.12.11.28.16.46.16.17 0 .34-.03.52-.08.18-.06.33-.12.46-.18l.44 1.78zM62.83 76.2v-2.03h2.24v2.03h-2.24zm0 8.19v-7.35h2.24v7.35h-2.24zM67.09 84.39v-5.05h-.94v-1.69h.94v-.6c0-.46.06-.87.18-1.25.12-.37.29-.69.52-.95s.49-.46.81-.6c.32-.14.67-.21 1.05-.21.6 0 1.24.14 1.92.43l-.41 1.68c-.15-.07-.32-.12-.5-.16s-.35-.06-.51-.06c-.55 0-.83.34-.83 1.04v.69h1.71v1.69h-1.71v5.05h-2.23z" class="st3"/>
    <path d="M89.93 20.82H38.07c-1.54 0-2.79 1.25-2.79 2.78V87c0 1.53 1.25 2.78 2.79 2.78h51.86c1.54 0 2.79-1.25 2.79-2.78V23.6c0-1.53-1.25-2.78-2.79-2.78zm-51.65 3h51.44v44.2H38.28v-44.2zm51.44 62.96H38.28V71.02h51.44v15.76z" class="st3"/>
    <path d="M46.06 58.94h35.73c.93 0 1.5-1.01 1.02-1.81l-7.45-12.41a.51.51 0 00-.72-.16l-8.66 5.78c-.25.17-.59.08-.73-.18l-8.92-16.79c-.2-.38-.75-.35-.92.04L45.1 57.48c-.3.69.21 1.46.96 1.46z" class="st3"/>
    <circle cx="70.39" cy="36.57" r="3.67" class="st3"/>
</svg>