<svg xmlns="http://www.w3.org/2000/svg" id="Laag_1" x="0" y="0" version="1.1" viewBox="29 20.3 70 70" xml:space="preserve">
    <style>
        .st3{fill:#fff}.st4{fill:none}
    </style>    <path d="M60.02 84c-.31.13-.66.25-1.06.36-.4.11-.8.17-1.2.17a2.9 2.9 0 01-.79-.1c-.25-.07-.46-.18-.65-.34-.19-.15-.33-.36-.44-.61-.11-.25-.16-.55-.16-.91v-3.84h-.94v-1.69h.94V74.7h2.24v2.34h1.5v1.69h-1.5v3.07c0 .24.06.42.18.52.12.11.28.16.46.16.17 0 .34-.03.52-.08.18-.06.33-.12.46-.18l.44 1.78zM60.89 76.2v-2.03h2.24v2.03h-2.24zm0 8.19v-7.35h2.24v7.35h-2.24zM72.11 75.92c-.31 0-.53.1-.67.29-.14.2-.21.44-.21.74v.69h1.78v1.69h-1.78v5.05h-2.24v-5.05h-1.61v5.05h-2.24v-5.05h-.94v-1.69h.94v-.24c0-.42.06-.81.18-1.16.12-.35.29-.66.52-.91s.5-.45.82-.6c.32-.14.69-.22 1.1-.22.3 0 .61.04.92.1.32.07.64.17.97.3.22-.27.5-.49.83-.65s.72-.25 1.17-.25c.33 0 .64.04.95.13.31.08.61.19.91.31l-.41 1.68c-.14-.06-.3-.11-.47-.15-.17-.04-.34-.06-.52-.06zm-3.12 1.72v-.2c0-.1 0-.21.01-.34 0-.12.01-.24.02-.34.01-.11.02-.17.03-.19a2.097 2.097 0 00-.83-.17c-.3 0-.51.08-.64.25-.13.17-.2.39-.2.67v.31h1.61z" class="st3"/>
    <path d="M89.93 20.82H38.07c-1.54 0-2.79 1.25-2.79 2.78V87c0 1.53 1.25 2.78 2.79 2.78h51.86c1.54 0 2.79-1.25 2.79-2.78V23.6c0-1.53-1.25-2.78-2.79-2.78zm-51.65 3h51.44v44.2H38.28v-44.2zm51.44 62.96H38.28V71.02h51.44v15.76z" class="st3"/>
    <circle cx="62.97" cy="49.35" r="5.33" class="st3" transform="rotate(-45.001 62.97 49.352)"/>
    <path d="M80.61 36.55H59.53c.01-.06.01-.11.01-.17v-3.03c0-.65-.52-1.18-1.17-1.18h-6.88c-.65 0-1.17.53-1.17 1.18v3.03c0 .06 0 .11.01.17H47.4c-.65 0-1.18.53-1.18 1.18v20.8c0 .65.53 1.18 1.18 1.18h33.21c.65 0 1.17-.53 1.17-1.18v-20.8c0-.65-.52-1.18-1.17-1.18zm-30.48 6.5c-.96 0-1.73-.78-1.73-1.74s.77-1.74 1.73-1.74a1.741 1.741 0 010 3.48zm12.84 14.03c-4.27 0-7.73-3.46-7.73-7.73 0-4.27 3.46-7.73 7.73-7.73 4.27 0 7.73 3.46 7.73 7.73 0 4.27-3.46 7.73-7.73 7.73zm16.42-14.25c0 .38-.31.69-.69.69h-4.67c-.38 0-.69-.31-.69-.69v-3.05c0-.38.31-.69.69-.69h4.67c.38 0 .69.31.69.69v3.05z" class="st3"/>
    <circle cx="62.97" cy="49.35" r="5.6" class="st4" transform="rotate(-45.001 62.97 49.352)"/>
    <circle cx="62.97" cy="49.35" r="5.6" class="st4" transform="rotate(-45.001 62.97 49.352)"/>
</svg>