<svg xmlns="http://www.w3.org/2000/svg" id="Laag_1" x="0" y="0" version="1.1" viewBox="29 20.3 70 70" xml:space="preserve">
    <style>
        .st3,.st4{fill:#fff}.st4{stroke:#fff;stroke-width:3;stroke-miterlimit:10}
    </style>    <path d="M89.93 20.82H38.07c-1.54 0-2.79 1.25-2.79 2.78V87c0 1.53 1.25 2.78 2.79 2.78h51.86c1.54 0 2.79-1.25 2.79-2.78V23.6c0-1.53-1.25-2.78-2.79-2.78zm-51.65 3h51.44v44.2H38.28v-44.2zm51.44 62.96H38.28V71.02h51.44v15.76zM43.38 35h40.93" class="st3"/>
    <path d="M43.38 33.5h40.93v3H43.38z" class="st3"/>
    <path d="M43.38 45.72h40.93M43.38 54.93h40.93" class="st4"/>
    <path d="M59.83 83.55c-.33.14-.71.27-1.13.39-.43.12-.85.18-1.28.18-.3 0-.58-.04-.85-.11s-.5-.19-.7-.36-.36-.38-.47-.65c-.12-.27-.17-.6-.17-.98v-4.11h-1V76.1h1v-2.5h2.4v2.5h1.6v1.81h-1.6v3.29c0 .26.06.45.19.56.13.12.29.17.5.17.18 0 .36-.03.55-.09a4 4 0 00.5-.2l.46 1.91zM62.43 76.1l1.42 2.22.15.28.15-.29 1.41-2.22h2.46l-2.73 3.94 2.79 3.93h-2.46l-1.48-2.21-.14-.27-.13.29-1.49 2.21h-2.46l2.79-3.93-2.73-3.94h2.45zM73.99 83.55c-.33.14-.71.27-1.13.39-.43.12-.85.18-1.28.18-.3 0-.58-.04-.85-.11s-.5-.19-.7-.36-.36-.38-.47-.65c-.12-.27-.17-.6-.17-.98v-4.11h-1V76.1h1v-2.5h2.4v2.5h1.61v1.81h-1.61v3.29c0 .26.07.45.2.56.13.12.29.17.5.17.18 0 .37-.03.55-.09.19-.06.36-.13.5-.2l.45 1.91z" class="st3"/>
</svg>