<svg xmlns="http://www.w3.org/2000/svg" id="Laag_1" x="0" y="0" version="1.1" viewBox="29 20.3 70 70" xml:space="preserve">
    <style>
        .st3{fill:#fff}
    </style>    <path d="M56.54 74.74h2.36l-3.36 8.14H53.5l-1.26-3.35-1.26 3.35h-2.03l-3.36-8.14h2.34l2.22 5.84.76-2.22-1.44-3.63h1.98l.79 2.45.77-2.45H55l-1.43 3.63.76 2.22 2.21-5.84zM72.55 82.87h-2.48V78.3c0-.54-.1-.93-.29-1.17a.942.942 0 00-.76-.36c-.17 0-.33.04-.5.11-.17.07-.33.17-.47.3-.15.13-.28.28-.4.46s-.21.37-.29.57v4.67h-2.48V78.3c0-.54-.1-.93-.29-1.17a.942.942 0 00-.76-.36c-.33 0-.65.13-.97.4-.32.26-.55.61-.69 1.05v4.67h-2.48v-8.14h2.23v1.36c.3-.5.71-.87 1.22-1.13.51-.26 1.11-.39 1.79-.39.34 0 .64.04.89.12.25.08.47.2.66.34.19.14.33.31.45.5.11.19.2.4.25.61.31-.51.72-.9 1.22-1.17.51-.27 1.08-.41 1.74-.41.52 0 .93.1 1.25.29s.56.44.74.74.29.64.35 1 .09.71.09 1.05v5.21zM76.49 83.03c-.4 0-.78-.06-1.12-.19-.35-.13-.64-.31-.89-.54a2.526 2.526 0 01-.81-1.85c0-.4.08-.77.26-1.1.17-.33.41-.61.72-.85s.68-.42 1.1-.56c.42-.13.89-.2 1.41-.2.34 0 .67.03.99.09s.6.14.84.26v-.39c0-.94-.54-1.41-1.63-1.41-.44 0-.87.08-1.27.23-.4.15-.83.37-1.27.67l-.73-1.55c.54-.35 1.09-.62 1.67-.79.58-.17 1.19-.26 1.84-.26 1.23 0 2.18.29 2.85.87.67.58 1.01 1.43 1.01 2.54v2.09c0 .25.04.42.12.52.08.1.21.16.41.18v2.09c-.22.05-.41.08-.59.1s-.34.02-.48.02c-.46 0-.82-.09-1.05-.27-.24-.18-.39-.44-.45-.77l-.05-.37c-.36.46-.79.82-1.29 1.07-.51.24-1.04.37-1.59.37zm.72-1.78c.27 0 .53-.05.78-.14.25-.09.46-.22.63-.37.24-.19.36-.38.36-.59v-.78c-.22-.08-.45-.15-.71-.19-.25-.05-.49-.07-.71-.07-.46 0-.83.1-1.12.31-.29.2-.44.47-.44.8 0 .3.11.54.34.74s.52.29.87.29z" class="st3"/>
    <path d="M89.93 20.82H38.07c-1.54 0-2.79 1.25-2.79 2.78V87c0 1.53 1.25 2.78 2.79 2.78h51.86c1.54 0 2.79-1.25 2.79-2.78V23.6c0-1.53-1.25-2.78-2.79-2.78zm-51.65 3h51.44v44.2H38.28v-44.2zm51.44 62.96H38.28V71.02h51.44v15.76z" class="st3"/>
    <path d="M52.92 47.3V35c0-.99.44-1.6 1.15-1.65.63-.05 1.2.47 1.29 1.21.03.26.02.52.02.78v23.9c0 .23.01.47-.01.7-.07.77-.58 1.3-1.22 1.3s-1.15-.53-1.22-1.3c-.03-.32-.01-.64-.01-.96V47.3zM75.09 47.39v11.95c0 .26.02.53-.03.78-.15.7-.55 1.12-1.2 1.12-.64 0-1.05-.42-1.2-1.12-.06-.28-.03-.58-.03-.87v-23.9c0-.26-.02-.53.02-.78.12-.75.53-1.21 1.21-1.21.68 0 1.09.46 1.21 1.21.04.25.02.52.02.78v12.04zM50.46 47.84v6.67c0 1.12-.46 1.77-1.23 1.77S48 55.63 48 54.51V41c0-1.12.46-1.77 1.23-1.77s1.23.65 1.23 1.77v6.84zM60.31 47.75v6.75c0 1.12-.47 1.77-1.23 1.77-.77 0-1.23-.65-1.23-1.77V40.99c0-1.12.46-1.77 1.23-1.77s1.23.65 1.23 1.77v6.76zM70.16 47.75v6.75c0 1.12-.46 1.77-1.23 1.77s-1.23-.65-1.23-1.77V40.99c0-1.12.46-1.77 1.23-1.77s1.23.65 1.23 1.77c.01 2.26 0 4.51 0 6.76zM80.02 47.78v6.75c0 1.1-.49 1.76-1.26 1.74-.74-.02-1.2-.66-1.2-1.71-.01-4.53 0-9.07 0-13.6 0-1.11.48-1.76 1.26-1.74.75.02 1.2.65 1.2 1.71v6.85zM62.77 47.77c0-1.15-.01-2.31 0-3.46.01-.9.49-1.45 1.24-1.45.75.01 1.22.55 1.22 1.47.01 2.31.01 4.62 0 6.93 0 .9-.49 1.45-1.24 1.45-.75-.01-1.21-.55-1.22-1.47v-3.47zM45.53 47.42c0 .53.02 1.06 0 1.59-.04 1.01-.54 1.69-1.21 1.71-.67.01-1.21-.67-1.23-1.67-.03-1.13-.03-2.26 0-3.39.03-1.01.54-1.69 1.21-1.71.67-.01 1.19.67 1.24 1.67.01.6-.02 1.2-.01 1.8zM84.94 47.42c0 .53.02 1.06 0 1.59-.04 1.01-.54 1.7-1.21 1.71-.67.01-1.21-.66-1.24-1.66-.03-1.13-.03-2.26 0-3.39.03-1.01.53-1.69 1.21-1.71.7-.01 1.21.7 1.24 1.77.02.56 0 1.13 0 1.69z" class="st3"/>
</svg>