<svg xmlns="http://www.w3.org/2000/svg" id="Laag_1" x="0" y="0" version="1.1" viewBox="29 20.3 70 70" xml:space="preserve">
    <style>
        .st3{fill:#fff}
    </style>    <path d="M89.93 20.82H38.07c-1.54 0-2.79 1.25-2.79 2.78V87c0 1.53 1.25 2.78 2.79 2.78h51.86c1.54 0 2.79-1.25 2.79-2.78V23.6c0-1.53-1.25-2.78-2.79-2.78zm-51.65 3h51.44v44.2H38.28v-44.2zm51.44 62.96H38.28V71.02h51.44v15.76z" class="st3"/>
    <path d="M56.78 76.45l1.47 2.29.15.29.16-.29 1.46-2.29h2.54l-2.82 4.08 2.88 4.06h-2.54l-1.53-2.28-.14-.29-.14.29-1.53 2.28H54.2l2.88-4.06-2.82-4.08h2.52zM63.43 73.27h2.48v8.42c0 .62.26.93.79.93.12 0 .26-.02.41-.05.15-.04.29-.09.41-.16l.33 1.86c-.31.14-.67.26-1.07.34-.4.08-.78.12-1.13.12-.71 0-1.26-.19-1.64-.56-.38-.37-.57-.91-.57-1.61v-9.29zM73.81 78.58c-.6.01-1.14.11-1.63.29-.49.19-.84.46-1.05.84v4.88h-2.48v-8.14h2.28v1.64c.28-.55.64-.98 1.08-1.29.44-.31.91-.47 1.4-.48h.25c.05 0 .1.01.15.02v2.24zM84.79 48.43v-9.82H56.55v-5.87H43.21v29.43h41.57v-9.82h-.04v-3.92h.05zm-28.24-6.82h25.24v3.82H56.55v-3.82zm0 6.8h25.2v3.82h-25.2v-3.82zM46.21 35.74h7.33v2.87h-7.33v-2.87zm.08 9.69v-3.82h7.26v3.82h-7.26zm7.26 2.98v3.82h-7.26v-3.82h7.26zm-7.34 10.76v-3.94h7.33v3.94h-7.33zm35.58 0H56.55v-3.82h25.24v3.82z" class="st3"/>
</svg>